<svg width="32" height="33" fill="none" xmlns="http://www.w3.org/2000/svg"><path d="M11.78 13.987a2.667 2.667 0 0 0 1.941-1.94l1.632-6.528c.168-.673 1.125-.673 1.294 0l1.631 6.528a2.667 2.667 0 0 0 1.94 1.94l6.528 1.632c.673.168.673 1.125 0 1.293l-6.527 1.632a2.667 2.667 0 0 0-1.94 1.94l-1.632 6.528c-.169.673-1.126.673-1.294 0l-1.632-6.528a2.666 2.666 0 0 0-1.94-1.94l-6.527-1.632c-.674-.168-.674-1.125 0-1.293l6.527-1.632Z" fill="url(#a)"/><defs><linearGradient id="a" x1="2.667" y1="16.265" x2="29.333" y2="16.265" gradientUnits="userSpaceOnUse"><stop stop-color="#E65C00"/><stop offset="1" stop-color="#F9D423"/></linearGradient></defs></svg>