<svg width="330" height="55" fill="none" xmlns="http://www.w3.org/2000/svg"><mask id="a" style="mask-type:alpha" maskUnits="userSpaceOnUse" x="0" y="0" width="330" height="55"><path fill="#D9D9D9" d="M0 0h330v55H0z"/></mask><g mask="url(#a)"><path fill-rule="evenodd" clip-rule="evenodd" d="M110.362 7.868C113.02 3.171 118.062 0 123.845 0c6.175 0 11.506 3.616 13.99 8.846a46.293 46.293 0 0 1 20.179 10.139 23.115 23.115 0 0 1 12.272-3.504c1.922 0 3.788.233 5.574.673 2.568-4.996 7.773-8.414 13.777-8.414 6.108 0 11.389 3.537 13.908 8.675a46.65 46.65 0 0 1 9.313-.934c5.205 0 10.21.856 14.882 2.436a15.407 15.407 0 0 1 8.339-2.436c8.549 0 15.48 6.93 15.48 15.48 0 .108-.001.215-.003.322a23.387 23.387 0 0 1 3.874-.321c5.131 0 9.873 1.664 13.716 4.482 5.534-6.589 13.462-11.099 22.446-12.189a15.422 15.422 0 0 1 10.279-3.905 15.45 15.45 0 0 1 12.014 5.717 15.413 15.413 0 0 1 7.337-1.846c8.549 0 15.48 6.931 15.48 15.48 0 5.26-2.622 9.907-6.631 12.705.389 2.082.592 4.23.592 6.425 0 19.237-15.595 34.832-34.832 34.832-12.961 0-24.268-7.08-30.267-17.582a23.088 23.088 0 0 1-8.896 2.29c-6.366 18.055-23.577 30.993-43.81 30.993-20.684 0-38.209-13.52-44.22-32.206-7.838 14.565-23.224 24.466-40.923 24.466-16.73 0-31.393-8.846-39.569-22.115-7.564 15.391-23.397 25.984-41.705 25.984-17.235 0-32.277-9.389-40.292-23.33-.75.072-1.51.11-2.279.11-12.825 0-23.22-10.397-23.22-23.221 0-10.13 6.487-18.746 15.534-21.919a15.6 15.6 0 0 1-.054-1.302c0-8.55 6.93-15.48 15.48-15.48 2.472 0 4.808.578 6.88 1.608a46.237 46.237 0 0 1 27.951-9.35 46.244 46.244 0 0 1 28.757 9.972 23.13 23.13 0 0 1 9.945-2.23c2.788 0 5.461.49 7.938 1.391 1.186-7.371 7.577-13.002 15.283-13.002.677 0 1.344.044 1.998.128Z" fill="#fff"/></g></svg>