<svg width="1009" height="1009" fill="none" xmlns="http://www.w3.org/2000/svg"><mask id="a" style="mask-type:alpha" maskUnits="userSpaceOnUse" x="0" y="0" width="1009" height="1009"><path fill="#fff" d="M0 0h1009v1009H0z"/></mask><g mask="url(#a)"><path d="M215.952 367.629a8.723 8.723 0 0 1 .221 3.367c6.707.841 12.129 4.193 14.2 9.531 3.511 9.052-3.944 20.385-16.652 25.315a34.486 34.486 0 0 1-4.997 1.518 6.888 6.888 0 0 1-9.478 8.704c-2.14 5.956-7.165 10.843-13.87 12.64-8.19 2.194-16.516-.858-21.232-7.067a14.28 14.28 0 0 1-4.468 2.069c-7.349 1.969-14.835-2.143-16.722-9.185-.771-2.877-.488-5.798.617-8.381-8.396-.837-14.742-4.417-16.241-10.012-1.993-7.437 5.212-16.074 16.78-21.142a12.042 12.042 0 0 1 8.215-7.54 12.014 12.014 0 0 1 4.793-.297c.2-8.152 6.256-15.735 15.223-18.138 10.309-2.762 20.71 2.329 23.822 11.442l.038-.01c9.185-2.461 18.028.756 19.751 7.186Z" fill="url(#b)"/><path d="M357.539 259.363a6.624 6.624 0 0 1-.17 2.548c4.946 1.301 8.677 4.357 9.697 8.567 1.728 7.14-4.996 14.895-15.019 17.322a26.073 26.073 0 0 1-3.9.639 5.212 5.212 0 0 1-7.979 5.581c-2.2 4.253-6.457 7.416-11.665 8.093-6.362.828-12.302-2.294-15.218-7.422a10.804 10.804 0 0 1-3.558 1.106c-5.708.742-10.912-3.091-11.624-8.561a9.682 9.682 0 0 1 1.301-6.224c-6.213-1.466-10.615-4.786-11.18-9.132-.751-5.777 5.515-11.535 14.698-14.18a9.111 9.111 0 0 1 6.915-4.833 9.08 9.08 0 0 1 3.624.256c.965-6.094 6.265-11.177 13.231-12.082 8.007-1.042 15.299 3.816 16.723 10.962l.029-.003c7.135-.928 13.445 2.368 14.095 7.363Z" fill="url(#c)"/><path d="M843.092 375.464c-1.738-1.523-2.017-4.162-.848-6.406-9.608.156-17.62-5.419-17.982-12.583-.272-5.359 3.814-10.11 9.904-12.359a3.766 3.766 0 0 1-.591-1.84c-.143-3.301 4.361-6.178 10.061-6.424a17.378 17.378 0 0 1 3.117.14c1.423-5.681 6.967-10.063 13.772-10.357 8.078-.35 14.885 5.192 15.247 12.394.45-.094.916-.154 1.394-.174 4.126-.179 7.601 2.579 7.788 6.169 8.315 2.093 14.091 6.804 13.767 11.897-.271 4.274-4.769 7.737-11.239 9.346a8.056 8.056 0 0 1 .977 3.509c.208 4.804-3.883 8.883-9.138 9.111a10.25 10.25 0 0 1-4.021-.625c-2.451 3.574-6.943 6.072-12.174 6.299-6.422.278-12.031-2.95-14.234-7.691-1.95 1.044-4.242.959-5.8-.406Z" fill="url(#d)"/><path d="M729.103 193.531c1.738-2.261 5.147-2.261 6.885 0l3.87 5.034c.331.431.931.551 1.403.279l5.501-3.17c2.471-1.424 5.621-.119 6.362 2.635l1.648 6.132c.142.525.65.865 1.189.794l6.296-.823c2.828-.37 5.239 2.041 4.869 4.869l-.823 6.296a1.085 1.085 0 0 0 .794 1.189l6.132 1.648c2.754.741 4.059 3.891 2.635 6.362l-3.17 5.501a1.086 1.086 0 0 0 .279 1.403l5.034 3.87c2.261 1.738 2.261 5.147 0 6.885l-5.034 3.87a1.086 1.086 0 0 0-.279 1.403l3.17 5.501c1.424 2.471.119 5.621-2.635 6.362l-6.132 1.648c-.525.142-.865.65-.794 1.189l.823 6.296c.37 2.828-2.041 5.239-4.869 4.869l-6.296-.823a1.086 1.086 0 0 0-1.189.794l-1.648 6.132c-.741 2.754-3.891 4.059-6.362 2.635l-5.501-3.17a1.086 1.086 0 0 0-1.403.279l-3.87 5.034c-1.738 2.261-5.147 2.261-6.885 0l-3.87-5.034a1.086 1.086 0 0 0-1.403-.279l-5.501 3.17c-2.471 1.424-5.621.119-6.362-2.635l-1.648-6.132a1.086 1.086 0 0 0-1.19-.794l-6.295.823c-2.828.37-5.239-2.041-4.869-4.869l.823-6.296a1.086 1.086 0 0 0-.795-1.189l-6.131-1.648c-2.754-.741-4.059-3.891-2.635-6.362l3.17-5.501a1.087 1.087 0 0 0-.279-1.403l-5.034-3.87c-2.261-1.738-2.261-5.147 0-6.885l5.034-3.87c.431-.331.55-.931.279-1.403l-3.17-5.501c-1.424-2.471-.119-5.621 2.635-6.361l6.131-1.649c.526-.141.866-.65.795-1.189l-.823-6.296c-.37-2.828 2.041-5.239 4.869-4.869l6.295.823a1.086 1.086 0 0 0 1.19-.794l1.648-6.132c.741-2.754 3.891-4.059 6.362-2.635l5.501 3.17a1.086 1.086 0 0 0 1.403-.279l3.87-5.034Z" fill="url(#e)"/><circle cx="732.545" cy="238.993" fill="url(#f)" r="33.655"/></g><defs><linearGradient id="b" x1="168.622" y1="350.008" x2="189.418" y2="427.62" gradientUnits="userSpaceOnUse"><stop stop-color="#fff"/><stop offset="1" stop-color="#F4FDFF" stop-opacity=".76"/></linearGradient><linearGradient id="c" x1="323.803" y1="241.416" x2="331.643" y2="301.705" gradientUnits="userSpaceOnUse"><stop stop-color="#fff"/><stop offset="1" stop-color="#F4FDFF" stop-opacity=".76"/></linearGradient><linearGradient id="d" x1="866.252" y1="326.215" x2="857.063" y2="382.947" gradientUnits="userSpaceOnUse"><stop stop-color="#fff"/><stop offset="1" stop-color="#F4FDFF" stop-opacity=".76"/></linearGradient><radialGradient id="e" cx="0" cy="0" r="1" gradientUnits="userSpaceOnUse" gradientTransform="matrix(0 49.9398 -49.9401 0 732.545 238.993)"><stop offset=".445" stop-color="#FFE178"/><stop offset="1" stop-color="#FFF387"/></radialGradient><radialGradient id="f" cx="0" cy="0" r="1" gradientUnits="userSpaceOnUse" gradientTransform="matrix(0 33.6551 -33.6553 0 732.545 238.993)"><stop stop-color="#FFE380"/><stop offset="1" stop-color="#FFCD1E"/></radialGradient></defs></svg>