<svg width="1009" height="1009" fill="none" xmlns="http://www.w3.org/2000/svg"><mask id="a" style="mask-type:alpha" maskUnits="userSpaceOnUse" x="0" y="0" width="1009" height="1009"><path fill="#fff" d="M0 0h1009v1009H0z"/></mask><g mask="url(#a)"><path fill="url(#b)" d="M0 0h1009v1009H0z"/><path opacity=".2" d="M383.424 219.027c11.207-21.47 36.951-36.488 66.918-36.488 31.007 0 57.493 16.079 68.032 38.746a29.785 29.785 0 0 1 11.433-2.266c9.241 0 17.502 4.196 22.985 10.789 11.646-5.492 24.91-8.6 38.983-8.6 44.644 0 81.138 31.277 83.696 70.718.29-.008.581-.012.872-.012 11.733 0 21.887 6.765 26.78 16.61a94.363 94.363 0 0 1 9.672-.494c46.303 0 83.84 33.645 83.84 75.148 0 3.999-.349 7.924-1.02 11.754a59.806 59.806 0 0 1 2.402-.048c29.2 0 52.872 21.218 52.872 47.391a42.959 42.959 0 0 1-3.451 16.876c54.134 18.347 92.817 66.911 92.817 123.936 0 11.541-1.585 22.736-4.561 33.403 11.036 2.523 22.211 6.913 32.928 13.239 42.958 25.357 62.278 72.215 43.158 104.661-19.125 32.447-69.451 38.194-112.408 12.837-19.28-11.38-33.799-27.092-42.218-43.888-17.582 7.397-37.079 11.512-57.603 11.512-30.78 0-59.252-9.255-82.415-24.957-52.344 40.525-122.559 65.317-199.742 65.317-79.563 0-151.722-26.345-204.532-69.11.162 4.921-.018 9.893-.559 14.898-7.305 67.672-77.715 115.559-157.264 106.959-79.55-8.601-138.115-70.432-130.81-138.104 5.041-46.707 40.143-83.988 87.563-99.778-10.563-24.555-6.133-52.002 12.841-67.245 6.404-5.145 13.807-8.37 21.638-9.784-.792-29.905 10.818-57.962 34.224-75.316 11.7-8.674 25.097-13.747 39.113-15.47a29.882 29.882 0 0 1-1.829-10.328c0-16.521 13.382-29.913 29.89-29.913.146 0 .291.001.436.003.194-4.157.7-8.355 1.536-12.567 8.597-43.333 48.899-71.991 90.684-64.983-2.991-9.205-3.412-18.993-.701-28.523 5.537-19.471 22.748-32.965 43.8-36.923Z" fill="url(#c)"/><path opacity=".8" d="M621.894 274.66c-8.959-17.153-29.537-29.152-53.491-29.152-24.785 0-45.957 12.846-54.381 30.956a23.828 23.828 0 0 0-9.139-1.81c-7.387 0-13.99 3.353-18.373 8.62-9.309-4.388-19.911-6.872-31.161-6.872-35.686 0-64.857 24.99-66.902 56.502-.232-.007-.464-.01-.697-.01-9.379 0-17.496 5.405-21.407 13.271a75.511 75.511 0 0 0-7.731-.395c-37.012 0-67.017 26.881-67.017 60.04 0 3.195.279 6.331.815 9.391a48.863 48.863 0 0 0-1.919-.038c-23.342 0-42.264 16.952-42.264 37.864 0 4.749.977 9.294 2.759 13.483-43.272 14.658-74.193 53.459-74.193 99.02a99.086 99.086 0 0 0 3.646 26.687c-8.821 2.016-17.755 5.523-26.321 10.578-34.338 20.259-49.782 57.697-34.496 83.62 15.286 25.923 55.513 30.515 89.851 10.256 15.411-9.093 27.017-21.646 33.746-35.065 14.054 5.91 29.64 9.198 46.045 9.198 24.604 0 47.363-7.395 65.878-19.94 41.841 32.378 97.967 52.186 159.663 52.186 63.599 0 121.278-21.049 163.492-55.216a84.824 84.824 0 0 0 .447 11.902c5.839 54.068 62.121 92.328 125.708 85.456 63.588-6.871 110.402-56.272 104.563-110.339-4.03-37.317-32.089-67.103-69.994-79.719 8.444-19.618 4.903-41.547-10.264-53.726-5.119-4.11-11.037-6.687-17.296-7.817.633-23.892-8.648-46.309-27.357-60.174-9.352-6.93-20.061-10.984-31.265-12.36a23.859 23.859 0 0 0 1.462-8.252c0-13.199-10.697-23.899-23.893-23.899-.116 0-.232 0-.348.002a67.77 67.77 0 0 0-1.227-10.04c-6.873-34.622-39.088-57.518-72.489-51.919 2.391-7.355 2.728-15.174.561-22.789-4.426-15.556-18.184-26.338-35.011-29.5Z" fill="url(#d)"/><path d="M410.615 333.744c6.441-12.316 21.236-20.932 38.458-20.932 17.82 0 33.041 9.224 39.098 22.227a17.154 17.154 0 0 1 6.57-1.3 17.15 17.15 0 0 1 13.21 6.19c6.693-3.151 14.316-4.934 22.404-4.934 25.657 0 46.63 17.942 48.1 40.568.166-.005.333-.007.501-.007 6.743 0 12.578 3.881 15.39 9.529a54.215 54.215 0 0 1 5.559-.284c26.61 0 48.182 19.301 48.182 43.11 0 2.293-.2 4.545-.586 6.742a35.15 35.15 0 0 1 1.381-.027c16.781 0 30.385 12.172 30.385 27.186 0 3.41-.701 6.674-1.983 9.681 31.111 10.525 53.342 38.384 53.342 71.097 0 6.621-.911 13.043-2.621 19.162 6.342 1.447 12.765 3.966 18.924 7.595 24.687 14.546 35.791 41.426 24.801 60.039-10.99 18.613-39.912 21.91-64.6 7.364-11.08-6.528-19.424-15.541-24.262-25.177-10.104 4.244-21.31 6.604-33.105 6.604-17.689 0-34.052-5.309-47.364-14.316-30.082 23.247-70.434 37.469-114.791 37.469-45.725 0-87.195-15.113-117.545-39.645a60.73 60.73 0 0 1-.321 8.546c-4.198 38.821-44.663 66.292-90.38 61.358-45.717-4.934-79.375-40.404-75.176-79.225 2.897-26.793 23.07-48.18 50.322-57.238-6.07-14.086-3.525-29.831 7.38-38.575 3.681-2.952 7.935-4.802 12.435-5.613-.455-17.155 6.218-33.251 19.669-43.206 6.724-4.975 14.423-7.886 22.478-8.874a17.116 17.116 0 0 1-1.051-5.925c0-9.477 7.691-17.16 17.178-17.16l.25.002c.112-2.385.403-4.793.883-7.209 4.941-24.859 28.103-41.298 52.116-37.278-1.719-5.281-1.96-10.896-.403-16.363 3.183-11.169 13.074-18.91 25.172-21.181Z" fill="url(#e)"/><path d="M506.151 368.49c6.441-12.316 21.236-20.931 38.458-20.931 17.82 0 33.041 9.223 39.098 22.227a17.14 17.14 0 0 1 6.571-1.3 17.147 17.147 0 0 1 13.209 6.189c6.693-3.151 14.316-4.934 22.404-4.934 25.657 0 46.63 17.943 48.1 40.568.167-.004.334-.007.501-.007 6.743 0 12.579 3.881 15.391 9.529a54.466 54.466 0 0 1 5.558-.284c26.611 0 48.183 19.301 48.183 43.11 0 2.294-.201 4.546-.586 6.742.457-.018.917-.027 1.38-.027 16.782 0 30.386 12.172 30.386 27.186 0 3.41-.702 6.674-1.983 9.681 31.11 10.525 53.341 38.384 53.341 71.097 0 6.621-.91 13.043-2.621 19.162 6.342 1.447 12.765 3.966 18.924 7.595 24.687 14.546 35.791 41.426 24.801 60.039-10.99 18.614-39.912 21.91-64.599 7.364-11.08-6.528-19.424-15.541-24.263-25.177-10.104 4.244-21.309 6.605-33.104 6.605-17.69 0-34.052-5.31-47.364-14.317-30.082 23.247-70.435 37.469-114.792 37.469-45.725 0-87.194-15.112-117.545-39.645a60.88 60.88 0 0 1-.32 8.546c-4.199 38.821-44.663 66.292-90.38 61.358-45.718-4.934-79.375-40.404-75.177-79.225 2.898-26.793 23.071-48.18 50.323-57.238-6.071-14.086-3.525-29.831 7.379-38.575 3.681-2.952 7.935-4.802 12.436-5.613-.456-17.155 6.217-33.251 19.668-43.205 6.724-4.976 14.424-7.887 22.479-8.875a17.116 17.116 0 0 1-1.052-5.925c0-9.477 7.691-17.16 17.178-17.16l.251.002c.111-2.385.402-4.793.882-7.209 4.941-24.859 28.103-41.298 52.117-37.278-1.719-5.281-1.961-10.895-.403-16.363 3.182-11.169 13.073-18.91 25.171-21.181Z" fill="url(#f)"/><path d="M261.155 587.426c-.507 15.73 31.968 16.745 36.788 15.223 5.263.852 43.714-25.917 36.586-68.69l-43.687-42.169H269.38c-2.486-3.403-10.26-9.239-21.462-5.366-11.202 3.874-11.123 13.828-9.684 18.321-1.657-1.527-5.941-4.004-9.814-1.701-3.874 2.303-2.923 6.543-1.963 8.375-7.503-2.53-23.844-3.638-29.183 12.17-6.674 19.761 12.854 34.729 19.735 34.153-6.85 5.328 0 13.482 10.402 9.134-2.537 21.058 26.387 28.669 33.744 20.55Z" fill="url(#g)"/><path d="M309.726 587.498c0-.852-1.703-29.441-2.554-43.629 4.257-1.845 12.77-4.853 12.77-2.128v45.757c-3.406.354-10.216.851-10.216 0Z" fill="#9B6D42"/><path d="M320.387 546.676c5.82-2.575 10.647-6.418 13.303-9.353l-1.473-40.636c-15.645-4.07-47.146-12.555-47.986-13.928-1.049-1.718-8.681 0-7.155 5.437-13.07-2.671-16.79 19.08-8.777 20.988-2.862.287-2.29 4.77.954 5.915-8.968 17.84 12.02 22.224 20.968 18.456-.934 3.009 2.5 6.062 5.769 4.46-1.838 4.368 3.409 7.898 7.13 5.322.858 4.26 10.199 6.468 17.267 3.339Z" fill="#38C39D"/><path fill-rule="evenodd" clip-rule="evenodd" d="m334.298 585.743.575-.1c-.134 15.79-.322 47.505 0 48.042.3.499-51.306 3.436-82.566 5.14a6.98 6.98 0 1 1-5.316-12.641 3.891 3.891 0 0 1 3.147-6.698 13.043 13.043 0 0 1-.481-3.518c0-7.189 5.828-13.017 13.017-13.017 1.704 0 3.332.328 4.823.923-.681-1.593-.521-3.285.557-4.289 1.236-1.152 3.289-1.037 4.983.148-1.861-4.687-1.073-9.76 2.387-12.661 3.273-2.746 8.045-2.799 12.185-.553 2.126-3.968 6.179-6.65 10.829-6.65 2.51 0 4.845.781 6.798 2.124.099-.725.406-1.376.931-1.865 1.377-1.284 3.768-.994 5.546.595 2.224-3.507 6.027-5.819 10.345-5.819 6.147 0 11.251 4.687 12.24 10.839Z" fill="url(#h)"/><path d="M284.415 627.376c-1.074 3.543 2.505 6.799 4.429 7.784l41.735-1.745c-.178-11.097-.427-33.236 0-33.013-15.03-8.051-25.766 2.013-24.827 6.844-4.938-1.825-6.083.761-6.038 2.282-1.969-1.208-6.898-2.63-10.87 1.342-3.973 3.972-3.355 10.467.939 13.419-1.029-.134-4.295-.456-5.368 3.087Z" fill="url(#i)"/><path d="M284.114 488.134c-7.138 20.138 14.537 20.185 20.655 18.4l59.132-64.539c-2.039-3.314-10.196-11.879-26.511-19.628-20.393-9.687-38.491 7.647-38.237 12.236-2.294-2.294-9.669 2.761-4.843 7.392-15.966 0-18.946 17.907-13.255 23.707-3.059 2.294-5.561 9.744 3.059 12.236-7.713 1.912-5.252 10.196 0 10.196Z" fill="#37B894"/><path d="M328.023 411.86c-2.491 3.528 1.376 15.355 6.018 16.602h26.055c3.622-9.925 10.397-30.833 8.517-35.062-2.349-5.287-11.16-4.699-12.628-1.616-2.35-1.908-7.342-2.055-7.049 3.818-11.864-2.702-16.949 4.87-18.008 8.994-5.603-1.661-6.903 5.969-2.905 7.264Z" fill="url(#j)"/><path d="M417.056 378.87c-9.63-.996-15.911 7.887-17.848 12.452 53.752 2.768 160.758 6.849 158.766 1.038-2.491-7.263-31.131-13.49-36.319-9.546-2.906-8.509-17.433-17.848-23.867-6.849-.415-2.905-2.283-6.019-6.849-3.736 5.189-7.056-2.905-19.093-12.66-12.867 2.906-3.528-3.113-11.622-9.131-7.679-2.698-13.075-24.075-18.055-28.433 0-4.151-1.037-9.547 2.892-6.473 9.325-4.746-2.595-5.484 3.586-3.074 5.825-3.735-1.66-14.735.415-14.112 12.037Z" fill="url(#k)"/><path d="M694.839 540.031c1.945 5.513-8.106 16.213-16.537 23.671 4.107-28.426 12.127-87.159 11.349-94.682-.973-9.403 25.292-10.376 27.886-3.891 17.509-8.43 26.264 12.646 19.779 20.104 16.537-2.919 12.432 31.842-2.918 27.237 3.242.973 1.945 10.052-3.243 9.403-.324 6.81-9.079 6.81-13.618 6.161 1.621 3.243-2.594 6.161-4.216 4.54 0 2.918-9.727 11.024-18.482 7.457Z" fill="#38C39D"/><g opacity=".8"><path d="M621.268 387.774c5.405 4.397 16.475 5.202 14.865 0-1.952-6.306-15.954-9.817-24.096-29.359l-39.627-2.171c-4.074 13.335-20.454 27.982-26.313 31.53-9.664 5.852 2.198 11.862 14.391 4.397-10.453 18.194 10.88 6.882 13.257 2.586-4.358 11.645 4.921 16.23 12.812 3.977 1.146 17.793 14.741 11.112 12.939-2.852 10.811 16.817 16.817 9.01 11.712-3.711 12.463 12.12 12.917 1.096 10.06-4.397Z" fill="url(#l)"/><path d="M617.115 357.926c2.677 2.882 10.346 6.163 12.788 2.311 3.402-5.368-13.441-10.891-19.727-29.892l-32.19-1.187c-2.133 13.59-16.545 23.713-21.293 26.934-7.254 4.92 5.132 10.435 11.935 4.052-9.221 14.963 6.383 6.804 8.484 3.269-3.126 8.16 5.441 12.745 8.191-1.274.5 14.927 7.054 11.753 10.436 1.961 5.545 11.698 12.332 7.548 11.682-1.54 11.8 11.273 11.944.039 9.694-4.634Z" fill="url(#m)"/><path d="M611.374 333.426c1.952 1.932 9.123 3.349 10.829.711 2.377-3.675-14.146-6.448-18.542-25.585-1.162-5.059-2.14-23.492-9.281-23.649-5.148-.114-7.55 10.848-8.82 23.25-1.271 12.403-14.079 20.358-17.445 22.588-4.973 3.295 4.82 5.663 9.417 2.411-4.958 6.342 3.624 8.275 8.556 2.108-2.278 5.987 5.308 8.306 7.569 3.095-.101 4.561 8.234 5.247 8.393-1.987 9.056 9.246 10.99.21 9.324-2.942Z" fill="url(#n)"/></g><path d="M765.564 581.278c0-10.76-1.131-33.303-1.131-39.335 4.256-1.845 17.758-1.328 17.092 1.313-1.634 6.478-1.006 26.795-1.006 40.912-3.405.355-14.955-2.039-14.955-2.89Z" fill="#9B6D42"/><path d="M751.669 535.004c-21.75 22.619-26.533 9.787-16.612-6.405-7.461 7.038-33.894 16.899-22.917-3.557-10.964 5.858-22.095.055-13.506-5.624 11.831-7.822 24.952-16.202 41.594-43.84l78.954-.06c5.776 20.104 25.961 44.372 36.038 49.694 16.62 8.778-4.491 18.925-25.249 3.315 14.034 30.962-15.419 15.35-19.502 8.9 2.539 19.853-14.72 21.541-22.053 2.572 2.534 25.39-17.595 21.22-20.453.015-5.773 24.002-25.894 10.345-16.294-5.01Z" fill="url(#o)"/><path d="M732.07 469.56c-7.937 5.56-24.179 6.591-21.811.018 2.872-7.968 26.132-17.643 38.191-46.001l61.79 1.576c8.807 20.62 23.532 39.84 32.125 44.314 14.172 7.38-3.24 14.987-21.121 5.571 15.314 22.97-15.972 8.707-19.454 3.284 6.379 14.705-7.241 20.507-18.804 5.039-1.704 22.478-21.642 14.056-18.982-3.586-15.882 21.257-24.685 11.401-17.179-4.674-18.301 15.326-18.954 1.401-14.755-5.541Z" fill="url(#p)"/><path d="M749.122 425.625c-3.705 3.528-14.075 7.329-17.135 2.331-4.266-6.963 18.425-13.177 27.725-36.97h42.906c2.173 17.327 20.859 30.834 27.021 35.139 9.414 6.576-7.344 12.987-16.086 4.579 11.54 19.398-8.83 8.325-11.453 3.746 3.76 10.49-7.868 15.902-10.84-1.998-1.399 18.899-9.966 14.57-13.988 1.998-7.955 14.57-16.785 8.992-15.474-2.498-16.261 13.738-15.901-.508-12.676-6.327Z" fill="url(#q)"/><path d="M761.538 392.477c-2.487 2.273-11.47 3.788-13.524.568-2.863-4.486 17.819-7.385 23.828-30.299 1.588-6.058 3.315-28.217 12.225-28.217 6.423 0 9.117 13.256 10.36 28.217 1.243 14.96 16.998 24.875 21.134 27.648 6.112 4.097-6.167 6.687-11.81 2.651 6.009 7.764-4.747 9.863-10.729 2.31 2.676 7.265-6.848 9.855-9.524 3.525 0 5.492-10.413 6.096-10.413-2.615-11.547 10.888-13.712-.039-11.547-3.788Z" fill="url(#r)"/><path d="M665.402 405.552c-.716-6.209-11.701-6.925-16.477-6.925l16.477 74.747c13.613 6.925 38.735 19.391 44.658 19.582 7.403.239 10.746-13.851 3.582-19.582 15.522-13.374 0-31.284-7.403-31.284 5.015-4.537.955-7.881-2.388-6.448 1.194-3.821 1.194-8.836-5.254-7.164 9.313-17.911-12.657-29.851-22.926-21.015 0-7.642-7.403-8.836-10.269-1.911Z" fill="#10BE89"/><path d="M784.015 581.295c0-12.774-35.697-2.625-41.822 4.725l2.275 55.994c23.156 8.516 69.539 22.083 76.818 9.624 9.099-15.573 1.575-36.046-13.824-36.046 1.575-2.1 2.8-10.324-5.949-11.899 2.625-1.75 2.275-7.524-4.375-5.775 7.921-3.751 9.449-19.773-13.123-16.623Z" fill="url(#s)"/><path d="M698.748 561.681c-6.276-.897-12.078 7.098-14.195 11.207l-7.658 65.374c33.434 4.171 101.311 9.6 105.346-2.055 5.043-14.569-2.055-32.874-18.305-31.193 2.055-1.867 2.802-7.471-2.055-7.658 3.176-3.175.934-8.405-3.175-7.844-3.549-16.624-19.426-13.636-21.667-6.911 0-2.055-2.615-5.977-5.043-1.308 0-19.612-17.745-16.81-19.612-10.46 0-5.603-2.989-5.79-4.483-1.307-1.308-4.857-2.877-6.949-9.153-7.845Z" fill="url(#t)"/><path d="M684.553 596.429c3.175-5.043 12.701-20.173 17.744-7.284 6.724-7.659 16.998-3.549 13.449 7.284 4.007-2.613 7.527 2.249 4.343 6.098 9.858-9.228 23.388 8.639 12.841 14.822 6.35.186 5.23 5.416 1.681 7.097 6.911-.186 8.779 2.989 9.152 9.153.299 4.931-39.349 2.926-59.21 1.307v-38.477Z" fill="url(#u)"/><path d="M314.025 629.457c-93.366 3.474-142.763 23.884-314.297 43.969v161.218H1006.67V658.769c-16.644 2.172-4.01 7.383-83.05 2.172C796.598 652.566 800.941 630 702.689 630c-46.683 0-271.956-4.886-388.664-.543Z" fill="#81FFB3"/><path d="M314.025 640.316c-93.366 3.474-142.763 23.885-314.297 43.969V1010H1006.67V669.629c-16.644 2.171-4.01 7.382-83.05 2.171-127.022-8.375-122.679-30.941-220.931-30.941-46.683 0-271.956-4.885-388.664-.543Z" fill="#74F297"/><path d="M218.487 690.793C122.081 676.028 33.203 696.945.814 709.249v126.478h351.209c21.713-.905 69.699-4.451 87.938-11.399 22.799-8.685-18.456-18.456-82.51-18.456-64.053 0-138.964-23.885-76.538-40.712 62.425-16.828 214.959 39.083 256.757 40.712 41.797 1.628 113.993 16.827 142.763-10.314 28.77-27.141-125.936-52.654-192.161-52.111-66.224.543-149.277-34.198-269.785-52.654Zm255.187 200.285C318 891.078 312.5 943.732 5 1024.61l251 11.4h351.209c21.713-.9 69.699-4.45 87.938-11.4 22.799-8.68-18.456-18.45-82.51-18.45-64.053 0-138.963-23.888-76.538-40.715 62.425-16.828 214.959 39.085 256.757 40.715 41.798 1.63 113.993 16.82 142.763-10.317 28.77-27.141-125.935-52.654-192.16-52.111-66.225.543-147.873-52.654-269.785-52.654Z" fill="#69EC7E"/><path d="M926.876 686.456c28.227 3.039 64.597-4.524 79.254-8.686v157.962H802.569c-6.695.905-89.712-5.256-75.996-8.685 84.681-21.17 84.138-37.998 146.02-37.998 61.883 0 52.112-23.884-29.855-24.97-81.967-1.085-231.244-51.568-231.244-65.681 0-14.114 159.996 16.937 224.73 29.312 147.649 28.227 174.246-9.228 125.936-16.285-53.175-7.767-185.104-19.541-200.303-33.655-15.199-14.113 129.736 4.886 165.019 8.686Zm-537.398-18.089c-30.398-12.16 55.007-16.466 80.339-17.371 9.771-1.447 51.894-3.474 77.081 0 31.484 4.343 19.542 11.4 54.826 22.799s-22.256 20.627-68.396 6.514c-46.141-14.114-105.852 3.257-143.85-11.942Z" fill="#69EC7E"/><path fill-rule="evenodd" clip-rule="evenodd" d="M634.726 662.015s.008.034.047.076l.807-.726c.241.268.246.631.232.856-.017.262-.08.566-.157.877-.079.315-.18.667-.286 1.033l-.001.004c-.107.371-.219.76-.323 1.159-.208.802-.373 1.615-.389 2.348-.015.737.121 1.326.446 1.746l-.859.664c-.539-.697-.69-1.574-.672-2.433.018-.861.209-1.772.423-2.598.108-.414.223-.814.329-1.182l.002-.005c.107-.372.203-.706.276-.998.075-.298.117-.523.127-.683.007-.101-.003-.138-.002-.138Z" fill="url(#v)"/><path d="M614.318 661.256c-.669 1.607 1.897 1.897 3.264 1.842-1.339.864-2.812 2.962 0 3.766 2.812.803 3.934-2.511 4.185-4.352.167 1.255 2.343 1.757 4.017.586 1.674-1.172-.167-3.181-2.427-3.097 1.59-.67 2.762-3.683.753-4.603-1.607-.737-3.124 2.036-3.682 3.515-.447-1.06-1.741-3.063-3.348-2.595-1.607.469-.335 3.097.502 4.352-.809-.474-2.594-1.021-3.264.586Zm29.539-2.061c1.793 1.566-1.972 3.256-4.011 2.688 1.903.842 2.43 2.796 1.056 4.041-1.374 1.246-4.568-.328-5.525-2.68-.383 1.751-2.944 2.942-4.65 2.68-1.564-.24-2.661-3.082.162-4.346-2.356.141-4.811-1.233-3.77-3.107 1.175-2.113 5.126-1.476 6.705 0-1.238-2.084-.143-3.295 1.553-3.322 1.695-.028 3.721 1.858 3.001 3.757.705-1.071 3.685-1.277 5.479.289Z" fill="#FC4E77"/><ellipse cx="1.976" cy="1.384" rx="1.976" ry="1.384" transform="rotate(-27.578 1655.286 -928.533)" fill="#FCEF7E"/><ellipse cx="2.702" cy="1.893" rx="2.702" ry="1.893" transform="scale(-1 1) rotate(-1.327 28156.774 27887.082)" fill="#FCEF7E"/><path d="M618.401 670.155c.807.576 3.072.24 4.104 0l-1.224-2.016c-1.296.432-3.686 1.44-2.88 2.016Z" fill="url(#w)"/><path d="M625.961 666.629c-.289.979 2.951 3.048 4.607 3.96.816 0 2.319-.36 1.8-1.8-.648-1.8-6.047-3.384-6.407-2.16Z" fill="url(#x)"/><path d="M643.816 666.697c-2.707-1.382-6.167 1.488-7.559 3.096-.192.384-.216 1.08 1.224.792 1.799-.36 5.975-2.52 6.335-3.888Z" fill="url(#y)"/><path fill-rule="evenodd" clip-rule="evenodd" d="M922.424 806.41s.008.033.047.076l.807-.726c.241.267.246.63.232.856-.017.262-.08.565-.157.877-.079.314-.18.667-.286 1.032l-.001.005c-.107.371-.219.759-.323 1.158-.208.803-.373 1.615-.389 2.349-.015.737.121 1.326.446 1.745l-.859.665c-.539-.697-.69-1.575-.672-2.433.018-.862.209-1.772.423-2.599.108-.413.223-.814.329-1.181l.002-.005c.107-.373.203-.706.276-.999.075-.297.117-.523.127-.683.007-.1-.003-.137-.002-.137Z" fill="url(#z)"/><path d="M902.016 805.651c-.669 1.607 1.897 1.897 3.264 1.841-1.339.865-2.812 2.963 0 3.766 2.812.804 3.934-2.511 4.185-4.352.167 1.255 2.343 1.758 4.017.586 1.674-1.171-.167-3.18-2.427-3.097 1.59-.669 2.762-3.682.753-4.603-1.607-.736-3.124 2.037-3.682 3.515-.447-1.06-1.741-3.063-3.348-2.594-1.607.469-.335 3.097.502 4.352-.809-.474-2.594-1.021-3.264.586Zm29.539-2.061c1.793 1.566-1.972 3.256-4.011 2.688 1.903.841 2.429 2.795 1.056 4.041-1.374 1.245-4.568-.328-5.526-2.68-.382 1.75-2.943 2.942-4.649 2.68-1.564-.241-2.661-3.082.161-4.346-2.355.14-4.81-1.233-3.769-3.107 1.174-2.114 5.126-1.476 6.705 0-1.238-2.084-.143-3.295 1.552-3.323 1.696-.027 3.722 1.859 3.002 3.757.705-1.071 3.685-1.277 5.479.29Z" fill="#FC4E77"/><ellipse cx="1.976" cy="1.384" rx="1.976" ry="1.384" transform="rotate(-27.578 2093.32 -1442.48)" fill="#FCEF7E"/><ellipse cx="2.702" cy="1.893" rx="2.702" ry="1.893" transform="scale(-1 1) rotate(-1.327 34249.41 40385.217)" fill="#FCEF7E"/><path d="M906.099 814.547c.807.576 3.072.24 4.104 0l-1.224-2.016c-1.296.432-3.686 1.44-2.88 2.016Z" fill="url(#A)"/><path d="M913.658 811.024c-.288.979 2.952 3.048 4.608 3.96.816 0 2.318-.36 1.8-1.8-.648-1.8-6.048-3.384-6.408-2.16Z" fill="url(#B)"/><path d="M931.514 811.092c-2.707-1.382-6.168 1.488-7.559 3.096-.192.384-.216 1.08 1.223.792 1.8-.36 5.976-2.52 6.336-3.888Z" fill="url(#C)"/><path fill-rule="evenodd" clip-rule="evenodd" d="M217.37 670.703s-.009.033-.047.076l-.807-.726c-.241.267-.246.63-.232.856.016.262.079.565.157.877.078.314.18.667.285 1.032l.002.005c.107.371.219.759.322 1.158.209.803.374 1.615.389 2.349.016.737-.121 1.326-.445 1.745l.858.665c.539-.697.691-1.575.673-2.433-.019-.862-.209-1.772-.424-2.599-.107-.413-.223-.814-.329-1.181l-.001-.005a28.892 28.892 0 0 1-.277-.999 4.149 4.149 0 0 1-.127-.683c-.006-.1.003-.137.003-.137Z" fill="url(#D)"/><path d="M237.777 669.942c.67 1.607-1.897 1.897-3.264 1.841 1.339.865 2.812 2.963 0 3.766-2.812.804-3.934-2.511-4.185-4.352-.167 1.255-2.343 1.758-4.017.586-1.674-1.171.167-3.18 2.427-3.097-1.59-.669-2.762-3.682-.753-4.603 1.607-.736 3.125 2.037 3.683 3.515.446-1.06 1.74-3.063 3.347-2.594 1.607.469.335 3.097-.502 4.352.809-.474 2.595-1.021 3.264.586Zm-29.539-2.059c-1.793 1.566 1.972 3.256 4.011 2.688-1.903.841-2.43 2.795-1.056 4.041 1.374 1.245 4.568-.328 5.525-2.68.383 1.75 2.944 2.942 4.65 2.68 1.564-.241 2.661-3.082-.162-4.346 2.356.14 4.811-1.233 3.77-3.107-1.175-2.114-5.126-1.476-6.705 0 1.238-2.084.143-3.295-1.553-3.323-1.695-.027-3.721 1.859-3.001 3.757-.706-1.071-3.686-1.277-5.479.29Z" fill="#FE7999"/><ellipse cx="1.976" cy="1.384" rx="1.976" ry="1.384" transform="scale(-1 1) rotate(-27.578 1246.93 811.834)" fill="#FCEF7E"/><ellipse cx="216.8" cy="669.819" rx="2.702" ry="1.893" transform="rotate(-1.326 216.8 669.819)" fill="#FCEF7E"/><path d="M233.694 678.842c-.807.576-3.072.24-4.104 0l1.224-2.016c1.296.432 3.686 1.44 2.88 2.016Z" fill="url(#E)"/><path d="M226.134 675.317c.288.979-2.952 3.048-4.608 3.96-.816 0-2.318-.36-1.8-1.8.648-1.8 6.048-3.384 6.408-2.16Z" fill="url(#F)"/><path d="M208.28 675.385c2.707-1.382 6.167 1.488 7.559 3.096.192.384.216 1.08-1.224.792-1.799-.36-5.975-2.52-6.335-3.888Z" fill="url(#G)"/><path fill-rule="evenodd" clip-rule="evenodd" d="M652.717 785.777c-.001 0-.009.033-.048.076l-.807-.726c-.241.268-.246.63-.232.856.017.262.08.566.157.877.079.315.181.667.286 1.033l.001.004c.107.371.22.759.323 1.158.209.803.373 1.616.389 2.349.015.737-.121 1.326-.446 1.745l.859.665c.539-.697.69-1.574.672-2.433-.018-.862-.209-1.772-.423-2.599-.107-.413-.223-.814-.329-1.181l-.002-.005a30.4 30.4 0 0 1-.276-.999 4.149 4.149 0 0 1-.127-.683c-.006-.1.003-.137.003-.137Z" fill="url(#H)"/><path d="M673.124 785.016c.67 1.607-1.897 1.897-3.264 1.841 1.339.865 2.813 2.963 0 3.766-2.812.804-3.933-2.51-4.184-4.352-.168 1.256-2.344 1.758-4.018.586-1.674-1.171.168-3.18 2.427-3.097-1.59-.669-2.762-3.682-.753-4.603 1.607-.736 3.125 2.037 3.683 3.516.446-1.061 1.741-3.064 3.347-2.595 1.607.469.335 3.097-.502 4.352.809-.474 2.595-1.021 3.264.586Zm-29.539-2.059c-1.793 1.566 1.972 3.256 4.011 2.688-1.903.841-2.429 2.795-1.055 4.041 1.373 1.245 4.568-.328 5.525-2.68.383 1.75 2.943 2.942 4.649 2.68 1.564-.241 2.661-3.082-.161-4.346 2.356.14 4.811-1.233 3.769-3.107-1.174-2.113-5.125-1.476-6.704 0 1.237-2.084.143-3.295-1.553-3.322-1.696-.028-3.722 1.858-3.002 3.757-.705-1.072-3.685-1.277-5.479.289Z" fill="#FE7999"/><ellipse cx="1.976" cy="1.384" rx="1.976" ry="1.384" transform="scale(-1 1) rotate(-27.578 1263.703 1756.326)" fill="#FCEF7E"/><ellipse cx="652.147" cy="784.895" rx="2.702" ry="1.893" transform="rotate(-1.326 652.147 784.895)" fill="#FCEF7E"/><path d="M669.041 793.916c-.806.576-3.072.24-4.104 0l1.224-2.016c1.296.432 3.686 1.44 2.88 2.016Z" fill="url(#I)"/><path d="M661.481 790.391c.288.979-2.951 3.048-4.607 3.96-.816 0-2.319-.36-1.8-1.8.648-1.8 6.047-3.384 6.407-2.16Z" fill="url(#J)"/><path d="M643.627 790.459c2.707-1.382 6.167 1.488 7.559 3.096.192.384.216 1.08-1.224.792-1.799-.36-5.975-2.52-6.335-3.888Z" fill="url(#K)"/><path fill-rule="evenodd" clip-rule="evenodd" d="M99.033 790.127s-.009.033-.047.076l-.807-.726c-.241.267-.246.63-.232.856.016.262.08.565.157.877.078.314.18.667.285 1.032l.002.005c.107.37.219.759.322 1.158.209.803.374 1.615.39 2.349.015.736-.122 1.326-.446 1.745l.858.664c.539-.696.691-1.574.673-2.432-.019-.862-.21-1.773-.424-2.599a45.53 45.53 0 0 0-.329-1.181l-.001-.005a28.892 28.892 0 0 1-.277-.999 4.133 4.133 0 0 1-.127-.683c-.006-.101.003-.137.003-.137Z" fill="url(#L)"/><path d="M119.44 789.368c.67 1.607-1.897 1.897-3.264 1.841 1.339.865 2.812 2.962 0 3.766-2.812.803-3.933-2.511-4.185-4.352-.167 1.255-2.343 1.757-4.017.586-1.674-1.172.168-3.181 2.427-3.097-1.59-.67-2.762-3.682-.753-4.603 1.607-.737 3.125 2.036 3.683 3.515.446-1.06 1.74-3.063 3.347-2.594 1.607.468.335 3.096-.502 4.352.809-.475 2.595-1.021 3.264.586Zm-29.539-2.062c-1.793 1.567 1.972 3.257 4.01 2.689-1.902.841-2.429 2.795-1.055 4.04 1.374 1.246 4.568-.327 5.526-2.679.382 1.75 2.943 2.942 4.649 2.679 1.564-.24 2.661-3.081-.162-4.346 2.356.141 4.811-1.232 3.77-3.106-1.174-2.114-5.126-1.477-6.705 0 1.238-2.085.143-3.295-1.552-3.323-1.696-.027-3.722 1.858-3.002 3.757-.705-1.071-3.685-1.277-5.479.289Z" fill="#FE7999"/><ellipse cx="1.976" cy="1.384" rx="1.976" ry="1.384" transform="scale(-1 1) rotate(-27.578 1549.408 630.452)" fill="#FCEF7E"/><ellipse cx="98.463" cy="789.244" rx="2.702" ry="1.893" transform="rotate(-1.326 98.463 789.244)" fill="#FCEF7E"/><path d="M115.357 798.264c-.807.576-3.072.24-4.104 0l1.224-2.016c1.296.432 3.686 1.44 2.88 2.016Z" fill="url(#M)"/><path d="M107.797 794.741c.288.979-2.952 3.047-4.607 3.959-.816 0-2.319-.36-1.8-1.799.648-1.8 6.047-3.384 6.407-2.16Z" fill="url(#N)"/><path d="M89.943 794.809c2.707-1.382 6.168 1.488 7.56 3.096.192.384.216 1.08-1.224.792-1.8-.36-5.976-2.52-6.336-3.888Z" fill="url(#O)"/><path fill-rule="evenodd" clip-rule="evenodd" d="M51.367 971.472s-.009.034-.047.077l-.807-.727c-.24.268-.246.631-.232.856.017.262.08.566.157.877.079.315.18.667.286 1.033l.001.004c.107.371.22.76.323 1.159.208.802.373 1.615.389 2.348.015.737-.121 1.326-.446 1.746l.858.664c.54-.697.691-1.574.673-2.433-.018-.861-.209-1.772-.423-2.598a43.98 43.98 0 0 0-.33-1.182v-.005a30.268 30.268 0 0 1-.278-.998 4.16 4.16 0 0 1-.126-.683c-.007-.101.002-.137.002-.138Z" fill="url(#P)"/><path d="M71.775 970.713c.67 1.607-1.898 1.897-3.264 1.842 1.339.864 2.812 2.962 0 3.766-2.813.803-3.934-2.511-4.185-4.352-.168 1.255-2.344 1.757-4.018.586-1.673-1.172.168-3.181 2.428-3.097-1.59-.67-2.762-3.683-.754-4.603 1.607-.737 3.125 2.036 3.683 3.515.446-1.06 1.74-3.063 3.348-2.595 1.607.469.334 3.097-.502 4.352.809-.474 2.594-1.021 3.264.586Zm-29.54-2.061c-1.793 1.566 1.972 3.256 4.011 2.688-1.903.842-2.43 2.796-1.056 4.041 1.374 1.246 4.569-.328 5.526-2.68.383 1.751 2.943 2.942 4.65 2.68 1.563-.24 2.66-3.081-.162-4.346 2.356.141 4.81-1.233 3.77-3.107-1.175-2.113-5.127-1.476-6.705 0 1.237-2.084.143-3.295-1.553-3.322-1.696-.027-3.722 1.858-3.002 3.757-.705-1.071-3.685-1.277-5.479.289Z" fill="#FE7999"/><ellipse cx="1.976" cy="1.384" rx="1.976" ry="1.384" transform="scale(-1 1) rotate(-27.578 1942.704 624.014)" fill="#FCEF7E"/><ellipse cx="50.797" cy="970.59" rx="2.702" ry="1.893" transform="rotate(-1.326 50.797 970.59)" fill="#FCEF7E"/><path d="M67.691 979.61c-.806.576-3.072.24-4.104 0l1.224-2.016c1.296.432 3.686 1.44 2.88 2.016Z" fill="url(#Q)"/><path d="M60.132 976.086c.288.979-2.952 3.048-4.608 3.96-.816 0-2.318-.36-1.8-1.8.648-1.8 6.048-3.384 6.408-2.16Z" fill="url(#R)"/><path d="M42.277 976.155c2.707-1.383 6.168 1.487 7.56 3.095.192.384.216 1.08-1.224.792-1.8-.36-5.976-2.52-6.336-3.887Z" fill="url(#S)"/><path fill-rule="evenodd" clip-rule="evenodd" d="M382.121 766.819s-.011.042-.06.096l-1.019-.917c-.304.338-.311.796-.293 1.081.021.331.101.715.199 1.108.099.397.227.842.36 1.304l.002.005c.135.469.277.959.408 1.463.263 1.014.471 2.04.491 2.966.019.931-.153 1.675-.563 2.204l1.084.84c.681-.88.872-1.988.849-3.073-.023-1.088-.263-2.238-.534-3.281-.136-.523-.282-1.028-.416-1.492l-.002-.007c-.135-.47-.257-.891-.349-1.261a5.214 5.214 0 0 1-.16-.863c-.008-.126.003-.173.003-.173Z" fill="url(#T)"/><path d="M370.588 763.262c-2.265 1.977 2.49 4.112 5.065 3.395-2.403 1.062-3.068 3.53-1.333 5.103s5.769-.414 6.978-3.385c.484 2.211 3.717 3.716 5.872 3.385 1.975-.304 3.361-3.892-.204-5.489 2.975.177 6.076-1.557 4.76-3.924-1.483-2.669-6.473-1.864-8.467.001 1.563-2.633.181-4.162-1.961-4.196-2.142-.035-4.7 2.346-3.79 4.744-.891-1.353-4.655-1.612-6.92.366Z" fill="#FC4E77"/><ellipse cx="381.401" cy="765.706" rx="3.413" ry="2.391" transform="rotate(-1.326 381.401 765.706)" fill="#FCEF7E"/><path d="M393.19 772.641c.364 1.237-3.728 3.849-5.819 5.001-1.031 0-2.928-.455-2.274-2.273.819-2.273 7.638-4.273 8.093-2.728Z" fill="url(#U)"/><path d="M370.64 772.739c3.419-1.746 7.79 1.879 9.547 3.91.243.485.273 1.363-1.545 1-2.273-.455-7.547-3.183-8.002-4.91Z" fill="url(#V)"/><path fill-rule="evenodd" clip-rule="evenodd" d="M947.356 960.222s-.011.042-.06.096l-1.019-.918c-.304.338-.311.796-.293 1.081.021.331.101.715.199 1.108.099.397.227.843.36 1.304l.002.006c.135.468.277.959.408 1.463.263 1.013.471 2.04.491 2.966.019.93-.153 1.674-.563 2.204l1.084.839c.681-.88.872-1.988.849-3.072-.023-1.089-.263-2.239-.534-3.282a58.542 58.542 0 0 0-.416-1.492l-.002-.006c-.135-.471-.257-.892-.349-1.262a5.206 5.206 0 0 1-.16-.862c-.008-.127.003-.173.003-.173Z" fill="url(#W)"/><path d="M935.823 956.664c-2.265 1.978 2.49 4.112 5.065 3.395-2.403 1.062-3.068 3.53-1.333 5.103s5.769-.414 6.978-3.384c.484 2.21 3.717 3.715 5.872 3.384 1.975-.304 3.361-3.892-.204-5.489 2.975.178 6.076-1.557 4.76-3.923-1.483-2.669-6.473-1.865-8.467 0 1.563-2.632.181-4.162-1.961-4.196-2.142-.035-4.7 2.347-3.791 4.745-.891-1.353-4.654-1.613-6.919.365Z" fill="#FC4E77"/><ellipse cx="946.636" cy="959.108" rx="3.413" ry="2.391" transform="rotate(-1.326 946.636 959.108)" fill="#FCEF7E"/><path d="M958.425 966.044c.364 1.236-3.728 3.849-5.819 5-1.031 0-2.928-.454-2.274-2.273.819-2.273 7.638-4.273 8.093-2.727Z" fill="url(#X)"/><path d="M935.875 966.141c3.419-1.745 7.79 1.879 9.547 3.91.243.485.273 1.364-1.545 1-2.273-.455-7.547-3.182-8.002-4.91Z" fill="url(#Y)"/><path fill-rule="evenodd" clip-rule="evenodd" d="M777.3 648.483c-.001 0-.012.042-.06.096l-1.019-.917c-.305.338-.311.796-.293 1.081.021.331.1.715.198 1.108.099.397.228.842.361 1.304l.002.006c.135.468.276.958.407 1.462.263 1.014.471 2.04.491 2.967.02.93-.153 1.674-.563 2.204l1.084.839c.682-.88.873-1.988.85-3.072-.023-1.089-.264-2.239-.535-3.282-.135-.523-.281-1.028-.415-1.492l-.002-.007c-.136-.47-.257-.891-.35-1.261a5.315 5.315 0 0 1-.16-.862c-.008-.127.004-.174.004-.174Z" fill="url(#Z)"/><path d="M765.767 644.926c-2.265 1.978 2.489 4.112 5.065 3.395-2.403 1.062-3.068 3.53-1.333 5.103s5.769-.414 6.978-3.385c.483 2.211 3.717 3.716 5.871 3.385 1.976-.304 3.361-3.892-.204-5.489 2.976.178 6.076-1.557 4.761-3.924-1.483-2.669-6.473-1.864-8.467.001 1.562-2.633.18-4.162-1.961-4.196-2.142-.035-4.701 2.346-3.791 4.744-.891-1.353-4.654-1.612-6.919.366Z" fill="#FC4E77"/><ellipse cx="776.579" cy="647.37" rx="3.413" ry="2.391" transform="rotate(-1.326 776.579 647.37)" fill="#FCEF7E"/><path d="M788.368 654.305c.364 1.237-3.728 3.849-5.819 5.001-1.03 0-2.928-.454-2.273-2.273.818-2.273 7.638-4.273 8.092-2.728Z" fill="url(#aa)"/><path d="M765.819 654.403c3.419-1.746 7.789 1.879 9.547 3.91.243.485.273 1.364-1.546 1-2.273-.455-7.546-3.183-8.001-4.91Z" fill="url(#ab)"/><path d="M252.792 770.08c-14.467 2.861-17.81-8.05-9.245-9.89-18.244-6.548-2.758-25.202 13.545-14.836-3.221-5.497 5.284-9.31 7.956-1.505-.853-12.439 20.793-20.71 22.576-2.365.307-3.435 5.387-1.313 4.869 1.707 1.212-3.296 3.946-.452 3.946.658 5.005-15.314 29.467-9.8 30.405 6.39.587-2.639 5.69 0 4.212 3.344 3.87-1.505 6.478 3.541 4.059 6.277 4.283 1.056 4.757 4.85-4.059 7.86-8.815 3.01-24.919 2.36-31.176 2.36-6.257 0-34.003-2.587-47.088 0Z" fill="url(#ac)"/><path d="M782.51 756.847c12.734 1.953 12.899-7.631 2.227-8.317 3.997-1.534 1.549-5.39-1.446-4.648 9.149-3.571-1.269-13.987-5.224-7.4 3.288-12.535-11.063-17.407-20.269-5.816 1.137-3.65-2.643-6.262-6.042-2.532-2.719-6.831-7.599-2.858-8.425-.542-1.083-14.735-25.433-7.954-18.158 6.953-2.689-3.783-5.044 1.255-2.235 4.933-3.419-4.477-8.947-2.945-5.942 4.693-8.019.161-12.788 6.99-5.3 10.489 7.488 3.498 15.453 1.783 27.186 1.749 11.734-.035 32.049-1.338 43.628.438Z" fill="url(#ad)"/><path d="M789.74 818.311c-10.122 1.553-10.253-6.064-1.77-6.61-3.178-1.22-1.231-4.284 1.149-3.695-7.272-2.838 1.009-11.117 4.153-5.881-2.614-9.964 8.793-13.836 16.11-4.623-.904-2.901 2.101-4.977 4.802-2.013 2.162-5.429 6.041-2.272 6.697-.431.861-11.711 20.216-6.322 14.433 5.527 2.138-3.007 4.009.997 1.776 3.921 2.718-3.558 7.113-2.341 4.724 3.731 6.374.127 10.164 5.556 4.212 8.336-5.952 2.781-12.282 1.418-21.609 1.39-9.326-.027-25.473-1.063-34.677.348Z" fill="url(#ae)"/><path d="M364.254 686.278c-6.52-2.09-12.138 5.51.75 6.805 3.168.318 9.69-.902 20.284.163 9.985 1.003 6.22-8.091-.652-5.582 3.496-1.855-.391-5.997-4.772-3.017 1.15-7.056-8.375-6.689-10.704-1.076-1.725-2.6-5.691-.461-4.906 2.707Z" fill="url(#af)"/><path d="M285.001 643.934c-6.519-2.09-12.138 5.51.751 6.805 3.167.319 9.689-.901 20.284.163 9.984 1.004 6.219-8.091-.653-5.582 3.496-1.855-.39-5.997-4.772-3.017 1.15-7.055-8.375-6.689-10.704-1.076-1.724-2.6-5.69-.461-4.906 2.707Z" fill="url(#ag)"/><path d="M30.383 727.845c-10.828-3.47-20.159 9.151 1.246 11.302 5.26.529 16.09-1.498 33.685.271 16.581 1.666 10.329-13.437-1.084-9.27 5.806-3.081-.648-9.959-7.924-5.011 1.91-11.717-13.908-11.108-17.776-1.786-2.864-4.319-9.45-.767-8.147 4.494Z" fill="url(#ah)"/><path d="M843.66 705.017c5.855-2.653 11.489 8.117-.262 9.424-2.888.321-8.951-1.622-18.61-.548-9.104 1.013-6.217-11.475.249-7.728-3.326-2.71-.018-8.314 4.191-4.008-1.498-9.844 7.269-8.971 9.759-1.086 1.42-3.546 5.195-.424 4.673 3.946Z" fill="url(#ai)"/><path d="M578.461 798c5.854-2.654 11.488 8.116-.262 9.424-2.888.321-8.952-1.623-18.611-.548-9.103 1.013-6.217-11.475.249-7.728-3.326-2.71-.018-8.315 4.192-4.009-1.499-9.844 7.268-8.971 9.759-1.086 1.42-3.546 5.195-.423 4.673 3.947Z" fill="url(#aj)"/><path d="M621.887 642.75c5.855-2.654 11.489 8.116-.262 9.424-2.888.321-8.951-1.623-18.611-.548-9.103 1.013-6.216-11.475.25-7.728-3.326-2.71-.018-8.315 4.191-4.009-1.498-9.844 7.269-8.971 9.759-1.086 1.42-3.546 5.195-.423 4.673 3.947Z" fill="url(#ak)"/><path d="M137.126 817.539c-5.855-2.654-11.489 8.116.262 9.424 2.888.321 8.951-1.623 18.611-.548 9.103 1.013 6.216-11.475-.25-7.728 3.326-2.71.018-8.315-4.191-4.009 1.498-9.844-7.269-8.971-9.759-1.086-1.42-3.546-5.195-.423-4.673 3.947Z" fill="url(#al)"/><path d="M982.85 748.053c-5.854-2.654-11.489 8.116.262 9.423 2.888.322 8.952-1.622 18.608-.547 9.11 1.012 6.22-11.476-.25-7.729 3.33-2.71.02-8.314-4.188-4.008 1.499-9.844-7.268-8.971-9.759-1.086-1.42-3.546-5.195-.424-4.673 3.947Z" fill="url(#am)"/><path d="M574.299 915.289c14.467 2.861 17.811-8.05 9.246-9.89 18.244-6.548 2.757-25.202-13.546-14.836 3.222-5.497-5.284-9.31-7.955-1.505.852-12.439-20.793-20.71-22.577-2.365-.306-3.436-5.387-1.313-4.869 1.707-1.212-3.296-3.946-.452-3.946.658-5.005-15.314-29.466-9.8-30.405 6.39-.587-2.639-5.69 0-4.212 3.344-3.87-1.505-6.477 3.541-4.059 6.277-4.282 1.056-4.756 4.85 4.059 7.86 8.816 3.01 24.919 2.36 31.176 2.36 6.258 0 34.003-2.587 47.088 0Z" fill="url(#an)"/><path d="M240.935 966.081c12.734 1.953 12.899-7.63 2.227-8.316 3.997-1.535 1.549-5.39-1.446-4.649 9.149-3.57-1.269-13.987-5.224-7.399 3.288-12.536-11.063-17.407-20.269-5.816 1.137-3.65-2.643-6.262-6.042-2.532-2.719-6.831-7.599-2.858-8.425-.542-1.083-14.735-25.433-7.954-18.158 6.953-2.689-3.783-5.044 1.255-2.235 4.932-3.419-4.476-8.947-2.944-5.942 4.694-8.019.161-12.788 6.99-5.3 10.488 7.488 3.499 15.453 1.784 27.186 1.749 11.734-.034 32.049-1.337 43.628.438Z" fill="url(#ao)"/><path d="M845.426 974.064c-10.122 1.552-10.253-6.065-1.77-6.611-3.178-1.219-1.232-4.284 1.148-3.694-7.271-2.838 1.009-11.118 4.153-5.882-2.613-9.964 8.794-13.836 16.111-4.623-.904-2.901 2.101-4.977 4.802-2.013 2.161-5.429 6.041-2.271 6.697-.43.86-11.712 20.216-6.322 14.433 5.527 2.137-3.007 4.009.997 1.776 3.92 2.718-3.558 7.112-2.34 4.723 3.731 6.375.128 10.165 5.556 4.213 8.337-5.952 2.78-12.282 1.417-21.609 1.39-9.327-.028-25.474-1.064-34.677.348Z" fill="url(#ap)"/><path d="M364.254 865.366c-6.52-2.09-12.138 5.51.75 6.805 3.168.318 9.69-.902 20.284.163 9.985 1.003 6.22-8.091-.652-5.582 3.496-1.855-.391-5.997-4.772-3.017 1.15-7.056-8.375-6.689-10.704-1.076-1.725-2.6-5.691-.461-4.906 2.707Z" fill="url(#aq)"/><path d="M285.001 823.022c-6.519-2.09-12.138 5.51.751 6.805 3.167.319 9.689-.902 20.284.163 9.984 1.004 6.219-8.091-.653-5.582 3.496-1.855-.39-5.997-4.772-3.017 1.15-7.056-8.375-6.689-10.704-1.076-1.724-2.6-5.69-.461-4.906 2.707Z" fill="url(#ar)"/><path d="M30.383 906.933c-10.828-3.47-20.159 9.151 1.246 11.302 5.26.529 16.09-1.498 33.685.27 16.581 1.667 10.329-13.436-1.084-9.269 5.806-3.081-.648-9.96-7.924-5.011 1.91-11.717-13.908-11.108-17.776-1.786-2.864-4.319-9.45-.767-8.147 4.494Z" fill="url(#as)"/><path d="M714.134 876.838c5.855-2.654 11.489 8.116-.262 9.423-2.888.322-8.951-1.622-18.61-.547-9.104 1.013-6.217-11.475.249-7.728-3.326-2.711-.018-8.315 4.191-4.009-1.498-9.844 7.269-8.971 9.759-1.086 1.42-3.546 5.195-.424 4.673 3.947Z" fill="url(#at)"/><path d="M469.134 969.838c5.855-2.654 11.489 8.116-.262 9.423-2.888.322-8.951-1.622-18.61-.547-9.104 1.013-6.217-11.475.249-7.728-3.326-2.711-.018-8.315 4.191-4.009-1.498-9.844 7.269-8.971 9.759-1.086 1.42-3.546 5.195-.424 4.673 3.947Z" fill="url(#au)"/><path d="M621.887 821.838c5.855-2.654 11.489 8.116-.262 9.423-2.888.322-8.951-1.622-18.611-.547-9.103 1.013-6.216-11.475.25-7.728-3.326-2.711-.018-8.315 4.191-4.009-1.498-9.844 7.269-8.971 9.759-1.086 1.42-3.546 5.195-.424 4.673 3.947Z" fill="url(#av)"/><path d="M323.119 955.838c-5.855-2.654-11.489 8.116.262 9.423 2.888.322 8.951-1.622 18.61-.547 9.104 1.013 6.217-11.475-.249-7.728 3.326-2.711.018-8.315-4.191-4.009 1.498-9.844-7.269-8.971-9.759-1.086-1.42-3.546-5.195-.424-4.673 3.947Z" fill="url(#aw)"/><path d="M982.85 927.14c-5.854-2.653-11.489 8.117.262 9.424 2.888.322 8.952-1.622 18.608-.547 9.11 1.012 6.22-11.476-.25-7.729 3.33-2.71.02-8.314-4.188-4.008 1.499-9.844-7.268-8.971-9.759-1.086-1.42-3.546-5.195-.424-4.673 3.946Z" fill="url(#ax)"/><ellipse cx="4.001" cy="2.361" rx="4.001" ry="2.361" transform="rotate(11.513 -2888.939 4089.268)" fill="url(#ay)"/><ellipse cx="3.304" cy="1.857" rx="3.304" ry="1.857" transform="rotate(11.513 -2881.926 4265.49)" fill="url(#az)"/><ellipse cx="4.246" cy="1.857" rx="4.246" ry="1.857" transform="rotate(6.203 -5779.556 7486.556)" fill="url(#aA)"/><ellipse cx="271.578" cy="666" rx="4.001" ry="2.361" transform="rotate(-2.237 271.578 666)" fill="url(#aB)"/><ellipse cx="51.191" cy="807.138" rx="4.001" ry="2.361" transform="rotate(-2.237 51.19 807.138)" fill="url(#aC)"/><ellipse cx="973.997" cy="774.568" rx="4.001" ry="2.361" transform="rotate(-2.237 973.997 774.568)" fill="url(#aD)"/><ellipse cx="540.466" cy="731.259" rx="4.001" ry="2.361" transform="rotate(-2.237 540.466 731.259)" fill="url(#aE)"/><ellipse cx="501.048" cy="664.918" rx="4.001" ry="2.361" transform="rotate(-2.237 501.048 664.918)" fill="url(#aF)"/><ellipse cx="200.066" cy="716.224" rx="4.001" ry="1.678" transform="rotate(-2.237 200.066 716.224)" fill="url(#aG)"/><ellipse cx="942.298" cy="820.568" rx="4.001" ry="1.678" transform="rotate(-2.237 942.298 820.568)" fill="url(#aH)"/><ellipse cx="649.172" cy="670.745" rx="4.001" ry="1.678" transform="rotate(-2.237 649.172 670.745)" fill="url(#aI)"/><ellipse cx="399.471" cy="780.396" rx="4.001" ry="1.678" transform="rotate(-2.237 399.471 780.396)" fill="url(#aJ)"/><ellipse cx="91.145" cy="804.284" rx="4.001" ry="1.678" transform="rotate(-2.237 91.145 804.284)" fill="url(#aK)"/><ellipse cx="283.044" cy="680.279" rx="4.662" ry="1.857" transform="rotate(.31 283.044 680.279)" fill="url(#aL)"/><ellipse cx="62.656" cy="821.416" rx="4.662" ry="1.857" transform="rotate(.31 62.656 821.416)" fill="url(#aM)"/><ellipse cx="550.707" cy="747.81" rx="4.662" ry="2.175" transform="rotate(.31 550.707 747.81)" fill="url(#aN)"/><ellipse cx="985.462" cy="788.841" rx="4.662" ry="1.857" transform="rotate(.31 985.462 788.841)" fill="url(#aO)"/><ellipse cx="509.229" cy="687.978" rx="4.662" ry="2.175" transform="rotate(.31 509.229 687.978)" fill="url(#aP)"/><ellipse cx="254.769" cy="671.487" rx="4.246" ry="1.857" transform="rotate(.274 254.769 671.487)" fill="url(#aQ)"/><ellipse cx="525.32" cy="736.794" rx="4.246" ry="1.857" transform="rotate(.274 525.32 736.794)" fill="url(#aR)"/><ellipse cx="528.298" cy="720.856" rx="4.246" ry="1.857" transform="rotate(.274 528.298 720.856)" fill="url(#aS)"/><ellipse cx="34.381" cy="812.622" rx="4.246" ry="1.857" transform="rotate(.274 34.381 812.622)" fill="url(#aT)"/><ellipse cx="957.187" cy="780.049" rx="4.246" ry="1.857" transform="rotate(.274 957.187 780.049)" fill="url(#aU)"/><ellipse cx="483.842" cy="676.956" rx="4.246" ry="1.857" transform="rotate(.274 483.842 676.956)" fill="url(#aV)"/><ellipse cx="486.819" cy="661.02" rx="4.246" ry="1.857" transform="rotate(.274 486.819 661.02)" fill="url(#aW)"/><ellipse cx="181.703" cy="722.917" rx="3.563" ry="1.857" transform="rotate(.274 181.703 722.917)" fill="url(#aX)"/><ellipse cx="923.934" cy="827.259" rx="3.563" ry="1.857" transform="rotate(.274 923.934 827.259)" fill="url(#aY)"/><ellipse cx="630.808" cy="677.447" rx="3.563" ry="1.857" transform="rotate(.274 630.808 677.447)" fill="url(#aZ)"/><ellipse cx="381.107" cy="787.093" rx="3.563" ry="1.857" transform="rotate(.274 381.107 787.093)" fill="url(#ba)"/><ellipse cx="72.781" cy="810.976" rx="3.563" ry="1.857" transform="rotate(.274 72.781 810.976)" fill="url(#bb)"/><path d="M321.081 626.571a4.343 4.343 0 0 1 4.343-4.342h365.865a4.342 4.342 0 0 1 4.343 4.342v2.171c0 .6-.486 1.086-1.086 1.086H322.167c-.6 0-1.086-.486-1.086-1.086v-2.171Z" fill="#7A9597"/><path fill="#ECDEAB" d="M325.424 516.924h365.865v105.308H325.424z"/><rect x="328.682" y="521.266" width="359.352" height="96.623" rx="2.171" fill="#F5E7B2"/><path d="M389.478 537.538c0-1.199.972-2.171 2.171-2.171h31.484c1.199 0 2.171.972 2.171 2.171v48.855h-35.826v-48.855Z" fill="#C9736D"/><rect x="386.221" y="586.396" width="42.34" height="8.685" rx="2.171" fill="#B14C55"/><path d="M392.734 539.709c0-.6.487-1.086 1.086-1.086h27.142c.599 0 1.085.486 1.085 1.086v46.683h-29.313v-46.683Z" fill="#38C0DE"/><path fill="#FEFFFF" d="M392.734 561.422h29.313v2.171h-29.313z"/><path fill="#FEFFFF" d="M405.762 538.623h3.257v47.769h-3.257z"/><path opacity=".4" d="M397.076 553.82c0-.6.486-1.086 1.086-1.086h19.542c.599 0 1.085.486 1.085 1.086v32.569h-21.713V553.82Z" fill="#fff"/><path d="M336.28 537.538c0-1.199.973-2.171 2.172-2.171h31.484c1.199 0 2.171.972 2.171 2.171v48.855H336.28v-48.855Z" fill="#C9736D"/><rect x="333.024" y="586.396" width="42.34" height="8.685" rx="2.171" fill="#B14C55"/><path d="M339.537 539.709c0-.6.487-1.086 1.086-1.086h27.141c.6 0 1.086.486 1.086 1.086v46.683h-29.313v-46.683Z" fill="#38C0DE"/><path opacity=".4" d="M342.794 558.168c0-.6.486-1.086 1.086-1.086h19.542c.599 0 1.085.486 1.085 1.086v28.227h-21.713v-28.227Zm54.283-4.348c0-.6.486-1.086 1.086-1.086h19.542c.599 0 1.085.486 1.085 1.086v32.569h-21.713V553.82Z" fill="#fff"/><path fill="#FEFFFF" d="M339.537 561.422h29.313v2.171h-29.313z"/><path fill="#FEFFFF" d="M352.565 538.623h3.257v47.769h-3.257z"/><path d="M645.692 537.538c0-1.199.972-2.171 2.171-2.171h31.484c1.199 0 2.171.972 2.171 2.171v48.855h-35.826v-48.855Z" fill="#C9736D"/><rect x="642.435" y="586.396" width="42.34" height="8.685" rx="2.171" fill="#B14C55"/><path d="M648.949 539.709c0-.6.486-1.086 1.085-1.086h27.142c.599 0 1.085.486 1.085 1.086v46.683h-29.312v-46.683Z" fill="#38C0DE"/><path fill="#FEFFFF" d="M648.948 561.422h29.313v2.171h-29.313z"/><path fill="#FEFFFF" d="M661.976 538.623h3.257v47.769h-3.257z"/><path opacity=".4" d="M653.291 558.168c0-.6.486-1.086 1.085-1.086h19.542c.6 0 1.086.486 1.086 1.086v28.227h-21.713v-28.227Z" fill="#fff"/><path d="M592.494 537.538c0-1.199.972-2.171 2.171-2.171h31.484c1.199 0 2.171.972 2.171 2.171v48.855h-35.826v-48.855Z" fill="#C9736D"/><rect x="589.237" y="586.396" width="42.34" height="8.685" rx="2.171" fill="#B14C55"/><path d="M595.751 539.709c0-.6.486-1.086 1.085-1.086h27.142c.599 0 1.085.486 1.085 1.086v46.683h-29.312v-46.683Z" fill="#38C0DE"/><path fill="#FEFFFF" d="M595.751 561.422h29.313v2.171h-29.313z"/><path fill="#FEFFFF" d="M608.778 538.623h3.257v47.769h-3.257z"/><path opacity=".4" d="M600.093 553.82c0-.6.486-1.086 1.086-1.086h19.541c.6 0 1.086.486 1.086 1.086v32.569h-21.713V553.82Z" fill="#fff"/><rect x="296.111" y="503.898" width="424.491" height="13.028" rx="2.171" fill="#611F1B"/><path fill-rule="evenodd" clip-rule="evenodd" d="M357.713 396.418a3.257 3.257 0 0 0-2.828 1.641l-61.417 107.479a3.234 3.234 0 0 0 .123 3.432l5.021-2.363a2.175 2.175 0 0 1 1.849 0l7.206 3.391a2.168 2.168 0 0 0 1.849 0l7.207-3.391a2.175 2.175 0 0 1 1.849 0l8.083 3.804h.096l8.083-3.804a2.175 2.175 0 0 1 1.849 0l7.207 3.391a2.168 2.168 0 0 0 1.849 0l7.206-3.391a2.175 2.175 0 0 1 1.849 0l8.083 3.804h.096l8.083-3.804a2.175 2.175 0 0 1 1.849 0l7.207 3.391a2.168 2.168 0 0 0 1.849 0l7.206-3.391a2.177 2.177 0 0 1 1.85 0l8.083 3.804h.095l8.084-3.804a2.175 2.175 0 0 1 1.849 0l7.206 3.391a2.168 2.168 0 0 0 1.849 0l7.207-3.391a2.175 2.175 0 0 1 1.849 0l8.083 3.804h.096l8.083-3.804a2.175 2.175 0 0 1 1.849 0l7.206 3.391a2.17 2.17 0 0 0 1.85 0l7.206-3.391a2.175 2.175 0 0 1 1.849 0l8.083 3.804h.096l8.083-3.804a2.175 2.175 0 0 1 1.849 0l7.207 3.391a2.168 2.168 0 0 0 1.849 0l7.206-3.391a2.175 2.175 0 0 1 1.849 0l8.084 3.804h.095l8.083-3.804a2.177 2.177 0 0 1 1.85 0l7.206 3.391a2.168 2.168 0 0 0 1.849 0l7.207-3.391a2.175 2.175 0 0 1 1.849 0l8.083 3.804h.096l8.083-3.804a2.175 2.175 0 0 1 1.849 0l7.206 3.391a2.168 2.168 0 0 0 1.849 0l7.207-3.391a2.175 2.175 0 0 1 1.849 0l8.083 3.804h.096l8.083-3.804a2.175 2.175 0 0 1 1.849 0l7.207 3.391a2.168 2.168 0 0 0 1.849 0l7.206-3.391a2.175 2.175 0 0 1 1.849 0l8.083 3.804h.096l8.083-3.804a2.175 2.175 0 0 1 1.849 0l7.207 3.391a2.168 2.168 0 0 0 1.849 0l7.206-3.391a2.177 2.177 0 0 1 1.85 0l8.083 3.804h.095l8.084-3.804a2.175 2.175 0 0 1 1.849 0l7.206 3.391a2.168 2.168 0 0 0 1.849 0l7.207-3.391a2.175 2.175 0 0 1 1.849 0l8.083 3.804h.096l8.083-3.804a2.175 2.175 0 0 1 1.849 0l7.206 3.391a2.168 2.168 0 0 0 1.849 0l7.207-3.391a2.175 2.175 0 0 1 1.849 0l5.814 2.736c.889-.986 1.165-2.492.415-3.805l-61.417-107.479a3.257 3.257 0 0 0-2.828-1.641H357.713Z" fill="#7C312C"/><path d="m658.72 403.479 56.454 98.251-5.429 2.171-56.454-100.422h5.429Z" fill="#8F413C"/><path d="M357.994 403.479 301.54 501.73l5.428 2.171 56.454-100.422h-5.428Z" fill="#762B26"/><path d="m636.464 424.104 40.712 77.623-5.428 2.172-40.712-79.795h5.428Z" fill="#8F413C"/><path d="m380.25 424.104-40.712 77.623 5.428 2.172 40.712-79.795h-5.428Z" fill="#762B26"/><path d="m668.491 453.961 27.141 48.854-5.428 2.171-27.141-51.025h5.428Z" fill="#8F413C"/><path d="m348.223 453.961-27.141 48.854 5.428 2.171 27.141-51.025h-5.428Z" fill="#762B26"/><path d="m641.35 468.074 16.284 34.741-5.428 2.171-16.285-36.912h5.429Z" fill="#8F413C"/><path d="m375.365 468.074-16.285 34.741 5.428 2.171 16.285-36.912h-5.428Z" fill="#762B26"/><rect x="355.823" y="385.562" width="305.069" height="10.857" rx="2.171" fill="#C66C6C"/><path d="m435.075 478.927 73.282-55.368 73.281 55.368v169.361H435.075V478.927Z" fill="#F1E2BE"/><path d="M447.018 481.795c0-.681.32-1.322.863-1.733l59.168-44.657a2.172 2.172 0 0 1 2.616 0l59.169 44.657c.543.411.863 1.052.863 1.733v159.982a2.171 2.171 0 0 1-2.171 2.171H449.189a2.171 2.171 0 0 1-2.171-2.171V481.795Z" fill="#FFF1D1"/><path d="M574.039 473.501c0-1.199.972-2.171 2.172-2.171h3.257c1.199 0 2.171.972 2.171 2.171v175.875c0 .6-.486 1.086-1.086 1.086h-5.428c-.6 0-1.086-.486-1.086-1.086V473.501Zm-138.964 0c0-1.199.972-2.171 2.171-2.171h3.257c1.2 0 2.172.972 2.172 2.171v175.875c0 .6-.486 1.086-1.086 1.086h-5.428c-.6 0-1.086-.486-1.086-1.086V473.501Z" fill="#AD4854"/><rect x="432.904" y="542.982" width="150.906" height="11.942" rx="2.171" fill="#C66C6C"/><rect x="490.443" y="446.359" width="35.827" height="35.826" rx="17.913" fill="#CB756D"/><rect x="494.786" y="450.701" width="27.141" height="27.141" rx="13.571" fill="#37C0DE"/><path opacity=".4" fill-rule="evenodd" clip-rule="evenodd" d="M521.388 468.072c-1.644 5.645-6.856 9.77-13.032 9.77s-11.388-4.125-13.031-9.771c1.643-5.645 6.856-9.77 13.031-9.77 6.176 0 11.389 4.125 13.032 9.771Z" fill="#fff"/><path fill="#FEFFFF" d="M506.729 450.701h3.257v27.141h-3.257z"/><path fill="#FEFFFF" d="M494.786 462.643h27.141v3.257h-27.141z"/><path d="M479.587 579.89c0-1.199.972-2.171 2.171-2.171h53.197c1.2 0 2.172.972 2.172 2.171v68.396h-57.54V579.89Z" fill="#B24C55"/><mask id="bc" fill="#fff"><path d="M508.9 582.061h23.885c.599 0 1.085.486 1.085 1.085v65.139H508.9v-66.224Z"/></mask><path d="M508.9 582.061h23.885c.599 0 1.085.486 1.085 1.085v65.139H508.9v-66.224Z" fill="#FFA487"/><path d="M508.9 582.061h24.97-24.97Zm24.97 66.224H508.9h24.97Zm-26.055 0v-66.224h2.171v66.224h-2.171Zm26.055-66.224v66.224-66.224Z" fill="#9A5555" mask="url(#bc)"/><rect x="513.243" y="587.486" width="16.285" height="19.542" rx="1.086" fill="#F4CBBE"/><rect x="515.414" y="589.66" width="11.942" height="15.199" rx="1.086" fill="#37C0DE"/><rect x="513.243" y="613.543" width="4.343" height="4.343" rx="2.171" fill="#7C312C"/><path d="M483.93 583.146c0-.599.486-1.085 1.086-1.085H508.9v66.224h-24.97v-65.139Z" fill="#FFA487"/><rect x="501.301" y="613.543" width="4.343" height="4.343" rx="2.171" fill="#7C312C"/><rect x="488.273" y="587.484" width="16.285" height="19.542" rx="1.086" fill="#F4CBBE"/><rect x="490.444" y="589.66" width="11.942" height="15.199" rx="1.086" fill="#37C0DE"/><path opacity=".4" d="M494.786 595.092c0-.6.487-1.086 1.086-1.086h3.257c.6 0 1.086.486 1.086 1.086v9.77h-5.429v-9.77Zm22.8 2.169c0-.599.486-1.085 1.085-1.085h4.343c.599 0 1.086.486 1.086 1.085v7.6h-6.514v-7.6Z" fill="#fff"/><rect x="450.275" y="579.898" width="15.199" height="8.685" rx="1.086" fill="#EBE0BE" style="mix-blend-mode:multiply" opacity=".4"/><rect x="448.103" y="465.908" width="15.199" height="8.685" rx="1.086" fill="#EBE0BE" style="mix-blend-mode:multiply" opacity=".4"/><rect x="552.327" y="584.242" width="15.199" height="8.685" rx="1.086" fill="#EBE0BE" style="mix-blend-mode:multiply" opacity=".4"/><rect x="669.577" y="605.953" width="15.199" height="8.685" rx="1.086" fill="#EBE0BE" style="mix-blend-mode:multiply" opacity=".4"/><rect x="450.275" y="521.279" width="15.199" height="8.685" rx="1.086" fill="#EBE0BE" style="mix-blend-mode:multiply" opacity=".4"/><rect x="331.939" y="597.275" width="15.199" height="8.685" rx="1.086" fill="#EBE0BE" style="mix-blend-mode:multiply" opacity=".4"/><rect x="589.239" y="598.354" width="15.199" height="8.685" rx="1.086" fill="#EBE0BE" style="mix-blend-mode:multiply" opacity=".4"/><rect x="417.705" y="523.443" width="15.199" height="8.685" rx="1.086" fill="#EBE0BE" style="mix-blend-mode:multiply" opacity=".4"/><rect x="450.276" y="590.758" width="9.771" height="8.685" rx="1.086" fill="#EBE0BE" style="mix-blend-mode:multiply" opacity=".4"/><rect x="331.939" y="608.123" width="9.771" height="8.685" rx="1.086" fill="#EBE0BE" style="mix-blend-mode:multiply" opacity=".4"/><rect x="607.695" y="598.354" width="9.771" height="8.685" rx="1.086" fill="#EBE0BE" style="mix-blend-mode:multiply" opacity=".4"/><rect x="540.384" y="456.135" width="14.114" height="8.685" rx="1.086" fill="#EBE0BE" style="mix-blend-mode:multiply" opacity=".4"/><rect x="542.555" y="632.008" width="9.771" height="8.685" rx="1.086" fill="#EBE0BE" style="mix-blend-mode:multiply" opacity=".4"/><rect x="557.755" y="572.299" width="9.771" height="8.685" rx="1.086" fill="#EBE0BE" style="mix-blend-mode:multiply" opacity=".4"/><rect x="557.755" y="503.902" width="9.771" height="8.685" rx="1.086" fill="#EBE0BE" style="mix-blend-mode:multiply" opacity=".4"/><rect x="450.275" y="629.838" width="15.199" height="8.685" rx="1.086" fill="#EBE0BE" style="mix-blend-mode:multiply" opacity=".4"/><rect width="68.396" height="7.6" rx="2.171" transform="matrix(1 0 0 -1 474.159 655.887)" fill="#7A9597"/><rect x="432.904" y="489.783" width="150.906" height="11.942" rx="2.171" fill="#C66C6C"/><rect x="437.247" y="491.953" width="5.428" height="2.171" rx="1.086" fill="#DF847D"/><rect x="520.842" y="387.732" width="23.884" height="2.171" rx="1.086" fill="#DF847D"/><rect x="444.846" y="491.953" width="111.822" height="2.171" rx="1.086" fill="#DF847D"/><rect x="546.898" y="387.732" width="111.822" height="2.171" rx="1.086" fill="#DF847D"/><rect x="437.247" y="545.152" width="5.428" height="2.171" rx="1.086" fill="#DF847D"/><rect x="444.846" y="545.152" width="33.655" height="2.171" rx="1.086" fill="#DF847D"/><rect width="126.492" height="13.575" rx="2.171" transform="rotate(-37 931.195 -366.271)" fill="#C66C6C"/><rect width="126.492" height="13.575" rx="2.171" transform="matrix(-.79864 -.60181 -.60182 .79863 609.406 486.652)" fill="#C66C6C"/><rect width="5.67" height="2.346" rx="1.173" transform="matrix(-.79864 -.60181 -.60182 .79863 513.755 417.199)" fill="#DF847D"/><rect width="44.852" height="2.346" rx="1.173" transform="matrix(-.79864 -.60181 -.60182 .79863 551.541 445.656)" fill="#DF847D"/><rect x="465.474" y="532.115" width="85.767" height="33.655" rx="2.171" fill="#D0A496"/><rect x="468.73" y="535.371" width="79.253" height="27.141" rx="2.171" fill="#F8FDFF"/><path d="M477.358 543.202v1.225h-.463v-.792h-3.003v-3.486h.493v3.053h1.942v-3.053h.493v3.053h.538Zm1.705.044c.316 0 .57-.106.762-.318l.259.308c-.116.14-.264.246-.443.319-.176.073-.374.11-.593.11-.279 0-.526-.057-.742-.17a1.265 1.265 0 0 1-.503-.483 1.395 1.395 0 0 1-.174-.697c0-.255.057-.486.169-.692.117-.206.274-.365.473-.478a1.35 1.35 0 0 1 .683-.174c.239 0 .456.054.652.164.196.106.352.257.468.453.116.196.176.422.179.677l-2.096.409a.82.82 0 0 0 .334.423c.159.1.35.149.572.149Zm-.109-1.872a.883.883 0 0 0-.448.114.8.8 0 0 0-.304.324.998.998 0 0 0-.11.478v.05l1.688-.319a.81.81 0 0 0-.288-.468.839.839 0 0 0-.538-.179Zm1.978-.378h.478v1.12h1.504v-1.12h.478v2.639h-.478v-1.106h-1.504v1.106h-.478v-2.639Zm6.691-.025c.332 0 .595.096.787.288.196.193.294.478.294.857v1.519h-.478v-1.464c0-.256-.06-.448-.179-.578-.117-.129-.284-.194-.503-.194-.243 0-.435.076-.578.229-.143.149-.214.365-.214.647v1.36h-.478v-1.464c0-.256-.06-.448-.18-.578-.116-.129-.283-.194-.502-.194-.243 0-.435.076-.578.229-.143.149-.214.365-.214.647v1.36h-.478v-2.639h.458v.393a.909.909 0 0 1 .378-.309c.156-.073.334-.109.533-.109.206 0 .389.041.548.124a.862.862 0 0 1 .368.364c.1-.153.238-.273.414-.359.179-.086.38-.129.602-.129Zm3.186 0c.266 0 .5.056.702.169.206.113.364.272.473.478.113.202.17.437.17.702 0 .262-.055.496-.165.702-.109.203-.262.36-.458.473-.196.113-.42.17-.672.17-.199 0-.378-.035-.538-.105a1.056 1.056 0 0 1-.398-.314v1.355h-.483v-2.276c0-.265.056-.501.169-.707.116-.206.277-.365.483-.478.209-.113.448-.169.717-.169Zm-.015 2.275a.92.92 0 0 0 .458-.114.802.802 0 0 0 .314-.329c.076-.143.115-.304.115-.483a.982.982 0 0 0-.115-.478.797.797 0 0 0-.314-.334.876.876 0 0 0-.458-.119.834.834 0 0 0-.637.259c-.163.169-.244.392-.244.667 0 .183.036.345.109.488.077.14.181.249.314.329a.908.908 0 0 0 .458.114Zm4.65-2.275c.265 0 .499.056.702.169.206.113.363.272.473.478.113.202.169.437.169.702 0 .262-.055.496-.164.702-.11.203-.262.36-.458.473-.196.113-.42.17-.673.17a1.32 1.32 0 0 1-.537-.105 1.06 1.06 0 0 1-.399-.314v1.355h-.483v-2.276c0-.265.057-.501.17-.707.116-.206.277-.365.483-.478.209-.113.448-.169.717-.169Zm-.015 2.275a.924.924 0 0 0 .458-.114.809.809 0 0 0 .314-.329c.076-.143.114-.304.114-.483a.982.982 0 0 0-.114-.478.803.803 0 0 0-.314-.334.88.88 0 0 0-.458-.119.835.835 0 0 0-.638.259c-.162.169-.244.392-.244.667 0 .183.037.345.11.488a.85.85 0 0 0 .314.329.902.902 0 0 0 .458.114Zm4.537-2.25v2.639h-.458v-.419a1.03 1.03 0 0 1-.404.334 1.252 1.252 0 0 1-.537.115 1.39 1.39 0 0 1-.688-.17 1.234 1.234 0 0 1-.478-.473 1.444 1.444 0 0 1-.169-.707c0-.265.056-.499.169-.702.116-.203.276-.36.478-.473a1.39 1.39 0 0 1 .688-.169c.189 0 .363.036.522.109.16.07.293.174.399.314v-.398h.478Zm-1.36 2.25a.838.838 0 0 0 .772-.443 1.01 1.01 0 0 0 .115-.488.986.986 0 0 0-.115-.483.8.8 0 0 0-.318-.329.92.92 0 0 0-.454-.114.924.924 0 0 0-.458.114.84.84 0 0 0-.318.329.986.986 0 0 0-.115.483c0 .183.038.345.115.488.079.14.185.249.318.329a.924.924 0 0 0 .458.114Zm3.66-.986a.845.845 0 0 1 .408.224.542.542 0 0 1 .144.384.622.622 0 0 1-.159.418c-.106.12-.254.214-.443.284-.186.066-.395.1-.628.1a2.25 2.25 0 0 1-.577-.075 1.796 1.796 0 0 1-.498-.224l.144-.364c.126.08.271.143.434.19.162.043.327.064.492.064.226 0 .406-.038.538-.114.136-.08.204-.186.204-.319a.314.314 0 0 0-.164-.284c-.106-.066-.257-.099-.453-.099h-.483v-.344h.448c.179 0 .32-.032.423-.095.103-.063.155-.149.155-.259 0-.119-.062-.212-.184-.278-.12-.067-.283-.1-.488-.1-.263 0-.54.068-.832.204l-.13-.368a2.21 2.21 0 0 1 1.011-.244c.213 0 .404.03.573.089.169.06.302.145.398.254.097.11.145.234.145.374a.525.525 0 0 1-.13.348.795.795 0 0 1-.348.234Zm3.077.005c.342.087.513.301.513.643a.624.624 0 0 1-.264.538c-.173.126-.432.189-.777.189h-1.27v-2.639h1.225c.312 0 .556.059.732.179a.561.561 0 0 1 .264.498c0 .139-.038.26-.114.363a.684.684 0 0 1-.309.229Zm-1.33-.134h.717c.183 0 .321-.033.414-.1a.328.328 0 0 0 .144-.289c0-.252-.186-.378-.558-.378h-.717v.767Zm.767 1.135c.199 0 .349-.031.448-.094.1-.063.15-.161.15-.294 0-.136-.047-.238-.14-.304-.089-.066-.232-.1-.428-.1h-.797v.792h.767Zm4.229-2.27v2.639h-.458v-.389a.957.957 0 0 1-.378.309c-.156.073-.327.11-.513.11-.352 0-.629-.097-.832-.289-.202-.196-.304-.483-.304-.862v-1.518h.478v1.464c0 .255.062.449.185.582.123.13.298.194.528.194.252 0 .451-.076.597-.229.146-.152.219-.368.219-.647v-1.364h.478Zm4.233-.025c.332 0 .594.096.786.288.196.193.294.478.294.857v1.519h-.478v-1.464c0-.256-.06-.448-.179-.578-.116-.129-.284-.194-.503-.194-.242 0-.435.076-.578.229-.142.149-.214.365-.214.647v1.36h-.478v-1.464c0-.256-.06-.448-.179-.578-.116-.129-.284-.194-.503-.194-.242 0-.435.076-.578.229-.142.149-.214.365-.214.647v1.36h-.478v-2.639h.458v.393a.918.918 0 0 1 .379-.309c.156-.073.333-.109.533-.109.205 0 .388.041.547.124.16.083.282.204.369.364.099-.153.237-.273.413-.359.179-.086.38-.129.603-.129Zm4.336.025v2.639h-.458v-.389a.96.96 0 0 1-.379.309c-.156.073-.327.11-.513.11-.351 0-.629-.097-.831-.289-.203-.196-.304-.483-.304-.862v-1.518h.478v1.464c0 .255.062.449.184.582.123.13.299.194.528.194.253 0 .452-.076.598-.229.146-.152.219-.368.219-.647v-1.364h.478Zm3.047 0v2.639h-.428v-.837h-.822l-.577.837h-.513l.642-.902a.876.876 0 0 1-.458-.293.832.832 0 0 1-.159-.518c0-.302.102-.531.308-.687.206-.16.49-.239.852-.239h1.155Zm-1.827.941c0 .176.054.307.164.393.113.083.28.125.503.125h.732v-1.041h-.712c-.458 0-.687.174-.687.523Zm5.352-.966c.266 0 .5.056.702.169.206.113.364.272.473.478.113.202.17.437.17.702 0 .262-.055.496-.165.702-.109.203-.262.36-.458.473-.196.113-.42.17-.672.17-.199 0-.379-.035-.538-.105a1.056 1.056 0 0 1-.398-.314v1.355h-.483v-2.276c0-.265.056-.501.169-.707.116-.206.277-.365.483-.478.209-.113.448-.169.717-.169Zm-.015 2.275a.924.924 0 0 0 .458-.114.809.809 0 0 0 .314-.329c.076-.143.115-.304.115-.483a.982.982 0 0 0-.115-.478.803.803 0 0 0-.314-.334.878.878 0 0 0-.458-.119.833.833 0 0 0-.637.259c-.163.169-.244.392-.244.667 0 .183.036.345.109.488.077.14.181.249.314.329a.908.908 0 0 0 .458.114Zm3.238 0c.315 0 .569-.106.761-.318l.259.308c-.116.14-.264.246-.443.319a1.53 1.53 0 0 1-.592.11c-.279 0-.527-.057-.742-.17a1.252 1.252 0 0 1-.503-.483 1.385 1.385 0 0 1-.175-.697c0-.255.057-.486.17-.692.116-.206.274-.365.473-.478.202-.116.43-.174.682-.174.239 0 .456.054.652.164.196.106.352.257.468.453.117.196.176.422.18.677l-2.097.409a.825.825 0 0 0 .334.423c.159.1.35.149.573.149Zm-.11-1.872a.886.886 0 0 0-.448.114.8.8 0 0 0-.304.324.998.998 0 0 0-.11.478v.05l1.689-.319a.817.817 0 0 0-.827-.647Zm3.323-.289c.246 0 .465.055.657.164.193.11.342.263.448.459.11.192.165.413.165.662 0 .256-.058.483-.174.682a1.164 1.164 0 0 1-.484.458c-.205.11-.441.165-.707.165-.448 0-.795-.153-1.04-.459-.243-.308-.364-.742-.364-1.299 0-.541.111-.965.334-1.27.222-.309.562-.513 1.021-.613l1.205-.268.069.438-1.11.239c-.345.076-.603.206-.772.388-.169.183-.266.445-.289.787.113-.169.259-.3.438-.393.18-.093.381-.14.603-.14Zm-.085 2.191c.17 0 .319-.038.448-.114a.804.804 0 0 0 .309-.314.966.966 0 0 0 .11-.463c0-.262-.08-.473-.239-.633a.852.852 0 0 0-.628-.239.866.866 0 0 0-.632.239c-.159.16-.239.371-.239.633 0 .172.036.327.109.463a.845.845 0 0 0 .314.314.886.886 0 0 0 .448.114Zm3.218-.03c.315 0 .569-.106.762-.318l.259.308a1.11 1.11 0 0 1-.444.319 1.53 1.53 0 0 1-.592.11c-.279 0-.526-.057-.742-.17a1.252 1.252 0 0 1-.503-.483 1.395 1.395 0 0 1-.174-.697c0-.255.056-.486.169-.692.116-.206.274-.365.473-.478a1.35 1.35 0 0 1 .682-.174c.239 0 .457.054.653.164.195.106.351.257.468.453.116.196.176.422.179.677l-2.097.409a.825.825 0 0 0 .334.423c.159.1.35.149.573.149Zm-.11-1.872a.886.886 0 0 0-.448.114.806.806 0 0 0-.304.324.998.998 0 0 0-.109.478v.05l1.688-.319a.812.812 0 0 0-.289-.468.837.837 0 0 0-.538-.179Zm1.979-.378h.478v1.12h1.504v-1.12h.478v2.639h-.478v-1.106h-1.504v1.106h-.478v-2.639Zm4.415 1.523h-.548v1.116h-.478v-2.639h.478v1.115h.558l.857-1.115h.512l-1.001 1.269 1.071 1.37h-.563l-.886-1.116Zm4.343-1.523v2.639h-.458v-.419a1.03 1.03 0 0 1-.404.334 1.254 1.254 0 0 1-.538.115c-.255 0-.484-.057-.687-.17a1.234 1.234 0 0 1-.478-.473 1.444 1.444 0 0 1-.169-.707c0-.265.056-.499.169-.702.116-.203.276-.36.478-.473.203-.113.432-.169.687-.169.19 0 .364.036.523.109.16.07.292.174.399.314v-.398h.478Zm-1.36 2.25a.913.913 0 0 0 .453-.114.834.834 0 0 0 .319-.329 1.01 1.01 0 0 0 .115-.488.986.986 0 0 0-.115-.483.797.797 0 0 0-.319-.329.913.913 0 0 0-.453-.114.924.924 0 0 0-.458.114.849.849 0 0 0-.319.329.996.996 0 0 0-.114.483c0 .183.038.345.114.488.08.14.186.249.319.329a.924.924 0 0 0 .458.114Z" fill="#2A2D34"/><path d="M478.669 556.025c0 .09.003.164.009.222l.01.503c0 .096-.074.144-.222.144-.116 0-.213.004-.29.01l-.531.01c-.084 0-.126-.103-.126-.309l-.01-.822h-1.449c-.638 0-1.127.004-1.468.01v.454c-.007.077-.01.238-.01.483 0 .097-.074.145-.222.145h-.715c-.097 0-.161-.016-.193-.048-.026-.032-.039-.094-.039-.184l.01-1.265c0-.303.003-.538.009-.706v-.125c0-.052.026-.087.078-.106a.442.442 0 0 1 .183-.039l.406.01c.045-.097.08-.187.106-.271.155-.496.255-1.03.3-1.604a24.05 24.05 0 0 0 .077-2.086l.01-.435a8.69 8.69 0 0 0 .019-.532c0-.18.019-.299.058-.357a.178.178 0 0 1 .154-.087l3.034.01c.103 0 .155.093.155.28v1.777l-.01.822.01 1.942v.541h.425c.09 0 .151.009.183.029.032.012.049.051.049.115v1.469Zm-3.285-1.594c.56 0 1.011-.003 1.352-.01v-.715l.01-1.072v-2.135c-.225-.007-.544-.01-.956-.01-.007.921-.049 1.7-.126 2.338-.071.638-.187 1.172-.348 1.604h.068Zm7.363.763c-.006.09 0 .168.02.232a.574.574 0 0 1 .029.145c0 .096-.026.161-.078.193a.56.56 0 0 1-.241.039l-.715-.01-1.691.01-.357.009c-.239 0-.358-.051-.358-.154l.019-1.913.01-1.71-.01-1.333v-1.449c0-.071.013-.123.039-.155.032-.039.09-.061.174-.068.084-.013.219-.019.406-.019l.898.01c.148.006.326.009.532.009.083.007.241.01.473.01l.338-.019.251-.01c.065 0 .113.016.145.048.039.033.058.097.058.194 0 .045-.006.112-.019.202l-.029.242c-.007.142-.01.354-.01.638 0 .064-.042.109-.125.135a1.817 1.817 0 0 1-.387.029l-.463-.01c-.4 0-.738.003-1.015.01v1.874c.296.006.622.01.976.01l.541.009c.064 0 .113.016.145.049.038.032.058.096.058.193l.009.241c0 .065-.003.12-.009.165-.007.103-.01.193-.01.27v.174c0 .052-.029.084-.087.097a.962.962 0 0 1-.222.019h-.203l-.773-.01-.415.02v.782l.512.01.84-.01.338-.019.252-.01c.064 0 .112.016.145.049.038.032.058.096.058.193 0 .051-.007.161-.02.328l-.029.261Zm4.352-6.154c.064 0 .112.016.145.048.038.033.057.097.057.194v.444l-.009.444c0 .065-.048.11-.145.136-.09.019-.229.029-.416.029l-.463-.01h-.261c.006.097.01.245.01.444v1.305l.009 2.424c0 .67-.006 1.06-.019 1.169-.013.071-.029.116-.048.136-.02.013-.052.019-.097.019l-.251-.01a2.071 2.071 0 0 0-.222-.009l-.339.009c-.212 0-.318-.051-.318-.154l.009-.618c.007-.084.01-.184.01-.3v-2.058l.01-.55-.01-.822v-.995h-1.159c-.091 0-.136-.083-.136-.251v-.879c0-.064.013-.103.039-.116a.52.52 0 0 1 .164-.029l1.247.01 1.603.019.338-.019.252-.01Zm4.459 6.086c0 .104-.078.223-.232.358a1.877 1.877 0 0 1-.609.348 2.36 2.36 0 0 1-.831.145c-.238 0-.476-.055-.715-.165a2.476 2.476 0 0 1-.599-.367c-.238-.206-.441-.509-.608-.908-.168-.399-.251-.902-.251-1.507 0-1.539.235-2.631.705-3.275.393-.541.953-.812 1.681-.812.167 0 .351.036.55.107.207.064.381.145.522.241.142.097.213.177.213.242 0 .129-.039.293-.116.492-.077.2-.164.38-.261.541-.097.155-.174.232-.232.232a.256.256 0 0 1-.097-.038.991.991 0 0 0-.086-.068 3.02 3.02 0 0 0-.339-.203.729.729 0 0 0-.328-.077c-.264 0-.483.206-.657.618-.167.406-.251 1.073-.251 2 0 .399.074.747.222 1.043.155.29.37.435.647.435.142 0 .303-.051.483-.154a2.17 2.17 0 0 0 .551-.454.118.118 0 0 1 .097-.049c.077 0 .157.081.241.242.084.154.155.335.213.541.058.206.087.37.087.492Zm4.721.087a.21.21 0 0 1 .039.116c0 .058-.048.119-.145.184a2.808 2.808 0 0 1-.406.183l-.251.087c-.174.078-.299.116-.377.116a.283.283 0 0 1-.193-.077 1.103 1.103 0 0 1-.193-.28 8.537 8.537 0 0 1-.203-.435 8.548 8.548 0 0 0-.203-.425 39.3 39.3 0 0 0-.203-.396 14.564 14.564 0 0 0-.396-.754l-.096-.009v.28c0 1.133-.007 1.755-.02 1.864-.013.071-.029.116-.048.136-.019.013-.051.019-.097.019l-.251-.01a2.046 2.046 0 0 0-.222-.009l-.338.009c-.213 0-.319-.051-.319-.154l.01-.618a4.29 4.29 0 0 0 .009-.3v-.995l.01-.551-.01-.821v-3.246c0-.039.065-.068.194-.087.128-.019.27-.029.425-.029l.241-.01c.148 0 .248.013.3.039.064.026.096.106.096.242v.599l.01.598v1.894c.071.006.164.01.28.01.284 0 .499-.1.647-.3.155-.206.232-.534.232-.985l-.009-.85v-1.063c0-.058.083-.1.251-.126.167-.032.351-.048.551-.048.199 0 .318.01.357.029.064.026.097.106.097.242l.009.618v.705l.01.3c0 .586-.093 1.098-.28 1.536-.187.431-.461.74-.821.927l.376.56c.206.297.313.458.319.484.052.077.152.206.3.386.193.245.299.383.318.415Zm4.68-1.41-.01 1.691c0 .219-.064.328-.193.328l-.222-.01a1.79 1.79 0 0 0-.213-.009l-.338.009c-.212 0-.319-.051-.319-.154l.01-.512c.013-.219.016-.354.01-.406v-1.101l.019-1.527-.193.435a309.102 309.102 0 0 1-1.034 2.319l-.116.241a4.24 4.24 0 0 1-.251.512c-.071.123-.135.184-.193.184h-.483c-.161 0-.268-.007-.319-.02-.052-.019-.077-.051-.077-.096l.009-.638c.007-.09.01-.193.01-.309v-.995l.01-.551-.01-.821v-3.246c0-.039.064-.068.193-.087.129-.019.271-.029.425-.029.097-.006.2-.003.309.01.11.006.187.022.232.048.065.026.097.106.097.242v.57l-.01 1.545.02 1.15.193-.464c.264-.625.528-1.243.792-1.855.271-.618.441-.982.512-1.091a.269.269 0 0 1 .232-.126l.386-.01c.226 0 .361.013.406.039.065.039.097.119.097.242v1.545l.009.599.01 2.348Zm4.887 0-.009 1.691c0 .219-.065.328-.194.328l-.222-.01a1.782 1.782 0 0 0-.212-.009l-.339.009c-.212 0-.318-.051-.318-.154l.009-.512c.013-.219.016-.354.01-.406v-1.101l.019-1.527-.193.435a309.102 309.102 0 0 1-1.034 2.319l-.116.241a4.24 4.24 0 0 1-.251.512c-.071.123-.135.184-.193.184h-.483c-.161 0-.267-.007-.319-.02-.051-.019-.077-.051-.077-.096l.009-.638c.007-.09.01-.193.01-.309v-.995l.01-.551-.01-.821v-3.246c0-.039.065-.068.193-.087.129-.019.271-.029.425-.029.097-.006.2-.003.31.01a.556.556 0 0 1 .231.048c.065.026.097.106.097.242v.57l-.01 1.545.02 1.15.193-.464c.264-.625.528-1.243.792-1.855.271-.618.441-.982.512-1.091a.269.269 0 0 1 .232-.126l.386-.01c.226 0 .361.013.406.039.065.039.097.119.097.242v1.545l.01.599.009 2.348Zm-1.333-6.811c.019-.052.064-.09.135-.116a.652.652 0 0 1 .251-.048c.084 0 .155.016.213.048a.137.137 0 0 1 .087.135c0 .477-.119.863-.358 1.159-.231.297-.563.445-.995.445-.257 0-.489-.074-.695-.222a1.59 1.59 0 0 1-.483-.599 1.846 1.846 0 0 1-.174-.783c0-.064.029-.109.087-.135a.513.513 0 0 1 .232-.048c.09 0 .174.016.251.048.077.026.129.064.154.116.078.18.161.322.252.425.09.097.215.145.376.145.187 0 .329-.052.425-.155a1.14 1.14 0 0 0 .242-.415Zm7.961 8.134c0 .104-.077.223-.232.358a1.882 1.882 0 0 1-.608.348 2.364 2.364 0 0 1-.831.145c-.238 0-.477-.055-.715-.165a2.457 2.457 0 0 1-.599-.367c-.238-.206-.441-.509-.609-.908-.167-.399-.251-.902-.251-1.507 0-1.539.235-2.631.705-3.275.393-.541.954-.812 1.681-.812.168 0 .351.036.551.107.206.064.38.145.522.241.141.097.212.177.212.242 0 .129-.038.293-.116.492-.077.2-.164.38-.26.541-.097.155-.174.232-.232.232a.245.245 0 0 1-.097-.038 1.139 1.139 0 0 0-.087-.068 2.928 2.928 0 0 0-.338-.203.733.733 0 0 0-.329-.077c-.264 0-.483.206-.656.618-.168.406-.252 1.073-.252 2 0 .399.074.747.223 1.043.154.29.37.435.647.435.142 0 .303-.051.483-.154.187-.103.37-.255.551-.454a.116.116 0 0 1 .096-.049c.077 0 .158.081.242.242.083.154.154.335.212.541.058.206.087.37.087.492Zm4.055-5.497c.194.258.351.644.474 1.16.122.508.183 1.256.183 2.241v1.314l-.009.599v.589c0 .135-.032.216-.097.242-.051.026-.151.038-.299.038l-.242-.009c-.412 0-.618-.036-.618-.107v-1.381h-.02c-.586 0-1.056.003-1.41.01v.019l-.01.599v.551c0 .135-.032.215-.096.241a.685.685 0 0 1-.242.058 1.625 1.625 0 0 1-.299.01c-.413 0-.619-.036-.619-.107v-2.666c0-.992.065-1.716.194-2.174.128-.457.286-.818.473-1.082.174-.257.364-.46.57-.608.206-.149.48-.223.821-.223.264 0 .493.055.686.165.193.109.38.283.56.521Zm-.859 3.42c.045.007.128.01.251.01v-.029c0-.921-.068-1.588-.203-2-.129-.412-.293-.618-.493-.618-.464 0-.695.873-.695 2.618v.019h1.14Zm7.313 2.976c0 .09.003.164.01.222l.009.503c0 .096-.074.144-.222.144-.116 0-.212.004-.29.01l-.531.01c-.084 0-.126-.103-.126-.309l-.009-.822h-1.449c-.638 0-1.128.004-1.469.01v.454c-.006.077-.01.238-.01.483 0 .097-.074.145-.222.145h-.715c-.096 0-.161-.016-.193-.048-.026-.032-.039-.094-.039-.184l.01-1.265c0-.303.003-.538.01-.706v-.125c0-.052.025-.087.077-.106a.444.444 0 0 1 .184-.039l.405.01c.045-.097.081-.187.107-.271.154-.496.254-1.03.299-1.604.052-.573.077-1.269.077-2.086l.01-.435c.013-.193.019-.371.019-.532 0-.18.02-.299.058-.357a.18.18 0 0 1 .155-.087l3.033.01c.104 0 .155.093.155.28v1.777l-.01.822.01 1.942v.541h.425c.09 0 .152.009.184.029.032.012.048.051.048.115v1.469Zm-3.285-1.594c.561 0 1.011-.003 1.353-.01v-.715l.009-1.072v-2.135c-.225-.007-.544-.01-.956-.01-.006.921-.048 1.7-.126 2.338-.07.638-.186 1.172-.347 1.604h.067Zm9.774-1.7.009 1.072c0 1.133-.006 1.755-.019 1.864-.013.071-.029.116-.048.136-.02.013-.052.019-.097.019a2.28 2.28 0 0 1-.251-.01 1.383 1.383 0 0 0-.126-.009h-.357c-.058 0-.126-.061-.203-.184a5.93 5.93 0 0 1-.242-.512l-.116-.241c-.057-.091-.476-1.034-1.255-2.831-.007.225-.01.457-.01.696l.01 1.072c0 .148.003.29.009.425l.01 1.111c0 .193-.003.303-.01.328-.013.071-.029.116-.048.136-.019.013-.052.019-.097.019l-.251-.01a2.058 2.058 0 0 0-.222-.009l-.338.009c-.213 0-.319-.051-.319-.154l.01-.618a4.29 4.29 0 0 0 .009-.3v-.995l.01-.551-.01-.821v-3.246c0-.039.065-.068.193-.087.129-.019.271-.029.426-.029h.058c.045 0 .09.006.135.019.051.007.09.01.116.01a.27.27 0 0 1 .232.126c.077.116.264.521.56 1.217.303.695.592 1.375.869 2.038l.116.281v-.329l-.019-3.246c0-.039.064-.068.193-.087.129-.019.271-.029.425-.029l.242-.01c.148 0 .248.013.299.039.065.026.097.106.097.242v.599l.01.598v2.252Zm2.454 1.507c-.361 0-.674-.094-.938-.281a1.868 1.868 0 0 1-.608-.763 2.575 2.575 0 0 1-.203-1.024c0-.328.074-.65.222-.966.155-.322.37-.583.647-.782.284-.2.609-.3.976-.3.567 0 .986.2 1.256.599.277.399.416.895.416 1.488 0 .315-.062.628-.184.937-.122.309-.316.57-.58.782-.264.207-.599.31-1.004.31Zm.019-3.034c-.174 0-.316.09-.425.271-.103.18-.155.425-.155.734 0 .257.055.48.164.666.11.187.255.281.435.281.168 0 .3-.078.396-.232.097-.155.145-.393.145-.715 0-.271-.051-.506-.154-.705-.103-.2-.239-.3-.406-.3Zm1.314 3.517c.058 0 .096.058.116.174.019.116.029.267.029.454 0 .122-.01.225-.029.309-.013.084-.052.125-.116.125-.032 0-.097.004-.193.01-.091.007-.216.01-.377.01l-2.087-.01c-.052 0-.087-.042-.106-.126a1.486 1.486 0 0 1-.029-.318c0-.123.009-.258.029-.406.019-.155.051-.232.096-.232l.822.01h1.845Zm6.66-1.652c.065 0 .113.016.145.048.039.032.058.097.058.193l-.009.251c-.02.174-.029.374-.029.599 0 .052-.029.084-.087.097a.921.921 0 0 1-.213.019h-.193l-.01 1.131c0 .154-.016.26-.048.318a.16.16 0 0 1-.145.078h-.705a.728.728 0 0 1-.29-.029c-.065-.026-.097-.071-.097-.136l.01-.734c.006-.103.01-.222.01-.357v-.28l-2.126.019c-.09 0-.135-.084-.135-.251v-.551c0-.296.364-1.037 1.092-2.222.347-.58.669-1.059.966-1.439.296-.38.518-.57.666-.57h.493c.116 0 .193.019.232.058.045.038.068.115.068.231v.561l-.01 1.323.019 1.633c.084.006.197.01.338.01Zm-1.603-1.836c-.084.116-.21.309-.377.58-.342.586-.577 1.03-.705 1.333h1.082v-1.913Zm4.477 1.159c.457.058.85.21 1.178.454.335.245.503.641.503 1.189 0 .612-.193 1.082-.58 1.41-.38.329-.866.493-1.459.493-.328 0-.628-.048-.898-.145a2.418 2.418 0 0 1-.648-.348c-.154-.135-.231-.241-.231-.319 0-.115.022-.276.067-.483.052-.212.11-.396.174-.55.071-.161.142-.242.213-.242.025 0 .054.016.087.049.116.141.286.273.512.396.232.116.46.174.686.174.508 0 .763-.184.763-.551 0-.219-.061-.367-.184-.445-.122-.083-.315-.125-.579-.125-.129 0-.316.019-.561.058-.071.013-.119-.042-.145-.164-.025-.129-.038-.374-.038-.735 0-.071.048-.19.145-.357.103-.174.26-.419.473-.734.238-.355.39-.586.454-.696h-.357l-1.324.01c-.09 0-.135-.084-.135-.252v-1.072c0-.064.013-.106.038-.125a.392.392 0 0 1 .165-.039l.763.01a8.3 8.3 0 0 0 .435.009c.083.007.444.01 1.082.01l.338-.019.251-.01c.058 0 .103.016.135.048.039.026.061.084.068.174l-.01.792c0 .097-.051.226-.154.387-.103.154-.268.383-.493.686-.341.457-.586.811-.734 1.062Z" fill="#E65C00"/><path fill="#BEC0D3" d="M410.106 362.762h5.428v275.754h-5.428z"/><path fill="#D0D3EA" d="M413.363 363.844h1.086v273.583h-1.086z"/><path d="M409.02 358.415c0-1.199.973-2.171 2.172-2.171h3.257c1.199 0 2.171.972 2.171 2.171v3.257c0 .6-.486 1.086-1.086 1.086h-5.428a1.086 1.086 0 0 1-1.086-1.086v-3.257Z" fill="#BEC0D3"/><path d="M413.363 358.416a1.086 1.086 0 1 1 2.171 0v2.171a1.086 1.086 0 1 1-2.171 0v-2.171Z" fill="#D0D3EA"/><path d="M407.935 640.683c0-1.199.972-2.171 2.171-2.171h5.429c1.199 0 2.171.972 2.171 2.171v1.086c0 .599-.486 1.085-1.086 1.085h-7.599c-.6 0-1.086-.486-1.086-1.085v-1.086Z" fill="#BEC0D3"/><path d="M413.363 640.683a1.085 1.085 0 0 1 2.171 0v.362c0 .4-.324.724-.723.724h-.724a.724.724 0 0 1-.724-.724v-.362Z" fill="#D0D3EA"/><path d="M342.796 366.894s17.37-2.71 27.141 1.808c1.628-17.619 40.169-4.518 40.169-4.518v47.362c0 .718-.67 1.239-1.356 1.027-9.231-2.843-33.873-12.021-38.395 2.729-.239.778-1.212 1.172-1.95.832-8.621-3.968-31.038.002-31.038.002 12.485-13.101 14.657-32.979 5.429-49.242Z" fill="url(#bd)"/><path opacity=".1" d="M349.852 372.529s10.314-3.057 20.085 2.371c1.628-21.17 40.169-5.428 40.169-5.428v4.343c-8.142-2.715-36.912-15.743-40.169 5.97-5.428-7.104-20.085-7.256-20.085-7.256Zm.543 37.113s9.228-5.428 18.999 0c1.629-21.17 40.17-5.428 40.17-5.428v4.343c-8.143-2.715-36.913-15.743-40.17 5.97-5.428-7.104-18.999-4.885-18.999-4.885Z" fill="#fff"/><path d="M728.845 264.505 497.501 809.499 160.948 684.65c100.48-128.705 537.726-421.526 549.16-435.399a12.616 12.616 0 0 1-.289-.269L23.613 567.401V264.505l680.162-27.859L-9.5 75 233-7l477.289 225.908L442.5-7l186 8 100.345 217.908L703.775-24H827l-80.884 242.908L958-33.5 1090.5 75 755.887 236.646l271.413-38.365v117.25l-271.413-66.767L1027.3 424.095l5.43 180.217-286.614-346.863L985.503 798.1l-260.557 14.656 3.899-548.251Z" fill="url(#be)" style="mix-blend-mode:overlay" opacity=".15"/></g><defs><linearGradient id="b" x1="504.5" y1="0" x2="504.5" y2="1009" gradientUnits="userSpaceOnUse"><stop stop-color="#1399E4"/><stop offset="1" stop-color="#73D5F4"/></linearGradient><linearGradient id="c" x1="521.385" y1="182.539" x2="521.385" y2="808.957" gradientUnits="userSpaceOnUse"><stop stop-color="#fff" stop-opacity=".76"/><stop offset="1" stop-color="#fff"/></linearGradient><linearGradient id="d" x1="511.615" y1="245.508" x2="511.615" y2="745.99" gradientUnits="userSpaceOnUse"><stop stop-color="#fff" stop-opacity=".76"/><stop offset="1" stop-color="#fff"/></linearGradient><linearGradient id="e" x1="489.902" y1="312.813" x2="489.902" y2="672.162" gradientUnits="userSpaceOnUse"><stop stop-color="#fff" stop-opacity=".76"/><stop offset="1" stop-color="#fff"/></linearGradient><linearGradient id="f" x1="585.438" y1="347.559" x2="585.438" y2="706.908" gradientUnits="userSpaceOnUse"><stop stop-color="#fff" stop-opacity=".76"/><stop offset="1" stop-color="#fff"/></linearGradient><linearGradient id="g" x1="228.801" y1="497.375" x2="304.002" y2="576.352" gradientUnits="userSpaceOnUse"><stop stop-color="#A0E87E"/><stop offset=".755" stop-color="#9DF882"/><stop offset="1" stop-color="#9CFD84"/></linearGradient><linearGradient id="h" x1="272.227" y1="581.519" x2="327.311" y2="621.762" gradientUnits="userSpaceOnUse"><stop stop-color="#52DE58"/><stop offset="1" stop-color="#50F191"/></linearGradient><linearGradient id="i" x1="307.399" y1="597.383" x2="339.688" y2="628.508" gradientUnits="userSpaceOnUse"><stop stop-color="#31C952"/><stop offset="1" stop-color="#28BE49"/></linearGradient><linearGradient id="j" x1="335.898" y1="393.485" x2="360.79" y2="417.987" gradientUnits="userSpaceOnUse"><stop stop-color="#A0E87E"/><stop offset=".755" stop-color="#9DF882"/><stop offset="1" stop-color="#9CFD84"/></linearGradient><linearGradient id="k" x1="436.653" y1="345.675" x2="460.688" y2="406.903" gradientUnits="userSpaceOnUse"><stop stop-color="#A0E87E"/><stop offset=".755" stop-color="#9DF882"/><stop offset="1" stop-color="#9CFD84"/></linearGradient><linearGradient id="l" x1="589.635" y1="354.967" x2="589.306" y2="409.458" gradientUnits="userSpaceOnUse"><stop stop-color="#0FA075"/><stop offset="1" stop-color="#0FBF8A"/></linearGradient><linearGradient id="m" x1="593.499" y1="329.73" x2="591.922" y2="372.493" gradientUnits="userSpaceOnUse"><stop stop-color="#0FA075"/><stop offset="1" stop-color="#0FBF8A"/></linearGradient><linearGradient id="n" x1="595.648" y1="284.931" x2="594.395" y2="341.733" gradientUnits="userSpaceOnUse"><stop stop-color="#0FA075"/><stop offset="1" stop-color="#0FBF8A"/></linearGradient><linearGradient id="o" x1="778.067" y1="473.711" x2="778.573" y2="557.528" gradientUnits="userSpaceOnUse"><stop stop-color="#0FA075"/><stop offset="1" stop-color="#0FBF8A"/></linearGradient><linearGradient id="p" x1="778.523" y1="428.079" x2="778.939" y2="496.912" gradientUnits="userSpaceOnUse"><stop stop-color="#0FA075"/><stop offset="1" stop-color="#0FBF8A"/></linearGradient><linearGradient id="q" x1="781.941" y1="390.986" x2="781.941" y2="445.269" gradientUnits="userSpaceOnUse"><stop stop-color="#0FA075"/><stop offset="1" stop-color="#0FBF8A"/></linearGradient><linearGradient id="r" x1="782.484" y1="334.529" x2="782.484" y2="402.925" gradientUnits="userSpaceOnUse"><stop stop-color="#0FA075"/><stop offset="1" stop-color="#0FBF8A"/></linearGradient><linearGradient id="s" x1="794.427" y1="579.887" x2="754.801" y2="615.714" gradientUnits="userSpaceOnUse"><stop stop-color="#A0E87E"/><stop offset="1" stop-color="#9CFD84"/></linearGradient><linearGradient id="t" x1="730.367" y1="561.611" x2="677.177" y2="633.078" gradientUnits="userSpaceOnUse"><stop stop-color="#52DE58"/><stop offset="1" stop-color="#50F191"/></linearGradient><linearGradient id="u" x1="714.159" y1="584.07" x2="684.776" y2="636.342" gradientUnits="userSpaceOnUse"><stop stop-color="#31C952"/><stop offset="1" stop-color="#28BE49"/></linearGradient><linearGradient id="v" x1="634.693" y1="661.365" x2="634.693" y2="670.052" gradientUnits="userSpaceOnUse"><stop stop-color="#2BCE76"/><stop offset="1" stop-color="#45DD70" stop-opacity=".71"/></linearGradient><linearGradient id="w" x1="620.372" y1="668.139" x2="620.372" y2="670.473" gradientUnits="userSpaceOnUse"><stop stop-color="#2BCE76"/><stop offset="1" stop-color="#45DD70" stop-opacity=".71"/></linearGradient><linearGradient id="x" x1="629.209" y1="666.197" x2="629.209" y2="670.589" gradientUnits="userSpaceOnUse"><stop stop-color="#2BCE76"/><stop offset="1" stop-color="#45DD70" stop-opacity=".71"/></linearGradient><linearGradient id="y" x1="639.99" y1="666.332" x2="639.99" y2="670.653" gradientUnits="userSpaceOnUse"><stop stop-color="#2BCE76"/><stop offset="1" stop-color="#45DD70" stop-opacity=".71"/></linearGradient><linearGradient id="z" x1="922.391" y1="805.76" x2="922.391" y2="814.447" gradientUnits="userSpaceOnUse"><stop stop-color="#2BCE76"/><stop offset="1" stop-color="#45DD70" stop-opacity=".71"/></linearGradient><linearGradient id="A" x1="908.07" y1="812.531" x2="908.07" y2="814.865" gradientUnits="userSpaceOnUse"><stop stop-color="#2BCE76"/><stop offset="1" stop-color="#45DD70" stop-opacity=".71"/></linearGradient><linearGradient id="B" x1="916.906" y1="810.592" x2="916.906" y2="814.984" gradientUnits="userSpaceOnUse"><stop stop-color="#2BCE76"/><stop offset="1" stop-color="#45DD70" stop-opacity=".71"/></linearGradient><linearGradient id="C" x1="927.688" y1="810.727" x2="927.688" y2="815.048" gradientUnits="userSpaceOnUse"><stop stop-color="#2BCE76"/><stop offset="1" stop-color="#45DD70" stop-opacity=".71"/></linearGradient><linearGradient id="D" x1="217.403" y1="670.053" x2="217.403" y2="678.74" gradientUnits="userSpaceOnUse"><stop stop-color="#2BCE76"/><stop offset="1" stop-color="#45DD70" stop-opacity=".71"/></linearGradient><linearGradient id="E" x1="231.723" y1="676.826" x2="231.723" y2="679.16" gradientUnits="userSpaceOnUse"><stop stop-color="#2BCE76"/><stop offset="1" stop-color="#45DD70" stop-opacity=".71"/></linearGradient><linearGradient id="F" x1="222.886" y1="674.885" x2="222.886" y2="679.277" gradientUnits="userSpaceOnUse"><stop stop-color="#2BCE76"/><stop offset="1" stop-color="#45DD70" stop-opacity=".71"/></linearGradient><linearGradient id="G" x1="212.106" y1="675.02" x2="212.106" y2="679.341" gradientUnits="userSpaceOnUse"><stop stop-color="#2BCE76"/><stop offset="1" stop-color="#45DD70" stop-opacity=".71"/></linearGradient><linearGradient id="H" x1="652.749" y1="785.127" x2="652.749" y2="793.814" gradientUnits="userSpaceOnUse"><stop stop-color="#2BCE76"/><stop offset="1" stop-color="#45DD70" stop-opacity=".71"/></linearGradient><linearGradient id="I" x1="667.07" y1="791.9" x2="667.07" y2="794.234" gradientUnits="userSpaceOnUse"><stop stop-color="#2BCE76"/><stop offset="1" stop-color="#45DD70" stop-opacity=".71"/></linearGradient><linearGradient id="J" x1="658.233" y1="789.959" x2="658.233" y2="794.351" gradientUnits="userSpaceOnUse"><stop stop-color="#2BCE76"/><stop offset="1" stop-color="#45DD70" stop-opacity=".71"/></linearGradient><linearGradient id="K" x1="647.453" y1="790.094" x2="647.453" y2="794.415" gradientUnits="userSpaceOnUse"><stop stop-color="#2BCE76"/><stop offset="1" stop-color="#45DD70" stop-opacity=".71"/></linearGradient><linearGradient id="L" x1="99.066" y1="789.477" x2="99.066" y2="798.163" gradientUnits="userSpaceOnUse"><stop stop-color="#2BCE76"/><stop offset="1" stop-color="#45DD70" stop-opacity=".71"/></linearGradient><linearGradient id="M" x1="113.386" y1="796.248" x2="113.386" y2="798.582" gradientUnits="userSpaceOnUse"><stop stop-color="#2BCE76"/><stop offset="1" stop-color="#45DD70" stop-opacity=".71"/></linearGradient><linearGradient id="N" x1="104.549" y1="794.309" x2="104.549" y2="798.7" gradientUnits="userSpaceOnUse"><stop stop-color="#2BCE76"/><stop offset="1" stop-color="#45DD70" stop-opacity=".71"/></linearGradient><linearGradient id="O" x1="93.77" y1="794.443" x2="93.77" y2="798.765" gradientUnits="userSpaceOnUse"><stop stop-color="#2BCE76"/><stop offset="1" stop-color="#45DD70" stop-opacity=".71"/></linearGradient><linearGradient id="P" x1="51.4" y1="970.822" x2="51.4" y2="979.509" gradientUnits="userSpaceOnUse"><stop stop-color="#2BCE76"/><stop offset="1" stop-color="#45DD70" stop-opacity=".71"/></linearGradient><linearGradient id="Q" x1="65.72" y1="977.594" x2="65.72" y2="979.928" gradientUnits="userSpaceOnUse"><stop stop-color="#2BCE76"/><stop offset="1" stop-color="#45DD70" stop-opacity=".71"/></linearGradient><linearGradient id="R" x1="56.884" y1="975.654" x2="56.884" y2="980.046" gradientUnits="userSpaceOnUse"><stop stop-color="#2BCE76"/><stop offset="1" stop-color="#45DD70" stop-opacity=".71"/></linearGradient><linearGradient id="S" x1="46.104" y1="975.789" x2="46.104" y2="980.11" gradientUnits="userSpaceOnUse"><stop stop-color="#2BCE76"/><stop offset="1" stop-color="#45DD70" stop-opacity=".71"/></linearGradient><linearGradient id="T" x1="382.162" y1="765.998" x2="382.162" y2="776.969" gradientUnits="userSpaceOnUse"><stop stop-color="#2BCE76"/><stop offset="1" stop-color="#45DD70" stop-opacity=".71"/></linearGradient><linearGradient id="U" x1="389.088" y1="772.096" x2="389.088" y2="777.642" gradientUnits="userSpaceOnUse"><stop stop-color="#2BCE76"/><stop offset="1" stop-color="#45DD70" stop-opacity=".71"/></linearGradient><linearGradient id="V" x1="375.473" y1="772.277" x2="375.473" y2="777.735" gradientUnits="userSpaceOnUse"><stop stop-color="#2BCE76"/><stop offset="1" stop-color="#45DD70" stop-opacity=".71"/></linearGradient><linearGradient id="W" x1="947.397" y1="959.4" x2="947.397" y2="970.371" gradientUnits="userSpaceOnUse"><stop stop-color="#2BCE76"/><stop offset="1" stop-color="#45DD70" stop-opacity=".71"/></linearGradient><linearGradient id="X" x1="954.323" y1="965.498" x2="954.323" y2="971.044" gradientUnits="userSpaceOnUse"><stop stop-color="#2BCE76"/><stop offset="1" stop-color="#45DD70" stop-opacity=".71"/></linearGradient><linearGradient id="Y" x1="940.708" y1="965.68" x2="940.708" y2="971.137" gradientUnits="userSpaceOnUse"><stop stop-color="#2BCE76"/><stop offset="1" stop-color="#45DD70" stop-opacity=".71"/></linearGradient><linearGradient id="Z" x1="777.341" y1="647.662" x2="777.341" y2="658.633" gradientUnits="userSpaceOnUse"><stop stop-color="#2BCE76"/><stop offset="1" stop-color="#45DD70" stop-opacity=".71"/></linearGradient><linearGradient id="aa" x1="784.266" y1="653.76" x2="784.266" y2="659.306" gradientUnits="userSpaceOnUse"><stop stop-color="#2BCE76"/><stop offset="1" stop-color="#45DD70" stop-opacity=".71"/></linearGradient><linearGradient id="ab" x1="770.652" y1="653.941" x2="770.652" y2="659.399" gradientUnits="userSpaceOnUse"><stop stop-color="#2BCE76"/><stop offset="1" stop-color="#45DD70" stop-opacity=".71"/></linearGradient><linearGradient id="ac" x1="286.703" y1="730.791" x2="286.703" y2="770.556" gradientUnits="userSpaceOnUse"><stop stop-color="#32D055"/><stop offset="1" stop-color="#54DB7A"/></linearGradient><linearGradient id="ad" x1="752.199" y1="720.478" x2="749.744" y2="758.641" gradientUnits="userSpaceOnUse"><stop stop-color="#32D055"/><stop offset="1" stop-color="#54DB7A"/></linearGradient><linearGradient id="ae" x1="813.832" y1="789.404" x2="815.784" y2="819.738" gradientUnits="userSpaceOnUse"><stop stop-color="#9CFFB8"/><stop offset="1" stop-color="#74F297"/></linearGradient><linearGradient id="af" x1="375.373" y1="679.301" x2="373.898" y2="693.977" gradientUnits="userSpaceOnUse"><stop stop-color="#32D055"/><stop offset="1" stop-color="#54DB7A"/></linearGradient><linearGradient id="ag" x1="296.121" y1="636.957" x2="294.646" y2="651.633" gradientUnits="userSpaceOnUse"><stop stop-color="#32D055"/><stop offset="1" stop-color="#54DB7A"/></linearGradient><linearGradient id="ah" x1="48.848" y1="716.259" x2="46.399" y2="740.631" gradientUnits="userSpaceOnUse"><stop stop-color="#9CFFB8"/><stop offset="1" stop-color="#74F297"/></linearGradient><linearGradient id="ai" x1="833.015" y1="694.903" x2="835.289" y2="715.343" gradientUnits="userSpaceOnUse"><stop stop-color="#32D055"/><stop offset="1" stop-color="#54DB7A"/></linearGradient><linearGradient id="aj" x1="567.816" y1="787.885" x2="570.09" y2="808.326" gradientUnits="userSpaceOnUse"><stop stop-color="#32D055"/><stop offset="1" stop-color="#54DB7A"/></linearGradient><linearGradient id="ak" x1="611.242" y1="632.635" x2="613.516" y2="653.076" gradientUnits="userSpaceOnUse"><stop stop-color="#32D055"/><stop offset="1" stop-color="#54DB7A"/></linearGradient><linearGradient id="al" x1="147.771" y1="807.424" x2="145.497" y2="827.865" gradientUnits="userSpaceOnUse"><stop stop-color="#9CFFB8"/><stop offset="1" stop-color="#74F297"/></linearGradient><linearGradient id="am" x1="993.495" y1="737.938" x2="991.221" y2="758.378" gradientUnits="userSpaceOnUse"><stop stop-color="#9CFFB8"/><stop offset="1" stop-color="#74F297"/></linearGradient><linearGradient id="an" x1="540.388" y1="876" x2="540.388" y2="915.765" gradientUnits="userSpaceOnUse"><stop stop-color="#32D055"/><stop offset="1" stop-color="#54DB7A"/></linearGradient><linearGradient id="ao" x1="210.624" y1="929.713" x2="208.169" y2="967.876" gradientUnits="userSpaceOnUse"><stop stop-color="#32D055"/><stop offset="1" stop-color="#54DB7A"/></linearGradient><linearGradient id="ap" x1="869.518" y1="945.157" x2="871.47" y2="975.49" gradientUnits="userSpaceOnUse"><stop stop-color="#9CFFB8"/><stop offset="1" stop-color="#74F297"/></linearGradient><linearGradient id="aq" x1="375.373" y1="858.389" x2="373.898" y2="873.065" gradientUnits="userSpaceOnUse"><stop stop-color="#32D055"/><stop offset="1" stop-color="#54DB7A"/></linearGradient><linearGradient id="ar" x1="296.121" y1="816.045" x2="294.646" y2="830.721" gradientUnits="userSpaceOnUse"><stop stop-color="#32D055"/><stop offset="1" stop-color="#54DB7A"/></linearGradient><linearGradient id="as" x1="48.848" y1="895.347" x2="46.399" y2="919.719" gradientUnits="userSpaceOnUse"><stop stop-color="#9CFFB8"/><stop offset="1" stop-color="#74F297"/></linearGradient><linearGradient id="at" x1="703.489" y1="866.723" x2="705.763" y2="887.164" gradientUnits="userSpaceOnUse"><stop stop-color="#32D055"/><stop offset="1" stop-color="#54DB7A"/></linearGradient><linearGradient id="au" x1="458.489" y1="959.723" x2="460.763" y2="980.164" gradientUnits="userSpaceOnUse"><stop stop-color="#32D055"/><stop offset="1" stop-color="#54DB7A"/></linearGradient><linearGradient id="av" x1="611.242" y1="811.723" x2="613.516" y2="832.164" gradientUnits="userSpaceOnUse"><stop stop-color="#32D055"/><stop offset="1" stop-color="#54DB7A"/></linearGradient><linearGradient id="aw" x1="333.764" y1="945.723" x2="331.49" y2="966.164" gradientUnits="userSpaceOnUse"><stop stop-color="#9CFFB8"/><stop offset="1" stop-color="#74F297"/></linearGradient><linearGradient id="ax" x1="993.495" y1="917.026" x2="991.221" y2="937.466" gradientUnits="userSpaceOnUse"><stop stop-color="#9CFFB8"/><stop offset="1" stop-color="#74F297"/></linearGradient><linearGradient id="ay" x1="4.001" y1="0" x2="4.001" y2="4.721" gradientUnits="userSpaceOnUse"><stop stop-color="#E3DCC8"/><stop offset="1" stop-color="#D5CCB6"/></linearGradient><linearGradient id="az" x1="3.304" y1="0" x2="3.304" y2="3.714" gradientUnits="userSpaceOnUse"><stop stop-color="#E3DCC8"/><stop offset="1" stop-color="#D5CCB6"/></linearGradient><linearGradient id="aA" x1="4.246" y1="0" x2="4.246" y2="3.714" gradientUnits="userSpaceOnUse"><stop stop-color="#E3DCC8"/><stop offset="1" stop-color="#D5CCB6"/></linearGradient><linearGradient id="aB" x1="271.578" y1="663.639" x2="271.578" y2="668.36" gradientUnits="userSpaceOnUse"><stop stop-color="#E3DCC8"/><stop offset="1" stop-color="#D5CCB6"/></linearGradient><linearGradient id="aC" x1="51.191" y1="804.778" x2="51.191" y2="809.499" gradientUnits="userSpaceOnUse"><stop stop-color="#E3DCC8"/><stop offset="1" stop-color="#D5CCB6"/></linearGradient><linearGradient id="aD" x1="973.997" y1="772.207" x2="973.997" y2="776.929" gradientUnits="userSpaceOnUse"><stop stop-color="#E3DCC8"/><stop offset="1" stop-color="#D5CCB6"/></linearGradient><linearGradient id="aE" x1="540.467" y1="728.899" x2="540.467" y2="733.62" gradientUnits="userSpaceOnUse"><stop stop-color="#E3DCC8"/><stop offset="1" stop-color="#D5CCB6"/></linearGradient><linearGradient id="aF" x1="501.048" y1="662.557" x2="501.048" y2="667.278" gradientUnits="userSpaceOnUse"><stop stop-color="#E3DCC8"/><stop offset="1" stop-color="#D5CCB6"/></linearGradient><linearGradient id="aG" x1="200.066" y1="714.546" x2="200.066" y2="717.902" gradientUnits="userSpaceOnUse"><stop stop-color="#E3DCC8"/><stop offset="1" stop-color="#D5CCB6"/></linearGradient><linearGradient id="aH" x1="942.298" y1="818.889" x2="942.298" y2="822.246" gradientUnits="userSpaceOnUse"><stop stop-color="#E3DCC8"/><stop offset="1" stop-color="#D5CCB6"/></linearGradient><linearGradient id="aI" x1="649.172" y1="669.067" x2="649.172" y2="672.424" gradientUnits="userSpaceOnUse"><stop stop-color="#E3DCC8"/><stop offset="1" stop-color="#D5CCB6"/></linearGradient><linearGradient id="aJ" x1="399.471" y1="778.718" x2="399.471" y2="782.074" gradientUnits="userSpaceOnUse"><stop stop-color="#E3DCC8"/><stop offset="1" stop-color="#D5CCB6"/></linearGradient><linearGradient id="aK" x1="91.145" y1="802.606" x2="91.145" y2="805.963" gradientUnits="userSpaceOnUse"><stop stop-color="#E3DCC8"/><stop offset="1" stop-color="#D5CCB6"/></linearGradient><linearGradient id="aL" x1="283.044" y1="678.422" x2="283.044" y2="682.136" gradientUnits="userSpaceOnUse"><stop stop-color="#E3DCC8"/><stop offset="1" stop-color="#D5CCB6"/></linearGradient><linearGradient id="aM" x1="62.656" y1="819.558" x2="62.656" y2="823.273" gradientUnits="userSpaceOnUse"><stop stop-color="#E3DCC8"/><stop offset="1" stop-color="#D5CCB6"/></linearGradient><linearGradient id="aN" x1="550.707" y1="745.635" x2="550.707" y2="749.985" gradientUnits="userSpaceOnUse"><stop stop-color="#E3DCC8"/><stop offset="1" stop-color="#D5CCB6"/></linearGradient><linearGradient id="aO" x1="985.462" y1="786.984" x2="985.462" y2="790.699" gradientUnits="userSpaceOnUse"><stop stop-color="#E3DCC8"/><stop offset="1" stop-color="#D5CCB6"/></linearGradient><linearGradient id="aP" x1="509.229" y1="685.803" x2="509.229" y2="690.153" gradientUnits="userSpaceOnUse"><stop stop-color="#E3DCC8"/><stop offset="1" stop-color="#D5CCB6"/></linearGradient><linearGradient id="aQ" x1="254.769" y1="669.63" x2="254.769" y2="673.344" gradientUnits="userSpaceOnUse"><stop stop-color="#E3DCC8"/><stop offset="1" stop-color="#D5CCB6"/></linearGradient><linearGradient id="aR" x1="525.32" y1="734.936" x2="525.32" y2="738.651" gradientUnits="userSpaceOnUse"><stop stop-color="#E3DCC8"/><stop offset="1" stop-color="#D5CCB6"/></linearGradient><linearGradient id="aS" x1="528.298" y1="718.999" x2="528.298" y2="722.713" gradientUnits="userSpaceOnUse"><stop stop-color="#E3DCC8"/><stop offset="1" stop-color="#D5CCB6"/></linearGradient><linearGradient id="aT" x1="34.381" y1="810.764" x2="34.381" y2="814.479" gradientUnits="userSpaceOnUse"><stop stop-color="#E3DCC8"/><stop offset="1" stop-color="#D5CCB6"/></linearGradient><linearGradient id="aU" x1="957.187" y1="778.192" x2="957.187" y2="781.907" gradientUnits="userSpaceOnUse"><stop stop-color="#E3DCC8"/><stop offset="1" stop-color="#D5CCB6"/></linearGradient><linearGradient id="aV" x1="483.842" y1="675.098" x2="483.842" y2="678.813" gradientUnits="userSpaceOnUse"><stop stop-color="#E3DCC8"/><stop offset="1" stop-color="#D5CCB6"/></linearGradient><linearGradient id="aW" x1="486.819" y1="659.163" x2="486.819" y2="662.877" gradientUnits="userSpaceOnUse"><stop stop-color="#E3DCC8"/><stop offset="1" stop-color="#D5CCB6"/></linearGradient><linearGradient id="aX" x1="181.703" y1="721.06" x2="181.703" y2="724.774" gradientUnits="userSpaceOnUse"><stop stop-color="#E3DCC8"/><stop offset="1" stop-color="#D5CCB6"/></linearGradient><linearGradient id="aY" x1="923.934" y1="825.402" x2="923.934" y2="829.116" gradientUnits="userSpaceOnUse"><stop stop-color="#E3DCC8"/><stop offset="1" stop-color="#D5CCB6"/></linearGradient><linearGradient id="aZ" x1="630.808" y1="675.589" x2="630.808" y2="679.304" gradientUnits="userSpaceOnUse"><stop stop-color="#E3DCC8"/><stop offset="1" stop-color="#D5CCB6"/></linearGradient><linearGradient id="ba" x1="381.107" y1="785.236" x2="381.107" y2="788.95" gradientUnits="userSpaceOnUse"><stop stop-color="#E3DCC8"/><stop offset="1" stop-color="#D5CCB6"/></linearGradient><linearGradient id="bb" x1="72.781" y1="809.119" x2="72.781" y2="812.833" gradientUnits="userSpaceOnUse"><stop stop-color="#E3DCC8"/><stop offset="1" stop-color="#D5CCB6"/></linearGradient><linearGradient id="bd" x1="338.453" y1="381.35" x2="414.908" y2="385.911" gradientUnits="userSpaceOnUse"><stop stop-color="#E11D1D"/><stop offset=".192" stop-color="#EC4C29"/><stop offset=".412" stop-color="#E21A1A"/><stop offset=".572" stop-color="#FC5E3B"/><stop offset=".738" stop-color="#FA6A4B"/><stop offset="1" stop-color="#E11D1D"/></linearGradient><radialGradient id="be" cx="0" cy="0" r="1" gradientUnits="userSpaceOnUse" gradientTransform="rotate(123.163 302.888 316.628) scale(523.944 671.043)"><stop stop-color="#FCFF79"/><stop offset="1" stop-color="#FDFFAE" stop-opacity="0"/></radialGradient></defs></svg>