<svg width="1009" height="1009" viewBox="0 0 1009 1009" fill="none" xmlns="http://www.w3.org/2000/svg">
<mask id="mask0_653_7842" style="mask-type:alpha" maskUnits="userSpaceOnUse" x="0" y="0" width="1009" height="1009">
<rect width="1009" height="1009" fill="white"/>
</mask>
<g mask="url(#mask0_653_7842)">
<rect width="1009" height="1009" fill="url(#paint0_linear_653_7842)"/>
<path opacity="0.2" d="M383.424 219.027C394.631 197.557 420.375 182.539 450.342 182.539C481.349 182.539 507.835 198.618 518.374 221.285C521.896 219.825 525.757 219.019 529.807 219.019C539.048 219.019 547.309 223.215 552.792 229.808C564.438 224.316 577.702 221.208 591.775 221.208C636.419 221.208 672.913 252.485 675.471 291.926C675.761 291.918 676.052 291.914 676.344 291.914C688.076 291.914 698.23 298.679 703.123 308.524C706.297 308.197 709.524 308.03 712.795 308.03C759.098 308.03 796.635 341.675 796.635 383.178C796.635 387.177 796.286 391.102 795.615 394.932C796.411 394.9 797.212 394.884 798.017 394.884C827.217 394.884 850.889 416.102 850.889 442.275C850.889 448.22 849.668 453.909 847.438 459.151C901.572 477.498 940.255 526.062 940.255 583.087C940.255 594.628 938.67 605.823 935.694 616.49C946.73 619.013 957.905 623.403 968.622 629.729C1011.58 655.086 1030.9 701.944 1011.78 734.39C992.655 766.837 942.329 772.584 899.372 747.227C880.092 735.847 865.573 720.135 857.154 703.339C839.572 710.736 820.075 714.851 799.551 714.851C768.771 714.851 740.299 705.596 717.136 689.894C664.792 730.419 594.577 755.211 517.394 755.211C437.831 755.211 365.672 728.866 312.862 686.101C313.024 691.022 312.844 695.994 312.303 700.999C304.998 768.671 234.589 816.558 155.039 807.958C75.4893 799.357 16.9236 737.526 24.2286 669.854C29.2705 623.147 64.3723 585.866 111.792 570.076C101.229 545.521 105.659 518.074 124.633 502.831C131.037 497.686 138.44 494.461 146.271 493.047C145.479 463.142 157.089 435.085 180.495 417.731C192.195 409.057 205.592 403.984 219.608 402.261C218.425 399.042 217.779 395.563 217.779 391.933C217.779 375.412 231.161 362.02 247.669 362.02C247.815 362.02 247.96 362.021 248.105 362.023C248.299 357.866 248.805 353.668 249.641 349.456C258.238 306.123 298.54 277.465 340.325 284.473C337.334 275.268 336.914 265.48 339.624 255.95C345.161 236.479 362.372 222.985 383.424 219.027Z" fill="url(#paint1_linear_653_7842)"/>
<path opacity="0.8" d="M621.894 274.66C612.935 257.507 592.357 245.508 568.403 245.508C543.618 245.508 522.446 258.354 514.022 276.464C511.207 275.298 508.12 274.654 504.883 274.654C497.496 274.654 490.893 278.007 486.51 283.274C477.201 278.886 466.599 276.402 455.349 276.402C419.663 276.402 390.492 301.392 388.447 332.904C388.215 332.897 387.983 332.894 387.75 332.894C378.371 332.894 370.254 338.299 366.343 346.165C363.807 345.904 361.227 345.77 358.612 345.77C321.6 345.77 291.595 372.651 291.595 405.81C291.595 409.005 291.874 412.141 292.41 415.201C291.774 415.176 291.134 415.163 290.491 415.163C267.149 415.163 248.227 432.115 248.227 453.027C248.227 457.776 249.204 462.321 250.986 466.51C207.714 481.168 176.793 519.969 176.793 565.53C176.793 574.751 178.06 583.695 180.439 592.217C171.618 594.233 162.684 597.74 154.118 602.795C119.78 623.054 104.336 660.492 119.622 686.415C134.908 712.338 175.135 716.93 209.473 696.671C224.884 687.578 236.49 675.025 243.219 661.606C257.273 667.516 272.859 670.804 289.264 670.804C313.868 670.804 336.627 663.409 355.142 650.864C396.983 683.242 453.109 703.05 514.805 703.05C578.404 703.05 636.083 682.001 678.297 647.834C678.168 651.766 678.312 655.738 678.744 659.736C684.583 713.804 740.865 752.064 804.452 745.192C868.04 738.321 914.854 688.92 909.015 634.853C904.985 597.536 876.926 567.75 839.021 555.134C847.465 535.516 843.924 513.587 828.757 501.408C823.638 497.298 817.72 494.721 811.461 493.591C812.094 469.699 802.813 447.282 784.104 433.417C774.752 426.487 764.043 422.433 752.839 421.057C753.785 418.485 754.301 415.705 754.301 412.805C754.301 399.606 743.604 388.906 730.408 388.906C730.292 388.906 730.176 388.906 730.06 388.908C729.905 385.587 729.501 382.233 728.833 378.868C721.96 344.246 689.745 321.35 656.344 326.949C658.735 319.594 659.072 311.775 656.905 304.16C652.479 288.604 638.721 277.822 621.894 274.66Z" fill="url(#paint2_linear_653_7842)"/>
<path d="M410.615 333.744C417.056 321.428 431.851 312.812 449.073 312.812C466.893 312.812 482.114 322.036 488.171 335.039C490.195 334.202 492.414 333.739 494.741 333.739C500.052 333.739 504.8 336.147 507.951 339.929C514.644 336.778 522.267 334.995 530.355 334.995C556.012 334.995 576.985 352.937 578.455 375.563C578.621 375.558 578.788 375.556 578.956 375.556C585.699 375.556 591.534 379.437 594.346 385.085C596.17 384.897 598.025 384.801 599.905 384.801C626.515 384.801 648.087 404.102 648.087 427.911C648.087 430.204 647.887 432.456 647.501 434.653C647.959 434.635 648.419 434.626 648.882 434.626C665.663 434.626 679.267 446.798 679.267 461.812C679.267 465.222 678.566 468.486 677.284 471.493C708.395 482.018 730.626 509.877 730.626 542.59C730.626 549.211 729.715 555.633 728.005 561.752C734.347 563.199 740.77 565.718 746.929 569.347C771.616 583.893 782.72 610.773 771.73 629.386C760.74 647.999 731.818 651.296 707.13 636.75C696.05 630.222 687.706 621.209 682.868 611.573C672.764 615.817 661.558 618.177 649.763 618.177C632.074 618.177 615.711 612.868 602.399 603.861C572.318 627.108 531.965 641.33 487.608 641.33C441.883 641.33 400.413 626.217 370.063 601.685C370.156 604.508 370.053 607.36 369.742 610.231C365.544 649.052 325.079 676.523 279.362 671.589C233.645 666.655 199.987 631.185 204.186 592.364C207.083 565.571 227.256 544.184 254.508 535.126C248.438 521.04 250.983 505.295 261.888 496.551C265.569 493.599 269.823 491.749 274.323 490.938C273.868 473.783 280.541 457.687 293.992 447.732C300.716 442.757 308.415 439.846 316.47 438.858C315.79 437.011 315.419 435.015 315.419 432.933C315.419 423.456 323.11 415.773 332.597 415.773C332.68 415.773 332.764 415.774 332.847 415.775C332.959 413.39 333.25 410.982 333.73 408.566C338.671 383.707 361.833 367.268 385.846 371.288C384.127 366.007 383.886 360.392 385.443 354.925C388.626 343.756 398.517 336.015 410.615 333.744Z" fill="url(#paint3_linear_653_7842)"/>
<path d="M506.151 368.49C512.592 356.174 527.387 347.559 544.609 347.559C562.429 347.559 577.65 356.782 583.707 369.786C585.731 368.948 587.951 368.486 590.278 368.486C595.589 368.486 600.336 370.893 603.487 374.675C610.18 371.524 617.803 369.741 625.891 369.741C651.548 369.741 672.521 387.684 673.991 410.309C674.158 410.305 674.325 410.302 674.492 410.302C681.235 410.302 687.071 414.183 689.883 419.831C691.706 419.644 693.561 419.547 695.441 419.547C722.052 419.547 743.624 438.848 743.624 462.657C743.624 464.951 743.423 467.202 743.038 469.399C743.495 469.381 743.955 469.372 744.418 469.372C761.2 469.372 774.804 481.544 774.804 496.558C774.804 499.968 774.102 503.232 772.821 506.239C803.931 516.764 826.162 544.623 826.162 577.336C826.162 583.957 825.252 590.379 823.541 596.498C829.883 597.945 836.306 600.464 842.465 604.093C867.152 618.639 878.256 645.519 867.266 664.132C856.276 682.746 827.354 686.043 802.667 671.496C791.587 664.968 783.243 655.955 778.404 646.319C768.3 650.563 757.095 652.924 745.3 652.924C727.61 652.924 711.248 647.614 697.936 638.607C667.854 661.854 627.501 676.076 583.144 676.076C537.419 676.076 495.95 660.964 465.599 636.431C465.692 639.254 465.589 642.106 465.279 644.977C461.08 683.798 420.616 711.269 374.899 706.335C329.181 701.401 295.524 665.931 299.722 627.11C302.62 600.317 322.793 578.93 350.045 569.872C343.974 555.786 346.52 540.041 357.424 531.297C361.105 528.345 365.359 526.495 369.86 525.684C369.404 508.529 376.077 492.433 389.528 482.479C396.252 477.503 403.952 474.592 412.007 473.604C411.327 471.757 410.955 469.761 410.955 467.679C410.955 458.202 418.646 450.519 428.133 450.519C428.217 450.519 428.3 450.52 428.384 450.521C428.495 448.136 428.786 445.728 429.266 443.312C434.207 418.453 457.369 402.014 481.383 406.034C479.664 400.753 479.422 395.139 480.98 389.671C484.162 378.502 494.053 370.761 506.151 368.49Z" fill="url(#paint4_linear_653_7842)"/>
<path d="M261.155 587.426C260.648 603.156 293.123 604.171 297.943 602.649C303.206 603.501 341.657 576.732 334.529 533.959L290.842 491.79H269.38C266.894 488.387 259.12 482.551 247.918 486.424C236.716 490.298 236.795 500.252 238.234 504.745C236.577 503.218 232.293 500.741 228.42 503.044C224.546 505.347 225.497 509.587 226.457 511.419C218.954 508.889 202.613 507.781 197.274 523.589C190.6 543.35 210.128 558.318 217.009 557.742C210.159 563.07 217.009 571.224 227.411 566.876C224.874 587.934 253.798 595.545 261.155 587.426Z" fill="url(#paint5_linear_653_7842)"/>
<path d="M309.726 587.498C309.726 586.646 308.023 558.057 307.172 543.869C311.429 542.024 319.942 539.016 319.942 541.741V587.498C316.536 587.852 309.726 588.349 309.726 587.498Z" fill="#9B6D42"/>
<path d="M320.387 546.676C326.207 544.101 331.034 540.258 333.69 537.323L332.217 496.687C316.572 492.617 285.071 484.132 284.231 482.759C283.182 481.041 275.55 482.759 277.076 488.196C264.006 485.525 260.286 507.276 268.299 509.184C265.437 509.471 266.009 513.954 269.253 515.099C260.285 532.939 281.273 537.323 290.221 533.555C289.287 536.564 292.721 539.617 295.99 538.015C294.152 542.383 299.399 545.913 303.12 543.337C303.978 547.597 313.319 549.805 320.387 546.676Z" fill="#38C39D"/>
<path fill-rule="evenodd" clip-rule="evenodd" d="M334.298 585.743L334.873 585.643C334.739 601.433 334.551 633.148 334.873 633.685C335.173 634.184 283.567 637.121 252.307 638.825C251.202 639.56 249.876 639.988 248.45 639.988C244.596 639.988 241.471 636.863 241.471 633.009C241.471 629.656 243.837 626.854 246.991 626.184C246.237 625.474 245.766 624.466 245.766 623.349C245.766 621.199 247.508 619.457 249.657 619.457C249.82 619.457 249.981 619.467 250.138 619.486C249.825 618.367 249.657 617.187 249.657 615.968C249.657 608.779 255.485 602.951 262.674 602.951C264.378 602.951 266.006 603.279 267.497 603.874C266.816 602.281 266.976 600.589 268.054 599.585C269.29 598.433 271.343 598.548 273.037 599.733C271.176 595.046 271.964 589.973 275.424 587.072C278.697 584.326 283.469 584.273 287.609 586.519C289.735 582.551 293.788 579.869 298.438 579.869C300.948 579.869 303.283 580.65 305.236 581.993C305.335 581.268 305.642 580.617 306.167 580.128C307.544 578.844 309.935 579.134 311.713 580.723C313.937 577.216 317.74 574.904 322.058 574.904C328.205 574.904 333.309 579.591 334.298 585.743Z" fill="url(#paint6_linear_653_7842)"/>
<path d="M284.415 627.376C283.341 630.919 286.92 634.175 288.844 635.16L330.579 633.415C330.401 622.318 330.152 600.179 330.579 600.402C315.549 592.351 304.813 602.415 305.752 607.246C300.814 605.421 299.669 608.007 299.714 609.528C297.745 608.32 292.816 606.898 288.844 610.87C284.871 614.842 285.489 621.337 289.783 624.289C288.754 624.155 285.488 623.833 284.415 627.376Z" fill="url(#paint7_linear_653_7842)"/>
<path d="M284.114 488.134C276.976 508.272 298.651 508.319 304.769 506.534L363.901 441.995C361.862 438.681 353.705 430.116 337.39 422.367C316.997 412.68 298.899 430.014 299.153 434.603C296.859 432.309 289.484 437.364 294.31 441.995C278.344 441.995 275.364 459.902 281.055 465.702C277.996 467.996 275.494 475.446 284.114 477.938C276.401 479.85 278.862 488.134 284.114 488.134Z" fill="#37B894"/>
<path d="M328.023 411.86C325.532 415.388 329.399 427.215 334.041 428.462H360.096C363.718 418.537 370.493 397.629 368.613 393.4C366.264 388.113 357.453 388.701 355.985 391.784C353.635 389.876 348.643 389.729 348.936 395.602C337.072 392.9 331.987 400.472 330.928 404.596C325.325 402.935 324.025 410.565 328.023 411.86Z" fill="url(#paint8_linear_653_7842)"/>
<path d="M417.056 378.87C407.426 377.874 401.145 386.757 399.208 391.322C452.96 394.09 559.966 398.171 557.974 392.36C555.483 385.097 526.843 378.87 521.655 382.814C518.749 374.305 504.222 364.966 497.788 375.965C497.373 373.06 495.505 369.946 490.939 372.229C496.128 365.173 488.034 353.136 478.279 359.362C481.185 355.834 475.166 347.74 469.148 351.683C466.45 338.608 445.073 333.628 440.715 351.683C436.564 350.646 431.168 354.575 434.242 361.008C429.496 358.413 428.758 364.594 431.168 366.833C427.433 365.173 416.433 367.248 417.056 378.87Z" fill="url(#paint9_linear_653_7842)"/>
<path d="M694.839 540.031C696.784 545.544 686.733 556.244 678.302 563.702C682.409 535.276 690.429 476.543 689.651 469.02C688.678 459.617 714.943 458.644 717.537 465.129C735.046 456.699 743.801 477.775 737.316 485.233C753.853 482.314 749.748 517.075 734.398 512.47C737.64 513.443 736.343 522.522 731.155 521.873C730.831 528.683 722.076 528.683 717.537 528.034C719.158 531.277 714.943 534.195 713.321 532.574C713.321 535.492 703.594 543.598 694.839 540.031Z" fill="#38C39D"/>
<g opacity="0.8">
<path d="M621.268 387.774C626.673 392.171 637.743 392.976 636.133 387.774C634.181 381.468 620.179 377.957 612.037 358.415L572.41 356.244C568.336 369.579 551.956 384.226 546.097 387.774C536.433 393.626 548.295 399.636 560.488 392.171C550.035 410.365 571.368 399.053 573.745 394.757C569.387 406.402 578.666 410.987 586.557 398.734C587.703 416.527 601.298 409.846 599.496 395.882C610.307 412.699 616.313 404.892 611.208 392.171C623.671 404.291 624.125 393.267 621.268 387.774Z" fill="url(#paint10_linear_653_7842)"/>
<path d="M617.115 357.926C619.792 360.808 627.461 364.089 629.903 360.237C633.305 354.869 616.462 349.346 610.176 330.345L577.986 329.158C575.853 342.748 561.441 352.871 556.693 356.092C549.439 361.012 561.825 366.527 568.628 360.144C559.407 375.107 575.011 366.948 577.112 363.413C573.986 371.573 582.553 376.158 585.303 362.139C585.803 377.066 592.357 373.892 595.739 364.1C601.284 375.798 608.071 371.648 607.421 362.56C619.221 373.833 619.365 362.599 617.115 357.926Z" fill="url(#paint11_linear_653_7842)"/>
<path d="M611.374 333.426C613.326 335.358 620.497 336.775 622.203 334.137C624.58 330.462 608.057 327.689 603.661 308.552C602.499 303.493 601.521 285.06 594.38 284.903C589.232 284.789 586.83 295.751 585.56 308.153C584.289 320.556 571.481 328.511 568.115 330.741C563.142 334.036 572.935 336.404 577.532 333.152C572.574 339.494 581.156 341.427 586.088 335.26C583.81 341.247 591.396 343.566 593.657 338.355C593.556 342.916 601.891 343.602 602.05 336.368C611.106 345.614 613.04 336.578 611.374 333.426Z" fill="url(#paint12_linear_653_7842)"/>
</g>
<path d="M765.564 581.278C765.564 570.518 764.433 547.975 764.433 541.943C768.689 540.098 782.191 540.615 781.525 543.256C779.891 549.734 780.519 570.051 780.519 584.168C777.114 584.523 765.564 582.129 765.564 581.278Z" fill="#9B6D42"/>
<path d="M751.669 535.004C729.919 557.623 725.136 544.791 735.057 528.599C727.596 535.637 701.163 545.498 712.14 525.042C701.176 530.9 690.045 525.097 698.634 519.418C710.465 511.596 723.586 503.216 740.228 475.578L819.182 475.518C824.958 495.622 845.143 519.89 855.22 525.212C871.84 533.99 850.729 544.137 829.971 528.527C844.005 559.489 814.552 543.877 810.469 537.427C813.008 557.28 795.749 558.968 788.416 539.999C790.95 565.389 770.821 561.219 767.963 540.014C762.19 564.016 742.069 550.359 751.669 535.004Z" fill="url(#paint13_linear_653_7842)"/>
<path d="M732.07 469.56C724.133 475.12 707.891 476.151 710.259 469.578C713.131 461.61 736.391 451.935 748.45 423.577L810.24 425.153C819.047 445.773 833.772 464.993 842.365 469.467C856.537 476.847 839.125 484.454 821.244 475.038C836.558 498.008 805.272 483.745 801.79 478.322C808.169 493.027 794.549 498.829 782.986 483.361C781.282 505.839 761.344 497.417 764.004 479.775C748.122 501.032 739.319 491.176 746.825 475.101C728.524 490.427 727.871 476.502 732.07 469.56Z" fill="url(#paint14_linear_653_7842)"/>
<path d="M749.122 425.625C745.417 429.153 735.047 432.954 731.987 427.956C727.721 420.993 750.412 414.779 759.712 390.986L802.618 390.986C804.791 408.313 823.477 421.82 829.639 426.125C839.053 432.701 822.295 439.112 813.553 430.704C825.093 450.102 804.723 439.029 802.1 434.45C805.86 444.94 794.232 450.352 791.26 432.452C789.861 451.351 781.294 447.022 777.272 434.45C769.317 449.02 760.487 443.442 761.798 431.952C745.537 445.69 745.897 431.444 749.122 425.625Z" fill="url(#paint15_linear_653_7842)"/>
<path d="M761.538 392.477C759.051 394.75 750.068 396.265 748.014 393.045C745.151 388.559 765.833 385.66 771.842 362.746C773.43 356.688 775.157 334.529 784.067 334.529C790.49 334.529 793.184 347.785 794.427 362.746C795.67 377.706 811.425 387.621 815.561 390.394C821.673 394.491 809.394 397.081 803.751 393.045C809.76 400.809 799.004 402.908 793.022 395.355C795.698 402.62 786.174 405.21 783.498 398.88C783.498 404.372 773.085 404.976 773.085 396.265C761.538 407.153 759.373 396.226 761.538 392.477Z" fill="url(#paint16_linear_653_7842)"/>
<path d="M665.402 405.552C664.686 399.343 653.701 398.627 648.925 398.627L665.402 473.374C679.015 480.299 704.137 492.765 710.06 492.956C717.463 493.195 720.806 479.105 713.642 473.374C729.164 460 713.642 442.09 706.239 442.09C711.254 437.553 707.194 434.209 703.851 435.642C705.045 431.821 705.045 426.806 698.597 428.478C707.91 410.567 685.94 398.627 675.671 407.463C675.671 399.821 668.268 398.627 665.402 405.552Z" fill="#10BE89"/>
<path d="M784.015 581.295C784.015 568.521 748.318 578.67 742.193 586.02L744.468 642.014C767.624 650.53 814.007 664.097 821.286 651.638C830.385 636.065 822.861 615.592 807.462 615.592C809.037 613.492 810.262 605.268 801.513 603.693C804.138 601.943 803.788 596.169 797.138 597.918C805.059 594.167 806.587 578.145 784.015 581.295Z" fill="url(#paint17_linear_653_7842)"/>
<path d="M698.748 561.681C692.472 560.784 686.67 568.779 684.553 572.888L676.895 638.262C710.329 642.433 778.206 647.862 782.241 636.207C787.284 621.638 780.186 603.333 763.936 605.014C765.991 603.147 766.738 597.543 761.881 597.356C765.057 594.181 762.815 588.951 758.706 589.512C755.157 572.888 739.28 575.876 737.039 582.601C737.039 580.546 734.424 576.624 731.996 581.293C731.996 561.681 714.251 564.483 712.384 570.833C712.384 565.23 709.395 565.043 707.901 569.526C706.593 564.669 705.024 562.577 698.748 561.681Z" fill="url(#paint18_linear_653_7842)"/>
<path d="M684.553 596.429C687.728 591.386 697.254 576.256 702.297 589.145C709.021 581.486 719.295 585.596 715.746 596.429C719.753 593.816 723.273 598.678 720.089 602.527C729.947 593.299 743.477 611.166 732.93 617.349C739.28 617.535 738.16 622.765 734.611 624.446C741.522 624.26 743.39 627.435 743.763 633.599C744.062 638.53 704.414 636.525 684.553 634.906V596.429Z" fill="url(#paint19_linear_653_7842)"/>
<path d="M314.025 629.457C220.659 632.931 171.262 653.341 -0.271606 673.426V834.644H1006.67V658.769C990.026 660.941 1002.66 666.152 923.62 660.941C796.598 652.566 800.941 630 702.689 630C656.006 630 430.733 625.114 314.025 629.457Z" fill="#81FFB3"/>
<path d="M314.025 640.316C220.659 643.79 171.262 664.201 -0.271606 684.285V1010H1006.67V669.629C990.026 671.8 1002.66 677.011 923.62 671.8C796.598 663.425 800.941 640.859 702.689 640.859C656.006 640.859 430.733 635.974 314.025 640.316Z" fill="#74F297"/>
<path d="M218.487 690.793C122.081 676.028 33.2025 696.945 0.813843 709.249V835.727H352.023C373.736 834.822 421.722 831.276 439.961 824.328C462.76 815.643 421.505 805.872 357.451 805.872C293.398 805.872 218.487 781.987 280.913 765.16C343.338 748.332 495.872 804.243 537.67 805.872C579.467 807.5 651.663 822.699 680.433 795.558C709.203 768.417 554.497 742.904 488.272 743.447C422.048 743.99 338.995 709.249 218.487 690.793Z" fill="#69EC7E"/>
<path d="M473.674 891.078C318 891.078 312.5 943.732 5 1024.61L256 1036.01H607.209C628.922 1035.11 676.908 1031.56 695.147 1024.61C717.946 1015.93 676.691 1006.16 612.637 1006.16C548.584 1006.16 473.674 982.272 536.099 965.445C598.524 948.617 751.058 1004.53 792.856 1006.16C834.654 1007.79 906.849 1022.98 935.619 995.843C964.389 968.702 809.684 943.189 743.459 943.732C677.234 944.275 595.586 891.078 473.674 891.078Z" fill="#69EC7E"/>
<path d="M926.876 686.456C955.103 689.495 991.473 681.932 1006.13 677.77V835.732H802.569C795.874 836.637 712.857 830.476 726.573 827.047C811.254 805.877 810.711 789.049 872.593 789.049C934.476 789.049 924.705 765.165 842.738 764.079C760.771 762.994 611.494 712.511 611.494 698.398C611.494 684.284 771.49 715.335 836.224 727.71C983.873 755.937 1010.47 718.482 962.16 711.425C908.985 703.658 777.056 691.884 761.857 677.77C746.658 663.657 891.593 682.656 926.876 686.456Z" fill="#69EC7E"/>
<path d="M389.478 668.367C359.08 656.207 444.485 651.901 469.817 650.996C479.588 649.549 521.711 647.522 546.898 650.996C578.382 655.339 566.44 662.396 601.724 673.795C637.008 685.194 579.468 694.422 533.328 680.309C487.187 666.195 427.476 683.566 389.478 668.367Z" fill="#69EC7E"/>
<path fill-rule="evenodd" clip-rule="evenodd" d="M634.726 662.015C634.726 662.015 634.734 662.049 634.773 662.091L635.58 661.365C635.821 661.633 635.826 661.996 635.812 662.221C635.795 662.483 635.732 662.787 635.655 663.098C635.576 663.413 635.475 663.765 635.369 664.131L635.368 664.135C635.261 664.506 635.149 664.895 635.045 665.294C634.837 666.096 634.672 666.909 634.656 667.642C634.641 668.379 634.777 668.968 635.102 669.388L634.243 670.052C633.704 669.355 633.553 668.478 633.571 667.619C633.589 666.758 633.78 665.847 633.994 665.021C634.102 664.607 634.217 664.207 634.323 663.839L634.325 663.834C634.432 663.462 634.528 663.128 634.601 662.836C634.676 662.538 634.718 662.313 634.728 662.153C634.735 662.052 634.725 662.015 634.726 662.015Z" fill="url(#paint20_linear_653_7842)"/>
<path d="M614.318 661.256C613.649 662.863 616.215 663.153 617.582 663.098C616.243 663.962 614.77 666.06 617.582 666.864C620.394 667.667 621.516 664.353 621.767 662.512C621.934 663.767 624.11 664.269 625.784 663.098C627.458 661.926 625.617 659.917 623.357 660.001C624.947 659.331 626.119 656.318 624.11 655.398C622.503 654.661 620.986 657.434 620.428 658.913C619.981 657.853 618.687 655.85 617.08 656.318C615.473 656.787 616.745 659.415 617.582 660.67C616.773 660.196 614.988 659.649 614.318 661.256Z" fill="#FC4E77"/>
<path d="M643.857 659.195C645.65 660.761 641.885 662.451 639.846 661.883C641.749 662.725 642.276 664.679 640.902 665.924C639.528 667.17 636.334 665.596 635.377 663.244C634.994 664.995 632.433 666.186 630.727 665.924C629.163 665.684 628.066 662.842 630.889 661.578C628.533 661.719 626.078 660.345 627.119 658.471C628.294 656.358 632.245 656.995 633.824 658.471C632.586 656.387 633.681 655.176 635.377 655.149C637.072 655.121 639.098 657.007 638.378 658.906C639.083 657.835 642.063 657.629 643.857 659.195Z" fill="#FC4E77"/>
<ellipse cx="1.97581" cy="1.38425" rx="1.97581" ry="1.38425" transform="matrix(0.886385 -0.462948 0.462952 0.886383 617.928 660.816)" fill="#FCEF7E"/>
<ellipse cx="2.70246" cy="1.89334" rx="2.70246" ry="1.89334" transform="matrix(-0.999732 -0.0231493 -0.0231495 0.999732 638.04 659.303)" fill="#FCEF7E"/>
<path d="M618.401 670.155C619.208 670.731 621.473 670.395 622.505 670.155L621.281 668.139C619.985 668.571 617.595 669.579 618.401 670.155Z" fill="url(#paint21_linear_653_7842)"/>
<path d="M625.961 666.629C625.672 667.608 628.912 669.677 630.568 670.589C631.384 670.589 632.887 670.229 632.368 668.789C631.72 666.989 626.321 665.405 625.961 666.629Z" fill="url(#paint22_linear_653_7842)"/>
<path d="M643.816 666.697C641.109 665.315 637.649 668.185 636.257 669.793C636.065 670.177 636.041 670.873 637.481 670.585C639.28 670.225 643.456 668.065 643.816 666.697Z" fill="url(#paint23_linear_653_7842)"/>
<path fill-rule="evenodd" clip-rule="evenodd" d="M922.424 806.41C922.424 806.41 922.432 806.443 922.471 806.486L923.278 805.76C923.519 806.027 923.524 806.39 923.51 806.616C923.493 806.878 923.43 807.181 923.353 807.493C923.274 807.807 923.173 808.16 923.067 808.525L923.066 808.53C922.959 808.901 922.847 809.289 922.743 809.688C922.535 810.491 922.37 811.303 922.354 812.037C922.339 812.774 922.475 813.363 922.8 813.782L921.941 814.447C921.402 813.75 921.251 812.872 921.269 812.014C921.287 811.152 921.478 810.242 921.692 809.415C921.8 809.002 921.915 808.601 922.021 808.234L922.023 808.229C922.13 807.856 922.226 807.523 922.299 807.23C922.374 806.933 922.416 806.707 922.426 806.547C922.433 806.447 922.423 806.41 922.424 806.41Z" fill="url(#paint24_linear_653_7842)"/>
<path d="M902.016 805.651C901.347 807.258 903.913 807.548 905.28 807.492C903.941 808.357 902.468 810.455 905.28 811.258C908.092 812.062 909.214 808.747 909.465 806.906C909.632 808.161 911.808 808.664 913.482 807.492C915.156 806.321 913.315 804.312 911.055 804.395C912.645 803.726 913.817 800.713 911.808 799.792C910.201 799.056 908.684 801.829 908.126 803.307C907.679 802.247 906.385 800.244 904.778 800.713C903.171 801.182 904.443 803.81 905.28 805.065C904.471 804.591 902.686 804.044 902.016 805.651Z" fill="#FC4E77"/>
<path d="M931.555 803.59C933.348 805.156 929.583 806.846 927.544 806.278C929.447 807.119 929.973 809.073 928.6 810.319C927.226 811.564 924.032 809.991 923.074 807.639C922.692 809.389 920.131 810.581 918.425 810.319C916.861 810.078 915.764 807.237 918.586 805.973C916.231 806.113 913.776 804.74 914.817 802.866C915.991 800.752 919.943 801.39 921.522 802.866C920.284 800.782 921.379 799.571 923.074 799.543C924.77 799.516 926.796 801.402 926.076 803.3C926.781 802.229 929.761 802.023 931.555 803.59Z" fill="#FC4E77"/>
<ellipse cx="1.97581" cy="1.38425" rx="1.97581" ry="1.38425" transform="matrix(0.886385 -0.462948 0.462952 0.886383 905.626 805.211)" fill="#FCEF7E"/>
<ellipse cx="2.70246" cy="1.89334" rx="2.70246" ry="1.89334" transform="matrix(-0.999732 -0.0231493 -0.0231495 0.999732 925.739 803.697)" fill="#FCEF7E"/>
<path d="M906.099 814.547C906.906 815.123 909.171 814.787 910.203 814.547L908.979 812.531C907.683 812.963 905.293 813.971 906.099 814.547Z" fill="url(#paint25_linear_653_7842)"/>
<path d="M913.658 811.024C913.37 812.003 916.61 814.072 918.266 814.984C919.082 814.984 920.584 814.624 920.066 813.184C919.418 811.384 914.018 809.8 913.658 811.024Z" fill="url(#paint26_linear_653_7842)"/>
<path d="M931.514 811.092C928.807 809.71 925.346 812.58 923.955 814.188C923.763 814.572 923.739 815.268 925.178 814.98C926.978 814.62 931.154 812.46 931.514 811.092Z" fill="url(#paint27_linear_653_7842)"/>
<path fill-rule="evenodd" clip-rule="evenodd" d="M217.37 670.703C217.37 670.703 217.361 670.736 217.323 670.779L216.516 670.053C216.275 670.32 216.27 670.683 216.284 670.909C216.3 671.171 216.363 671.474 216.441 671.786C216.519 672.1 216.621 672.453 216.726 672.818L216.728 672.823C216.835 673.194 216.947 673.582 217.05 673.981C217.259 674.784 217.424 675.596 217.439 676.33C217.455 677.067 217.318 677.656 216.994 678.075L217.852 678.74C218.391 678.043 218.543 677.165 218.525 676.307C218.506 675.445 218.316 674.535 218.101 673.708C217.994 673.295 217.878 672.894 217.772 672.527L217.771 672.522C217.663 672.149 217.567 671.816 217.494 671.523C217.42 671.226 217.377 671 217.367 670.84C217.361 670.74 217.37 670.703 217.37 670.703Z" fill="url(#paint28_linear_653_7842)"/>
<path d="M237.777 669.942C238.447 671.549 235.88 671.839 234.513 671.783C235.852 672.648 237.325 674.746 234.513 675.549C231.701 676.353 230.579 673.038 230.328 671.197C230.161 672.452 227.985 672.955 226.311 671.783C224.637 670.612 226.478 668.603 228.738 668.686C227.148 668.017 225.976 665.004 227.985 664.083C229.592 663.347 231.11 666.12 231.668 667.598C232.114 666.538 233.408 664.535 235.015 665.004C236.622 665.473 235.35 668.101 234.513 669.356C235.322 668.882 237.108 668.335 237.777 669.942Z" fill="#FE7999"/>
<path d="M208.238 667.883C206.445 669.449 210.21 671.139 212.249 670.571C210.346 671.412 209.819 673.366 211.193 674.612C212.567 675.857 215.761 674.284 216.718 671.932C217.101 673.682 219.662 674.874 221.368 674.612C222.932 674.371 224.029 671.53 221.206 670.266C223.562 670.406 226.017 669.033 224.976 667.159C223.801 665.045 219.85 665.683 218.271 667.159C219.509 665.075 218.414 663.864 216.718 663.836C215.023 663.809 212.997 665.695 213.717 667.593C213.011 666.522 210.031 666.316 208.238 667.883Z" fill="#FE7999"/>
<ellipse cx="1.97581" cy="1.38425" rx="1.97581" ry="1.38425" transform="matrix(-0.886385 -0.462948 -0.462952 0.886383 234.167 669.504)" fill="#FCEF7E"/>
<ellipse cx="216.8" cy="669.819" rx="2.70246" ry="1.89334" transform="rotate(-1.32647 216.8 669.819)" fill="#FCEF7E"/>
<path d="M233.694 678.842C232.887 679.418 230.622 679.082 229.59 678.842L230.814 676.826C232.11 677.258 234.5 678.266 233.694 678.842Z" fill="url(#paint29_linear_653_7842)"/>
<path d="M226.134 675.317C226.422 676.296 223.182 678.365 221.526 679.277C220.71 679.277 219.208 678.917 219.726 677.477C220.374 675.677 225.774 674.093 226.134 675.317Z" fill="url(#paint30_linear_653_7842)"/>
<path d="M208.28 675.385C210.987 674.003 214.447 676.873 215.839 678.481C216.031 678.865 216.055 679.561 214.615 679.273C212.816 678.913 208.64 676.753 208.28 675.385Z" fill="url(#paint31_linear_653_7842)"/>
<path fill-rule="evenodd" clip-rule="evenodd" d="M652.717 785.777C652.716 785.777 652.708 785.81 652.669 785.853L651.862 785.127C651.621 785.395 651.616 785.757 651.63 785.983C651.647 786.245 651.71 786.549 651.787 786.86C651.866 787.175 651.968 787.527 652.073 787.893L652.074 787.897C652.181 788.268 652.294 788.656 652.397 789.055C652.606 789.858 652.77 790.671 652.786 791.404C652.801 792.141 652.665 792.73 652.34 793.149L653.199 793.814C653.738 793.117 653.889 792.24 653.871 791.381C653.853 790.519 653.662 789.609 653.448 788.782C653.341 788.369 653.225 787.968 653.119 787.601L653.117 787.596C653.01 787.224 652.914 786.89 652.841 786.597C652.767 786.3 652.724 786.074 652.714 785.914C652.708 785.814 652.717 785.777 652.717 785.777Z" fill="url(#paint32_linear_653_7842)"/>
<path d="M673.124 785.016C673.794 786.623 671.227 786.913 669.86 786.857C671.199 787.722 672.673 789.82 669.86 790.623C667.048 791.427 665.927 788.113 665.676 786.271C665.508 787.527 663.332 788.029 661.658 786.857C659.984 785.686 661.826 783.677 664.085 783.76C662.495 783.091 661.323 780.078 663.332 779.157C664.939 778.421 666.457 781.194 667.015 782.673C667.461 781.612 668.756 779.609 670.362 780.078C671.969 780.547 670.697 783.175 669.86 784.43C670.669 783.956 672.455 783.409 673.124 785.016Z" fill="#FE7999"/>
<path d="M643.585 782.957C641.792 784.523 645.557 786.213 647.596 785.645C645.693 786.486 645.167 788.44 646.541 789.686C647.914 790.931 651.109 789.358 652.066 787.006C652.449 788.756 655.009 789.948 656.715 789.686C658.279 789.445 659.376 786.604 656.554 785.34C658.91 785.48 661.365 784.107 660.323 782.233C659.149 780.12 655.198 780.757 653.619 782.233C654.856 780.149 653.762 778.938 652.066 778.911C650.37 778.883 648.344 780.769 649.064 782.668C648.359 781.596 645.379 781.391 643.585 782.957Z" fill="#FE7999"/>
<ellipse cx="1.97581" cy="1.38425" rx="1.97581" ry="1.38425" transform="matrix(-0.886385 -0.462948 -0.462952 0.886383 669.514 784.578)" fill="#FCEF7E"/>
<ellipse cx="652.147" cy="784.895" rx="2.70246" ry="1.89334" transform="rotate(-1.32647 652.147 784.895)" fill="#FCEF7E"/>
<path d="M669.041 793.916C668.235 794.492 665.969 794.156 664.937 793.916L666.161 791.9C667.457 792.332 669.847 793.34 669.041 793.916Z" fill="url(#paint33_linear_653_7842)"/>
<path d="M661.481 790.391C661.769 791.37 658.53 793.439 656.874 794.351C656.058 794.351 654.555 793.991 655.074 792.551C655.722 790.751 661.121 789.167 661.481 790.391Z" fill="url(#paint34_linear_653_7842)"/>
<path d="M643.627 790.459C646.334 789.077 649.794 791.947 651.186 793.555C651.378 793.939 651.402 794.635 649.962 794.347C648.163 793.987 643.987 791.827 643.627 790.459Z" fill="url(#paint35_linear_653_7842)"/>
<path fill-rule="evenodd" clip-rule="evenodd" d="M99.0329 790.127C99.0328 790.127 99.0241 790.16 98.9856 790.203L98.1787 789.477C97.9378 789.744 97.9326 790.107 97.9469 790.333C97.9635 790.595 98.0261 790.898 98.1038 791.21C98.1823 791.524 98.284 791.877 98.3895 792.242L98.3908 792.247C98.4978 792.617 98.6099 793.006 98.7135 793.405C98.9219 794.208 99.0868 795.02 99.1023 795.754C99.1178 796.49 98.9812 797.08 98.6566 797.499L99.5151 798.163C100.054 797.467 100.206 796.589 100.188 795.731C100.169 794.869 99.9789 793.958 99.7644 793.132C99.657 792.719 99.5414 792.318 99.4354 791.951L99.4339 791.946C99.3264 791.573 99.2302 791.24 99.1572 790.947C99.083 790.65 99.0405 790.424 99.0304 790.264C99.024 790.163 99.0331 790.127 99.0329 790.127Z" fill="url(#paint36_linear_653_7842)"/>
<path d="M119.44 789.368C120.11 790.975 117.543 791.265 116.176 791.209C117.515 792.074 118.988 794.171 116.176 794.975C113.364 795.778 112.243 792.464 111.991 790.623C111.824 791.878 109.648 792.38 107.974 791.209C106.3 790.037 108.142 788.028 110.401 788.112C108.811 787.442 107.639 784.43 109.648 783.509C111.255 782.772 112.773 785.545 113.331 787.024C113.777 785.964 115.071 783.961 116.678 784.43C118.285 784.898 117.013 787.526 116.176 788.782C116.985 788.307 118.771 787.761 119.44 789.368Z" fill="#FE7999"/>
<path d="M89.9011 787.306C88.1077 788.873 91.8726 790.563 93.9117 789.995C92.0091 790.836 91.4824 792.79 92.8562 794.035C94.23 795.281 97.4243 793.708 98.3815 791.356C98.7644 793.106 101.325 794.298 103.031 794.035C104.595 793.795 105.692 790.954 102.869 789.689C105.225 789.83 107.68 788.457 106.639 786.583C105.465 784.469 101.513 785.106 99.9343 786.583C101.172 784.498 100.077 783.288 98.3815 783.26C96.6858 783.233 94.6597 785.118 95.3801 787.017C94.6746 785.946 91.6946 785.74 89.9011 787.306Z" fill="#FE7999"/>
<ellipse cx="1.97581" cy="1.38425" rx="1.97581" ry="1.38425" transform="matrix(-0.886385 -0.462948 -0.462952 0.886383 115.83 788.928)" fill="#FCEF7E"/>
<ellipse cx="98.463" cy="789.244" rx="2.70246" ry="1.89334" transform="rotate(-1.32647 98.463 789.244)" fill="#FCEF7E"/>
<path d="M115.357 798.264C114.55 798.84 112.285 798.504 111.253 798.264L112.477 796.248C113.773 796.68 116.163 797.688 115.357 798.264Z" fill="url(#paint37_linear_653_7842)"/>
<path d="M107.797 794.741C108.085 795.72 104.845 797.788 103.19 798.7C102.374 798.7 100.871 798.34 101.39 796.901C102.038 795.101 107.437 793.517 107.797 794.741Z" fill="url(#paint38_linear_653_7842)"/>
<path d="M89.9431 794.809C92.6501 793.427 96.1107 796.297 97.5027 797.905C97.6947 798.289 97.7187 798.985 96.2788 798.697C94.4789 798.337 90.3031 796.177 89.9431 794.809Z" fill="url(#paint39_linear_653_7842)"/>
<path fill-rule="evenodd" clip-rule="evenodd" d="M51.3672 971.472C51.367 971.472 51.3584 971.506 51.3199 971.549L50.513 970.822C50.2721 971.09 50.2669 971.453 50.2812 971.678C50.2977 971.94 50.3604 972.244 50.4381 972.555C50.5166 972.87 50.6183 973.222 50.7238 973.588L50.7251 973.592C50.8321 973.963 50.9442 974.352 51.0478 974.751C51.2562 975.553 51.421 976.366 51.4365 977.099C51.4521 977.836 51.3155 978.425 50.9909 978.845L51.8494 979.509C52.3887 978.812 52.5401 977.935 52.522 977.076C52.5037 976.215 52.3132 975.304 52.0986 974.478C51.9913 974.064 51.8757 973.664 51.7697 973.296L51.7682 973.291C51.6607 972.919 51.5645 972.585 51.4914 972.293C51.4173 971.995 51.3748 971.77 51.3647 971.61C51.3583 971.509 51.3674 971.473 51.3672 971.472Z" fill="url(#paint40_linear_653_7842)"/>
<path d="M71.7746 970.713C72.4441 972.32 69.8775 972.61 68.5106 972.555C69.8497 973.419 71.3227 975.517 68.5106 976.321C65.6984 977.124 64.5768 973.81 64.3258 971.969C64.1584 973.224 61.9823 973.726 60.3084 972.555C58.6345 971.383 60.4758 969.374 62.7356 969.458C61.1454 968.788 59.9737 965.775 61.9823 964.855C63.5893 964.118 65.1069 966.891 65.6649 968.37C66.1112 967.31 67.4057 965.307 69.0127 965.775C70.6196 966.244 69.3475 968.872 68.5106 970.127C69.3196 969.653 71.1051 969.106 71.7746 970.713Z" fill="#FE7999"/>
<path d="M42.2354 968.652C40.442 970.218 44.2069 971.908 46.246 971.34C44.3434 972.182 43.8167 974.136 45.1905 975.381C46.5643 976.627 49.7586 975.053 50.7158 972.701C51.0987 974.452 53.6594 975.643 55.3652 975.381C56.9292 975.141 58.0264 972.3 55.2038 971.035C57.5596 971.176 60.0146 969.802 58.9732 967.928C57.7988 965.815 53.8475 966.452 52.2685 967.928C53.506 965.844 52.4116 964.633 50.7158 964.606C49.0201 964.579 46.9939 966.464 47.7144 968.363C47.0088 967.292 44.0289 967.086 42.2354 968.652Z" fill="#FE7999"/>
<ellipse cx="1.97581" cy="1.38425" rx="1.97581" ry="1.38425" transform="matrix(-0.886385 -0.462948 -0.462952 0.886383 68.1647 970.273)" fill="#FCEF7E"/>
<ellipse cx="50.7973" cy="970.59" rx="2.70246" ry="1.89334" transform="rotate(-1.32647 50.7973 970.59)" fill="#FCEF7E"/>
<path d="M67.691 979.61C66.8846 980.186 64.6192 979.85 63.5873 979.61L64.8112 977.594C66.1071 978.026 68.4973 979.034 67.691 979.61Z" fill="url(#paint41_linear_653_7842)"/>
<path d="M60.1316 976.086C60.4196 977.065 57.1797 979.134 55.5238 980.046C54.7079 980.046 53.2056 979.686 53.7239 978.246C54.3719 976.446 59.7716 974.862 60.1316 976.086Z" fill="url(#paint42_linear_653_7842)"/>
<path d="M42.2774 976.155C44.9844 974.772 48.445 977.642 49.837 979.25C50.029 979.634 50.053 980.33 48.6131 980.042C46.8132 979.682 42.6374 977.522 42.2774 976.155Z" fill="url(#paint43_linear_653_7842)"/>
<path fill-rule="evenodd" clip-rule="evenodd" d="M382.121 766.819C382.121 766.819 382.11 766.861 382.061 766.915L381.042 765.998C380.738 766.336 380.731 766.794 380.749 767.079C380.77 767.41 380.85 767.794 380.948 768.187C381.047 768.584 381.175 769.029 381.308 769.491L381.31 769.496C381.445 769.965 381.587 770.455 381.718 770.959C381.981 771.973 382.189 772.999 382.209 773.925C382.228 774.856 382.056 775.6 381.646 776.129L382.73 776.969C383.411 776.089 383.602 774.981 383.579 773.896C383.556 772.808 383.316 771.658 383.045 770.615C382.909 770.092 382.763 769.587 382.629 769.123L382.627 769.116C382.492 768.646 382.37 768.225 382.278 767.855C382.184 767.479 382.131 767.195 382.118 766.992C382.11 766.866 382.121 766.819 382.121 766.819Z" fill="url(#paint44_linear_653_7842)"/>
<path d="M370.588 763.262C368.323 765.239 373.078 767.374 375.653 766.657C373.25 767.719 372.585 770.187 374.32 771.76C376.055 773.333 380.089 771.346 381.298 768.375C381.782 770.586 385.015 772.091 387.17 771.76C389.145 771.456 390.531 767.868 386.966 766.271C389.941 766.448 393.042 764.714 391.726 762.347C390.243 759.678 385.253 760.483 383.259 762.348C384.822 759.715 383.44 758.186 381.298 758.152C379.156 758.117 376.598 760.498 377.508 762.896C376.617 761.543 372.853 761.284 370.588 763.262Z" fill="#FC4E77"/>
<ellipse cx="381.401" cy="765.706" rx="3.41296" ry="2.39112" transform="rotate(-1.32647 381.401 765.706)" fill="#FCEF7E"/>
<path d="M393.19 772.641C393.554 773.878 389.462 776.49 387.371 777.642C386.34 777.642 384.443 777.187 385.097 775.369C385.916 773.096 392.735 771.096 393.19 772.641Z" fill="url(#paint45_linear_653_7842)"/>
<path d="M370.64 772.739C374.059 770.993 378.43 774.618 380.187 776.649C380.43 777.134 380.46 778.012 378.642 777.649C376.369 777.194 371.095 774.466 370.64 772.739Z" fill="url(#paint46_linear_653_7842)"/>
<path fill-rule="evenodd" clip-rule="evenodd" d="M947.356 960.222C947.356 960.222 947.345 960.264 947.296 960.318L946.277 959.4C945.973 959.738 945.966 960.196 945.984 960.481C946.005 960.812 946.085 961.196 946.183 961.589C946.282 961.986 946.41 962.432 946.543 962.893L946.545 962.899C946.68 963.367 946.822 963.858 946.953 964.362C947.216 965.375 947.424 966.402 947.444 967.328C947.463 968.258 947.291 969.002 946.881 969.532L947.965 970.371C948.646 969.491 948.837 968.383 948.814 967.299C948.791 966.21 948.551 965.06 948.28 964.017C948.144 963.495 947.998 962.989 947.864 962.525L947.862 962.519C947.727 962.048 947.605 961.627 947.513 961.257C947.419 960.882 947.366 960.597 947.353 960.395C947.345 960.268 947.356 960.222 947.356 960.222Z" fill="url(#paint47_linear_653_7842)"/>
<path d="M935.823 956.664C933.558 958.642 938.313 960.776 940.888 960.059C938.485 961.121 937.82 963.589 939.555 965.162C941.29 966.735 945.324 964.748 946.533 961.778C947.017 963.988 950.25 965.493 952.405 965.162C954.38 964.858 955.766 961.27 952.201 959.673C955.176 959.851 958.277 958.116 956.961 955.75C955.478 953.081 950.488 953.885 948.494 955.75C950.057 953.118 948.675 951.588 946.533 951.554C944.391 951.519 941.833 953.901 942.742 956.299C941.851 954.946 938.088 954.686 935.823 956.664Z" fill="#FC4E77"/>
<ellipse cx="946.636" cy="959.108" rx="3.41296" ry="2.39112" transform="rotate(-1.32647 946.636 959.108)" fill="#FCEF7E"/>
<path d="M958.425 966.044C958.789 967.28 954.697 969.893 952.606 971.044C951.575 971.044 949.678 970.59 950.332 968.771C951.151 966.498 957.97 964.498 958.425 966.044Z" fill="url(#paint48_linear_653_7842)"/>
<path d="M935.875 966.141C939.294 964.396 943.665 968.02 945.422 970.051C945.665 970.536 945.695 971.415 943.877 971.051C941.604 970.596 936.33 967.869 935.875 966.141Z" fill="url(#paint49_linear_653_7842)"/>
<path fill-rule="evenodd" clip-rule="evenodd" d="M777.3 648.483C777.299 648.483 777.288 648.525 777.24 648.579L776.221 647.662C775.916 648 775.91 648.458 775.928 648.743C775.949 649.074 776.028 649.458 776.126 649.851C776.225 650.248 776.354 650.693 776.487 651.155L776.489 651.161C776.624 651.629 776.765 652.119 776.896 652.623C777.159 653.637 777.367 654.663 777.387 655.59C777.407 656.52 777.234 657.264 776.824 657.794L777.908 658.633C778.59 657.753 778.781 656.645 778.758 655.561C778.735 654.472 778.494 653.322 778.223 652.279C778.088 651.756 777.942 651.251 777.808 650.787L777.806 650.78C777.67 650.31 777.549 649.889 777.456 649.519C777.363 649.144 777.309 648.859 777.296 648.657C777.288 648.53 777.3 648.483 777.3 648.483Z" fill="url(#paint50_linear_653_7842)"/>
<path d="M765.767 644.926C763.502 646.904 768.256 649.038 770.832 648.321C768.429 649.383 767.764 651.851 769.499 653.424C771.234 654.997 775.268 653.01 776.477 650.039C776.96 652.25 780.194 653.755 782.348 653.424C784.324 653.12 785.709 649.532 782.144 647.935C785.12 648.113 788.22 646.378 786.905 644.011C785.422 641.342 780.432 642.147 778.438 644.012C780 641.379 778.618 639.85 776.477 639.816C774.335 639.781 771.776 642.162 772.686 644.56C771.795 643.207 768.032 642.948 765.767 644.926Z" fill="#FC4E77"/>
<ellipse cx="776.579" cy="647.37" rx="3.41296" ry="2.39112" transform="rotate(-1.32647 776.579 647.37)" fill="#FCEF7E"/>
<path d="M788.368 654.305C788.732 655.542 784.64 658.154 782.549 659.306C781.519 659.306 779.621 658.852 780.276 657.033C781.094 654.76 787.914 652.76 788.368 654.305Z" fill="url(#paint51_linear_653_7842)"/>
<path d="M765.819 654.403C769.238 652.657 773.608 656.282 775.366 658.313C775.609 658.798 775.639 659.677 773.82 659.313C771.547 658.858 766.274 656.13 765.819 654.403Z" fill="url(#paint52_linear_653_7842)"/>
<path d="M252.792 770.08C238.325 772.941 234.982 762.03 243.547 760.19C225.303 753.642 240.789 734.988 257.092 745.354C253.871 739.857 262.376 736.044 265.048 743.849C264.195 731.41 285.841 723.139 287.624 741.484C287.931 738.049 293.011 740.171 292.493 743.191C293.705 739.895 296.439 742.739 296.439 743.849C301.444 728.535 325.906 734.049 326.844 750.239C327.431 747.6 332.534 750.239 331.056 753.583C334.926 752.078 337.534 757.124 335.115 759.86C339.398 760.916 339.872 764.71 331.056 767.72C322.241 770.73 306.137 770.08 299.88 770.08C293.623 770.08 265.877 767.493 252.792 770.08Z" fill="url(#paint53_linear_653_7842)"/>
<path d="M782.51 756.847C795.244 758.8 795.409 749.216 784.737 748.53C788.734 746.996 786.286 743.14 783.291 743.882C792.44 740.311 782.022 729.895 778.067 736.482C781.355 723.947 767.004 719.075 757.798 730.666C758.935 727.016 755.155 724.404 751.756 728.134C749.037 721.303 744.157 725.276 743.331 727.592C742.248 712.857 717.898 719.638 725.173 734.545C722.484 730.762 720.129 735.8 722.938 739.478C719.519 735.001 713.991 736.533 716.996 744.171C708.977 744.332 704.208 751.161 711.696 754.66C719.184 758.158 727.149 756.443 738.882 756.409C750.616 756.374 770.931 755.071 782.51 756.847Z" fill="url(#paint54_linear_653_7842)"/>
<path d="M789.74 818.311C779.618 819.864 779.487 812.247 787.97 811.701C784.792 810.481 786.739 807.417 789.119 808.006C781.847 805.168 790.128 796.889 793.272 802.125C790.658 792.161 802.065 788.289 809.382 797.502C808.478 794.601 811.483 792.525 814.184 795.489C816.346 790.06 820.225 793.217 820.881 795.058C821.742 783.347 841.097 788.736 835.314 800.585C837.452 797.578 839.323 801.582 837.09 804.506C839.808 800.948 844.203 802.165 841.814 808.237C848.188 808.364 851.978 813.793 846.026 816.573C840.074 819.354 833.744 817.991 824.417 817.963C815.091 817.936 798.944 816.9 789.74 818.311Z" fill="url(#paint55_linear_653_7842)"/>
<path d="M364.254 686.278C357.734 684.188 352.116 691.788 365.004 693.083C368.172 693.401 374.694 692.181 385.288 693.246C395.273 694.249 391.508 685.155 384.636 687.664C388.132 685.809 384.245 681.667 379.864 684.647C381.014 677.591 371.489 677.958 369.16 683.571C367.435 680.971 363.469 683.11 364.254 686.278Z" fill="url(#paint56_linear_653_7842)"/>
<path d="M285.001 643.934C278.482 641.844 272.863 649.444 285.752 650.739C288.919 651.058 295.441 649.838 306.036 650.902C316.02 651.906 312.255 642.811 305.383 645.32C308.879 643.465 304.993 639.323 300.611 642.303C301.761 635.248 292.236 635.614 289.907 641.227C288.183 638.627 284.217 640.766 285.001 643.934Z" fill="url(#paint57_linear_653_7842)"/>
<path d="M30.3826 727.845C19.555 724.375 10.2244 736.996 31.6286 739.147C36.889 739.676 47.7196 737.649 65.3141 739.418C81.8954 741.084 75.6426 725.981 64.2302 730.148C70.0365 727.067 63.5821 720.189 56.3056 725.137C58.2161 713.42 42.3979 714.029 38.5295 723.351C35.6655 719.032 29.0791 722.584 30.3826 727.845Z" fill="url(#paint58_linear_653_7842)"/>
<path d="M843.66 705.017C849.515 702.364 855.149 713.134 843.398 714.441C840.51 714.762 834.447 712.819 824.788 713.893C815.684 714.906 818.571 702.418 825.037 706.165C821.711 703.455 825.019 697.851 829.228 702.157C827.73 692.313 836.497 693.186 838.987 701.071C840.407 697.525 844.182 700.647 843.66 705.017Z" fill="url(#paint59_linear_653_7842)"/>
<path d="M578.461 798C584.315 795.346 589.949 806.116 578.199 807.424C575.311 807.745 569.247 805.801 559.588 806.876C550.485 807.889 553.371 795.401 559.837 799.148C556.511 796.438 559.819 790.833 564.029 795.139C562.53 785.295 571.297 786.168 573.788 794.053C575.208 790.507 578.983 793.63 578.461 798Z" fill="url(#paint60_linear_653_7842)"/>
<path d="M621.887 642.75C627.742 640.096 633.376 650.866 621.625 652.174C618.737 652.495 612.674 650.551 603.014 651.626C593.911 652.639 596.798 640.151 603.264 643.898C599.938 641.188 603.246 635.583 607.455 639.889C605.957 630.045 614.724 630.918 617.214 638.803C618.634 635.257 622.409 638.38 621.887 642.75Z" fill="url(#paint61_linear_653_7842)"/>
<path d="M137.126 817.539C131.271 814.885 125.637 825.655 137.388 826.963C140.276 827.284 146.339 825.34 155.999 826.415C165.102 827.428 162.215 814.94 155.749 818.687C159.075 815.977 155.767 810.372 151.558 814.678C153.056 804.834 144.289 805.707 141.799 813.592C140.379 810.046 136.604 813.169 137.126 817.539Z" fill="url(#paint62_linear_653_7842)"/>
<path d="M982.85 748.053C976.996 745.399 971.361 756.169 983.112 757.476C986 757.798 992.064 755.854 1001.72 756.929C1010.83 757.941 1007.94 745.453 1001.47 749.2C1004.8 746.49 1001.49 740.886 997.282 745.192C998.781 735.348 990.014 736.221 987.523 744.106C986.103 740.56 982.328 743.682 982.85 748.053Z" fill="url(#paint63_linear_653_7842)"/>
<path d="M574.299 915.289C588.766 918.15 592.11 907.239 583.545 905.399C601.789 898.851 586.302 880.197 569.999 890.563C573.221 885.066 564.715 881.253 562.044 889.058C562.896 876.619 541.251 868.348 539.467 886.693C539.161 883.257 534.08 885.38 534.598 888.4C533.386 885.104 530.652 887.948 530.652 889.058C525.647 873.744 501.186 879.258 500.247 895.448C499.66 892.809 494.557 895.448 496.035 898.792C492.165 897.287 489.558 902.333 491.976 905.069C487.694 906.125 487.22 909.919 496.035 912.929C504.851 915.939 520.954 915.289 527.211 915.289C533.469 915.289 561.214 912.702 574.299 915.289Z" fill="url(#paint64_linear_653_7842)"/>
<path d="M240.935 966.081C253.669 968.034 253.834 958.451 243.162 957.765C247.159 956.23 244.711 952.375 241.716 953.116C250.865 949.546 240.447 939.129 236.492 945.717C239.78 933.181 225.429 928.31 216.223 939.901C217.36 936.251 213.58 933.639 210.181 937.369C207.462 930.538 202.582 934.511 201.756 936.827C200.673 922.092 176.323 928.873 183.598 943.78C180.909 939.997 178.554 945.035 181.363 948.712C177.944 944.236 172.416 945.768 175.421 953.406C167.402 953.567 162.633 960.396 170.121 963.894C177.609 967.393 185.574 965.678 197.307 965.643C209.041 965.609 229.356 964.306 240.935 966.081Z" fill="url(#paint65_linear_653_7842)"/>
<path d="M845.426 974.064C835.304 975.616 835.173 967.999 843.656 967.453C840.478 966.234 842.424 963.169 844.804 963.759C837.533 960.921 845.813 952.641 848.957 957.877C846.344 947.913 857.751 944.041 865.068 953.254C864.164 950.353 867.169 948.277 869.87 951.241C872.031 945.812 875.911 948.97 876.567 950.811C877.427 939.099 896.783 944.489 891 956.338C893.137 953.331 895.009 957.335 892.776 960.258C895.494 956.7 899.888 957.918 897.499 963.989C903.874 964.117 907.664 969.545 901.712 972.326C895.76 975.106 889.43 973.743 880.103 973.716C870.776 973.688 854.629 972.652 845.426 974.064Z" fill="url(#paint66_linear_653_7842)"/>
<path d="M364.254 865.366C357.734 863.276 352.116 870.876 365.004 872.171C368.172 872.489 374.694 871.269 385.288 872.334C395.273 873.337 391.508 864.243 384.636 866.752C388.132 864.897 384.245 860.755 379.864 863.735C381.014 856.679 371.489 857.046 369.16 862.659C367.435 860.059 363.469 862.198 364.254 865.366Z" fill="url(#paint67_linear_653_7842)"/>
<path d="M285.001 823.022C278.482 820.932 272.863 828.532 285.752 829.827C288.919 830.146 295.441 828.925 306.036 829.99C316.02 830.994 312.255 821.899 305.383 824.408C308.879 822.553 304.993 818.411 300.611 821.391C301.761 814.335 292.236 814.702 289.907 820.315C288.183 817.715 284.217 819.854 285.001 823.022Z" fill="url(#paint68_linear_653_7842)"/>
<path d="M30.3826 906.933C19.555 903.463 10.2244 916.084 31.6286 918.235C36.889 918.764 47.7196 916.737 65.3141 918.505C81.8954 920.172 75.6426 905.069 64.2302 909.236C70.0365 906.155 63.5821 899.276 56.3056 904.225C58.2161 892.508 42.3979 893.117 38.5295 902.439C35.6655 898.12 29.0791 901.672 30.3826 906.933Z" fill="url(#paint69_linear_653_7842)"/>
<path d="M714.134 876.838C719.989 874.184 725.623 884.954 713.872 886.261C710.984 886.583 704.921 884.639 695.262 885.714C686.158 886.727 689.045 874.239 695.511 877.986C692.185 875.275 695.493 869.671 699.702 873.977C698.204 864.133 706.971 865.006 709.461 872.891C710.881 869.345 714.656 872.467 714.134 876.838Z" fill="url(#paint70_linear_653_7842)"/>
<path d="M469.134 969.838C474.989 967.184 480.623 977.954 468.872 979.261C465.984 979.583 459.921 977.639 450.262 978.714C441.158 979.727 444.045 967.239 450.511 970.986C447.185 968.275 450.493 962.671 454.702 966.977C453.204 957.133 461.971 958.006 464.461 965.891C465.881 962.345 469.656 965.467 469.134 969.838Z" fill="url(#paint71_linear_653_7842)"/>
<path d="M621.887 821.838C627.742 819.184 633.376 829.954 621.625 831.261C618.737 831.583 612.674 829.639 603.014 830.714C593.911 831.727 596.798 819.239 603.264 822.986C599.938 820.275 603.246 814.671 607.455 818.977C605.957 809.133 614.724 810.006 617.214 817.891C618.634 814.345 622.409 817.467 621.887 821.838Z" fill="url(#paint72_linear_653_7842)"/>
<path d="M323.119 955.838C317.264 953.184 311.63 963.954 323.381 965.261C326.269 965.583 332.332 963.639 341.991 964.714C351.095 965.727 348.208 953.239 341.742 956.986C345.068 954.275 341.76 948.671 337.551 952.977C339.049 943.133 330.282 944.006 327.792 951.891C326.372 948.345 322.597 951.467 323.119 955.838Z" fill="url(#paint73_linear_653_7842)"/>
<path d="M982.85 927.14C976.996 924.487 971.361 935.257 983.112 936.564C986 936.886 992.064 934.942 1001.72 936.017C1010.83 937.029 1007.94 924.541 1001.47 928.288C1004.8 925.578 1001.49 919.974 997.282 924.28C998.781 914.436 990.014 915.309 987.523 923.194C986.103 919.648 982.328 922.77 982.85 927.14Z" fill="url(#paint74_linear_653_7842)"/>
<ellipse cx="4.00129" cy="2.36074" rx="4.00129" ry="2.36074" transform="matrix(0.979879 0.199594 -0.199596 0.979878 758.065 658.895)" fill="url(#paint75_linear_653_7842)"/>
<ellipse cx="3.30402" cy="1.85722" rx="3.30402" ry="1.85722" transform="matrix(0.979879 0.199594 -0.199596 0.979878 793.379 661.041)" fill="url(#paint76_linear_653_7842)"/>
<ellipse cx="4.24564" cy="1.85722" rx="4.24564" ry="1.85722" transform="matrix(0.994145 0.108058 -0.10806 0.994144 775.143 668.361)" fill="url(#paint77_linear_653_7842)"/>
<ellipse cx="271.578" cy="666" rx="4.00129" ry="2.36074" transform="rotate(-2.23705 271.578 666)" fill="url(#paint78_linear_653_7842)"/>
<ellipse cx="51.1905" cy="807.138" rx="4.00129" ry="2.36074" transform="rotate(-2.23704 51.1905 807.138)" fill="url(#paint79_linear_653_7842)"/>
<ellipse cx="973.997" cy="774.568" rx="4.00129" ry="2.36074" transform="rotate(-2.23704 973.997 774.568)" fill="url(#paint80_linear_653_7842)"/>
<ellipse cx="540.466" cy="731.259" rx="4.00129" ry="2.36074" transform="rotate(-2.23705 540.466 731.259)" fill="url(#paint81_linear_653_7842)"/>
<ellipse cx="501.048" cy="664.918" rx="4.00129" ry="2.36074" transform="rotate(-2.23705 501.048 664.918)" fill="url(#paint82_linear_653_7842)"/>
<ellipse cx="200.066" cy="716.224" rx="4.00129" ry="1.67831" transform="rotate(-2.23705 200.066 716.224)" fill="url(#paint83_linear_653_7842)"/>
<ellipse cx="942.298" cy="820.568" rx="4.00129" ry="1.67831" transform="rotate(-2.23704 942.298 820.568)" fill="url(#paint84_linear_653_7842)"/>
<ellipse cx="649.172" cy="670.745" rx="4.00129" ry="1.67831" transform="rotate(-2.23705 649.172 670.745)" fill="url(#paint85_linear_653_7842)"/>
<ellipse cx="399.471" cy="780.396" rx="4.00129" ry="1.67831" transform="rotate(-2.23704 399.471 780.396)" fill="url(#paint86_linear_653_7842)"/>
<ellipse cx="91.1454" cy="804.284" rx="4.00129" ry="1.67831" transform="rotate(-2.23704 91.1454 804.284)" fill="url(#paint87_linear_653_7842)"/>
<ellipse cx="283.044" cy="680.279" rx="4.66198" ry="1.85722" transform="rotate(0.309741 283.044 680.279)" fill="url(#paint88_linear_653_7842)"/>
<ellipse cx="62.6559" cy="821.416" rx="4.66198" ry="1.85722" transform="rotate(0.309741 62.6559 821.416)" fill="url(#paint89_linear_653_7842)"/>
<ellipse cx="550.707" cy="747.81" rx="4.66198" ry="2.17532" transform="rotate(0.309741 550.707 747.81)" fill="url(#paint90_linear_653_7842)"/>
<ellipse cx="985.462" cy="788.841" rx="4.66198" ry="1.85722" transform="rotate(0.309741 985.462 788.841)" fill="url(#paint91_linear_653_7842)"/>
<ellipse cx="509.229" cy="687.978" rx="4.66198" ry="2.17532" transform="rotate(0.309741 509.229 687.978)" fill="url(#paint92_linear_653_7842)"/>
<ellipse cx="254.769" cy="671.487" rx="4.24564" ry="1.85722" transform="rotate(0.274423 254.769 671.487)" fill="url(#paint93_linear_653_7842)"/>
<ellipse cx="525.32" cy="736.794" rx="4.24564" ry="1.85722" transform="rotate(0.274423 525.32 736.794)" fill="url(#paint94_linear_653_7842)"/>
<ellipse cx="528.298" cy="720.856" rx="4.24564" ry="1.85722" transform="rotate(0.274423 528.298 720.856)" fill="url(#paint95_linear_653_7842)"/>
<ellipse cx="34.3811" cy="812.622" rx="4.24564" ry="1.85722" transform="rotate(0.274422 34.3811 812.622)" fill="url(#paint96_linear_653_7842)"/>
<ellipse cx="957.187" cy="780.049" rx="4.24564" ry="1.85722" transform="rotate(0.274422 957.187 780.049)" fill="url(#paint97_linear_653_7842)"/>
<ellipse cx="483.842" cy="676.956" rx="4.24564" ry="1.85722" transform="rotate(0.274423 483.842 676.956)" fill="url(#paint98_linear_653_7842)"/>
<ellipse cx="486.819" cy="661.02" rx="4.24564" ry="1.85722" transform="rotate(0.274423 486.819 661.02)" fill="url(#paint99_linear_653_7842)"/>
<ellipse cx="181.703" cy="722.917" rx="3.56281" ry="1.85722" transform="rotate(0.274423 181.703 722.917)" fill="url(#paint100_linear_653_7842)"/>
<ellipse cx="923.934" cy="827.259" rx="3.56281" ry="1.85722" transform="rotate(0.274422 923.934 827.259)" fill="url(#paint101_linear_653_7842)"/>
<ellipse cx="630.808" cy="677.447" rx="3.56281" ry="1.85722" transform="rotate(0.274423 630.808 677.447)" fill="url(#paint102_linear_653_7842)"/>
<ellipse cx="381.107" cy="787.093" rx="3.56281" ry="1.85722" transform="rotate(0.274422 381.107 787.093)" fill="url(#paint103_linear_653_7842)"/>
<ellipse cx="72.7815" cy="810.976" rx="3.56281" ry="1.85722" transform="rotate(0.274422 72.7815 810.976)" fill="url(#paint104_linear_653_7842)"/>
<path d="M321.081 626.571C321.081 624.173 323.026 622.229 325.424 622.229H691.289C693.688 622.229 695.632 624.173 695.632 626.571V628.742C695.632 629.342 695.146 629.828 694.546 629.828H322.167C321.567 629.828 321.081 629.342 321.081 628.742V626.571Z" fill="#7A9597"/>
<rect x="325.424" y="516.924" width="365.865" height="105.308" fill="#ECDEAB"/>
<rect x="328.682" y="521.266" width="359.352" height="96.6226" rx="2.1713" fill="#F5E7B2"/>
<path d="M389.478 537.538C389.478 536.339 390.45 535.367 391.649 535.367H423.133C424.332 535.367 425.304 536.339 425.304 537.538V586.393H389.478V537.538Z" fill="#C9736D"/>
<rect x="386.221" y="586.396" width="42.3405" height="8.68518" rx="2.1713" fill="#B14C55"/>
<path d="M392.734 539.709C392.734 539.109 393.221 538.623 393.82 538.623H420.962C421.561 538.623 422.047 539.109 422.047 539.709V586.392H392.734V539.709Z" fill="#38C0DE"/>
<rect x="392.734" y="561.422" width="29.3127" height="2.1713" fill="#FEFFFF"/>
<rect x="405.762" y="538.623" width="3.25696" height="47.7685" fill="#FEFFFF"/>
<path opacity="0.4" d="M397.076 553.82C397.076 553.22 397.562 552.734 398.162 552.734H417.704C418.303 552.734 418.789 553.22 418.789 553.82V586.389H397.076V553.82Z" fill="white"/>
<path d="M336.28 537.538C336.28 536.339 337.253 535.367 338.452 535.367H369.936C371.135 535.367 372.107 536.339 372.107 537.538V586.393H336.28V537.538Z" fill="#C9736D"/>
<rect x="333.024" y="586.396" width="42.3405" height="8.68518" rx="2.1713" fill="#B14C55"/>
<path d="M339.537 539.709C339.537 539.109 340.024 538.623 340.623 538.623H367.764C368.364 538.623 368.85 539.109 368.85 539.709V586.392H339.537V539.709Z" fill="#38C0DE"/>
<path opacity="0.4" d="M342.794 558.168C342.794 557.568 343.28 557.082 343.88 557.082H363.422C364.021 557.082 364.507 557.568 364.507 558.168V586.395H342.794V558.168Z" fill="white"/>
<path opacity="0.4" d="M397.077 553.82C397.077 553.22 397.563 552.734 398.163 552.734H417.705C418.304 552.734 418.79 553.22 418.79 553.82V586.389H397.077V553.82Z" fill="white"/>
<rect x="339.537" y="561.422" width="29.3127" height="2.1713" fill="#FEFFFF"/>
<rect x="352.565" y="538.623" width="3.25696" height="47.7685" fill="#FEFFFF"/>
<path d="M645.692 537.538C645.692 536.339 646.664 535.367 647.863 535.367H679.347C680.546 535.367 681.518 536.339 681.518 537.538V586.393H645.692V537.538Z" fill="#C9736D"/>
<rect x="642.435" y="586.396" width="42.3405" height="8.68518" rx="2.1713" fill="#B14C55"/>
<path d="M648.949 539.709C648.949 539.109 649.435 538.623 650.034 538.623H677.176C677.775 538.623 678.261 539.109 678.261 539.709V586.392H648.949V539.709Z" fill="#38C0DE"/>
<rect x="648.948" y="561.422" width="29.3127" height="2.1713" fill="#FEFFFF"/>
<rect x="661.976" y="538.623" width="3.25696" height="47.7685" fill="#FEFFFF"/>
<path opacity="0.4" d="M653.291 558.168C653.291 557.568 653.777 557.082 654.376 557.082H673.918C674.518 557.082 675.004 557.568 675.004 558.168V586.395H653.291V558.168Z" fill="white"/>
<path d="M592.494 537.538C592.494 536.339 593.466 535.367 594.665 535.367H626.149C627.348 535.367 628.32 536.339 628.32 537.538V586.393H592.494V537.538Z" fill="#C9736D"/>
<rect x="589.237" y="586.396" width="42.3405" height="8.68518" rx="2.1713" fill="#B14C55"/>
<path d="M595.751 539.709C595.751 539.109 596.237 538.623 596.836 538.623H623.978C624.577 538.623 625.063 539.109 625.063 539.709V586.392H595.751V539.709Z" fill="#38C0DE"/>
<rect x="595.751" y="561.422" width="29.3127" height="2.1713" fill="#FEFFFF"/>
<rect x="608.778" y="538.623" width="3.25696" height="47.7685" fill="#FEFFFF"/>
<path opacity="0.4" d="M600.093 553.82C600.093 553.22 600.579 552.734 601.179 552.734H620.72C621.32 552.734 621.806 553.22 621.806 553.82V586.389H600.093V553.82Z" fill="white"/>
<rect x="296.111" y="503.898" width="424.491" height="13.0278" rx="2.1713" fill="#611F1B"/>
<path fill-rule="evenodd" clip-rule="evenodd" d="M357.713 396.418C356.544 396.418 355.465 397.044 354.885 398.059L293.468 505.538C292.807 506.694 292.943 508.001 293.591 508.97L298.612 506.607C299.197 506.332 299.875 506.332 300.461 506.607L307.667 509.998C308.253 510.274 308.931 510.274 309.516 509.998L316.723 506.607C317.308 506.332 317.986 506.332 318.572 506.607L326.655 510.411H326.751L334.834 506.607C335.42 506.332 336.098 506.332 336.683 506.607L343.89 509.998C344.475 510.274 345.153 510.274 345.739 509.998L352.945 506.607C353.531 506.332 354.209 506.332 354.794 506.607L362.877 510.411H362.973L371.056 506.607C371.642 506.332 372.32 506.332 372.905 506.607L380.112 509.998C380.697 510.274 381.375 510.274 381.961 509.998L389.167 506.607C389.753 506.332 390.431 506.332 391.017 506.607L399.1 510.411H399.195L407.279 506.607C407.864 506.332 408.542 506.332 409.128 506.607L416.334 509.998C416.92 510.274 417.598 510.274 418.183 509.998L425.39 506.607C425.975 506.332 426.653 506.332 427.239 506.607L435.322 510.411H435.418L443.501 506.607C444.086 506.332 444.764 506.332 445.35 506.607L452.556 509.998C453.142 510.274 453.82 510.274 454.406 509.998L461.612 506.607C462.198 506.332 462.876 506.332 463.461 506.607L471.544 510.411H471.64L479.723 506.607C480.309 506.332 480.987 506.332 481.572 506.607L488.779 509.998C489.364 510.274 490.042 510.274 490.628 509.998L497.834 506.607C498.42 506.332 499.098 506.332 499.683 506.607L507.767 510.411H507.862L515.945 506.607C516.531 506.332 517.209 506.332 517.795 506.607L525.001 509.998C525.587 510.274 526.265 510.274 526.85 509.998L534.057 506.607C534.642 506.332 535.32 506.332 535.906 506.607L543.989 510.411H544.085L552.168 506.607C552.753 506.332 553.431 506.332 554.017 506.607L561.223 509.998C561.809 510.274 562.487 510.274 563.072 509.998L570.279 506.607C570.864 506.332 571.542 506.332 572.128 506.607L580.211 510.411H580.307L588.39 506.607C588.976 506.332 589.654 506.332 590.239 506.607L597.446 509.998C598.031 510.274 598.709 510.274 599.295 509.998L606.501 506.607C607.087 506.332 607.765 506.332 608.35 506.607L616.433 510.411H616.529L624.612 506.607C625.198 506.332 625.876 506.332 626.461 506.607L633.668 509.998C634.253 510.274 634.931 510.274 635.517 509.998L642.723 506.607C643.309 506.332 643.987 506.332 644.573 506.607L652.656 510.411H652.751L660.835 506.607C661.42 506.332 662.098 506.332 662.684 506.607L669.89 509.998C670.476 510.274 671.154 510.274 671.739 509.998L678.946 506.607C679.531 506.332 680.209 506.332 680.795 506.607L688.878 510.411H688.974L697.057 506.607C697.642 506.332 698.32 506.332 698.906 506.607L706.112 509.998C706.698 510.274 707.376 510.274 707.961 509.998L715.168 506.607C715.754 506.332 716.432 506.332 717.017 506.607L722.831 509.343C723.72 508.357 723.996 506.851 723.246 505.538L661.829 398.059C661.249 397.044 660.17 396.418 659.001 396.418H357.713Z" fill="#7C312C"/>
<path d="M658.72 403.479L715.174 501.73L709.745 503.901L653.291 403.479H658.72Z" fill="#8F413C"/>
<path d="M357.994 403.479L301.54 501.73L306.968 503.901L363.422 403.479H357.994Z" fill="#762B26"/>
<path d="M636.464 424.104L677.176 501.727L671.748 503.899L631.036 424.104H636.464Z" fill="#8F413C"/>
<path d="M380.25 424.104L339.538 501.727L344.966 503.899L385.678 424.104H380.25Z" fill="#762B26"/>
<path d="M668.491 453.961L695.632 502.815L690.204 504.986L663.063 453.961H668.491Z" fill="#8F413C"/>
<path d="M348.223 453.961L321.082 502.815L326.51 504.986L353.651 453.961H348.223Z" fill="#762B26"/>
<path d="M641.35 468.074L657.634 502.815L652.206 504.986L635.921 468.074H641.35Z" fill="#8F413C"/>
<path d="M375.365 468.074L359.08 502.815L364.508 504.986L380.793 468.074H375.365Z" fill="#762B26"/>
<rect x="355.823" y="385.562" width="305.069" height="10.8565" rx="2.1713" fill="#C66C6C"/>
<path d="M435.075 478.927L508.357 423.559L581.638 478.927V648.288H435.075V478.927Z" fill="#F1E2BE"/>
<path d="M447.018 481.795C447.018 481.114 447.338 480.473 447.881 480.062L507.049 435.405C507.824 434.821 508.891 434.821 509.665 435.405L568.834 480.062C569.377 480.473 569.697 481.114 569.697 481.795V641.777C569.697 642.976 568.725 643.948 567.526 643.948H449.189C447.99 643.948 447.018 642.976 447.018 641.777V481.795Z" fill="#FFF1D1"/>
<path d="M574.039 473.501C574.039 472.302 575.011 471.33 576.211 471.33H579.468C580.667 471.33 581.639 472.302 581.639 473.501V649.376C581.639 649.976 581.153 650.462 580.553 650.462H575.125C574.525 650.462 574.039 649.976 574.039 649.376V473.501Z" fill="#AD4854"/>
<path d="M435.075 473.501C435.075 472.302 436.047 471.33 437.246 471.33H440.503C441.703 471.33 442.675 472.302 442.675 473.501V649.376C442.675 649.976 442.189 650.462 441.589 650.462H436.161C435.561 650.462 435.075 649.976 435.075 649.376V473.501Z" fill="#AD4854"/>
<rect x="432.904" y="542.982" width="150.906" height="11.9421" rx="2.1713" fill="#C66C6C"/>
<rect x="490.443" y="446.359" width="35.8266" height="35.8264" rx="17.9132" fill="#CB756D"/>
<rect x="494.786" y="450.701" width="27.1413" height="27.1412" rx="13.5706" fill="#37C0DE"/>
<path opacity="0.4" fill-rule="evenodd" clip-rule="evenodd" d="M521.388 468.072C519.744 473.717 514.532 477.842 508.356 477.842C502.18 477.842 496.968 473.717 495.325 468.071C496.968 462.426 502.181 458.301 508.356 458.301C514.532 458.301 519.745 462.426 521.388 468.072Z" fill="white"/>
<rect x="506.729" y="450.701" width="3.25696" height="27.1412" fill="#FEFFFF"/>
<rect x="494.786" y="462.643" width="27.1413" height="3.25694" fill="#FEFFFF"/>
<path d="M479.587 579.89C479.587 578.691 480.559 577.719 481.758 577.719H534.955C536.155 577.719 537.127 578.691 537.127 579.89V648.286H479.587V579.89Z" fill="#B24C55"/>
<mask id="path-199-inside-1_653_7842" fill="white">
<path d="M508.9 582.061H532.785C533.384 582.061 533.87 582.547 533.87 583.146V648.285H508.9V582.061Z"/>
</mask>
<path d="M508.9 582.061H532.785C533.384 582.061 533.87 582.547 533.87 583.146V648.285H508.9V582.061Z" fill="#FFA487"/>
<path d="M508.9 582.061H533.87H508.9ZM533.87 648.285H508.9H533.87ZM507.815 648.285V582.061H509.986V648.285H507.815ZM533.87 582.061V648.285V582.061Z" fill="#9A5555" mask="url(#path-199-inside-1_653_7842)"/>
<rect x="513.243" y="587.486" width="16.2848" height="19.5417" rx="1.08565" fill="#F4CBBE"/>
<rect x="515.414" y="589.66" width="11.9422" height="15.1991" rx="1.08565" fill="#37C0DE"/>
<rect x="513.243" y="613.543" width="4.34261" height="4.34259" rx="2.1713" fill="#7C312C"/>
<path d="M483.93 583.146C483.93 582.547 484.416 582.061 485.016 582.061H508.9V648.285H483.93V583.146Z" fill="#FFA487"/>
<rect x="501.301" y="613.543" width="4.34261" height="4.34259" rx="2.1713" fill="#7C312C"/>
<rect x="488.273" y="587.484" width="16.2848" height="19.5417" rx="1.08565" fill="#F4CBBE"/>
<rect x="490.444" y="589.66" width="11.9422" height="15.1991" rx="1.08565" fill="#37C0DE"/>
<path opacity="0.4" d="M494.786 595.092C494.786 594.492 495.273 594.006 495.872 594.006H499.129C499.729 594.006 500.215 594.492 500.215 595.092V604.862H494.786V595.092Z" fill="white"/>
<path opacity="0.4" d="M517.586 597.261C517.586 596.662 518.072 596.176 518.671 596.176H523.014C523.613 596.176 524.1 596.662 524.1 597.261V604.861H517.586V597.261Z" fill="white"/>
<g opacity="0.4">
<rect x="450.275" y="579.898" width="15.1992" height="8.68518" rx="1.08565" fill="#EBE0BE" style="mix-blend-mode:multiply"/>
</g>
<g opacity="0.4">
<rect x="448.103" y="465.908" width="15.1992" height="8.68518" rx="1.08565" fill="#EBE0BE" style="mix-blend-mode:multiply"/>
</g>
<g opacity="0.4">
<rect x="552.327" y="584.242" width="15.1992" height="8.68518" rx="1.08565" fill="#EBE0BE" style="mix-blend-mode:multiply"/>
</g>
<g opacity="0.4">
<rect x="669.577" y="605.953" width="15.1992" height="8.68518" rx="1.08565" fill="#EBE0BE" style="mix-blend-mode:multiply"/>
</g>
<g opacity="0.4">
<rect x="450.275" y="521.279" width="15.1992" height="8.68518" rx="1.08565" fill="#EBE0BE" style="mix-blend-mode:multiply"/>
</g>
<g opacity="0.4">
<rect x="331.939" y="597.275" width="15.1992" height="8.68518" rx="1.08565" fill="#EBE0BE" style="mix-blend-mode:multiply"/>
</g>
<g opacity="0.4">
<rect x="589.239" y="598.354" width="15.1992" height="8.68518" rx="1.08565" fill="#EBE0BE" style="mix-blend-mode:multiply"/>
</g>
<g opacity="0.4">
<rect x="417.705" y="523.443" width="15.1992" height="8.68518" rx="1.08565" fill="#EBE0BE" style="mix-blend-mode:multiply"/>
</g>
<g opacity="0.4">
<rect x="450.276" y="590.758" width="9.77088" height="8.68518" rx="1.08565" fill="#EBE0BE" style="mix-blend-mode:multiply"/>
</g>
<g opacity="0.4">
<rect x="331.939" y="608.123" width="9.77088" height="8.68518" rx="1.08565" fill="#EBE0BE" style="mix-blend-mode:multiply"/>
</g>
<g opacity="0.4">
<rect x="607.695" y="598.354" width="9.77088" height="8.68518" rx="1.08565" fill="#EBE0BE" style="mix-blend-mode:multiply"/>
</g>
<g opacity="0.4">
<rect x="540.384" y="456.135" width="14.1135" height="8.68518" rx="1.08565" fill="#EBE0BE" style="mix-blend-mode:multiply"/>
</g>
<g opacity="0.4">
<rect x="542.555" y="632.008" width="9.77088" height="8.68518" rx="1.08565" fill="#EBE0BE" style="mix-blend-mode:multiply"/>
</g>
<g opacity="0.4">
<rect x="557.755" y="572.299" width="9.77088" height="8.68518" rx="1.08565" fill="#EBE0BE" style="mix-blend-mode:multiply"/>
</g>
<g opacity="0.4">
<rect x="557.755" y="503.902" width="9.77088" height="8.68518" rx="1.08565" fill="#EBE0BE" style="mix-blend-mode:multiply"/>
</g>
<g opacity="0.4">
<rect x="450.275" y="629.838" width="15.1992" height="8.68518" rx="1.08565" fill="#EBE0BE" style="mix-blend-mode:multiply"/>
</g>
<rect width="68.3962" height="7.59953" rx="2.1713" transform="matrix(1 0 0 -1 474.159 655.887)" fill="#7A9597"/>
<rect x="432.904" y="489.783" width="150.906" height="11.9421" rx="2.1713" fill="#C66C6C"/>
<rect x="437.247" y="491.953" width="5.42827" height="2.1713" rx="1.08565" fill="#DF847D"/>
<rect x="520.842" y="387.732" width="23.8844" height="2.1713" rx="1.08565" fill="#DF847D"/>
<rect x="444.846" y="491.953" width="111.822" height="2.1713" rx="1.08565" fill="#DF847D"/>
<rect x="546.898" y="387.732" width="111.822" height="2.1713" rx="1.08565" fill="#DF847D"/>
<rect x="437.247" y="545.152" width="5.42827" height="2.1713" rx="1.08565" fill="#DF847D"/>
<rect x="444.846" y="545.152" width="33.6553" height="2.1713" rx="1.08565" fill="#DF847D"/>
<rect width="126.492" height="13.5754" rx="2.1713" transform="matrix(0.798637 -0.601813 0.601817 0.798634 407.935 486.652)" fill="#C66C6C"/>
<rect width="126.492" height="13.5754" rx="2.1713" transform="matrix(-0.798637 -0.601813 -0.601817 0.798634 609.406 486.652)" fill="#C66C6C"/>
<rect width="5.66986" height="2.3461" rx="1.17305" transform="matrix(-0.798637 -0.601813 -0.601817 0.798634 513.755 417.199)" fill="#DF847D"/>
<rect width="44.852" height="2.3461" rx="1.17305" transform="matrix(-0.798637 -0.601813 -0.601817 0.798634 551.541 445.656)" fill="#DF847D"/>
<rect x="465.474" y="532.115" width="85.7666" height="33.6551" rx="2.1713" fill="#D0A496"/>
<rect x="468.73" y="535.371" width="79.2527" height="27.1412" rx="2.1713" fill="#F8FDFF"/>
<rect x="410.106" y="362.762" width="5.42827" height="275.754" fill="#BEC0D3"/>
<rect x="413.363" y="363.844" width="1.08565" height="273.583" fill="#D0D3EA"/>
<path d="M409.02 358.415C409.02 357.216 409.993 356.244 411.192 356.244H414.449C415.648 356.244 416.62 357.216 416.62 358.415V361.672C416.62 362.272 416.134 362.758 415.534 362.758H410.106C409.507 362.758 409.02 362.272 409.02 361.672V358.415Z" fill="#BEC0D3"/>
<path d="M413.363 358.416C413.363 357.816 413.849 357.33 414.449 357.33C415.048 357.33 415.534 357.816 415.534 358.416V360.587C415.534 361.187 415.048 361.673 414.449 361.673C413.849 361.673 413.363 361.187 413.363 360.587V358.416Z" fill="#D0D3EA"/>
<path d="M407.935 640.683C407.935 639.484 408.907 638.512 410.106 638.512H415.535C416.734 638.512 417.706 639.484 417.706 640.683V641.769C417.706 642.368 417.22 642.854 416.62 642.854H409.021C408.421 642.854 407.935 642.368 407.935 641.769V640.683Z" fill="#BEC0D3"/>
<path d="M413.363 640.683C413.363 640.084 413.849 639.598 414.449 639.598C415.048 639.598 415.534 640.084 415.534 640.683V641.045C415.534 641.445 415.21 641.769 414.811 641.769H414.087C413.687 641.769 413.363 641.445 413.363 641.045V640.683Z" fill="#D0D3EA"/>
<path d="M342.796 366.894C342.796 366.894 360.166 364.184 369.937 368.702C371.565 351.083 410.106 364.184 410.106 364.184V411.546C410.106 412.264 409.436 412.785 408.75 412.573C399.519 409.73 374.877 400.552 370.355 415.302C370.116 416.08 369.143 416.474 368.405 416.134C359.784 412.166 337.367 416.136 337.367 416.136C349.852 403.035 352.024 383.157 342.796 366.894Z" fill="url(#paint105_linear_653_7842)"/>
<path opacity="0.1" d="M349.852 372.529C349.852 372.529 360.166 369.472 369.937 374.9C371.565 353.73 410.106 369.472 410.106 369.472V373.815C401.964 371.1 373.194 358.072 369.937 379.785C364.509 372.681 349.852 372.529 349.852 372.529Z" fill="white"/>
<path opacity="0.1" d="M350.395 409.642C350.395 409.642 359.623 404.214 369.394 409.642C371.023 388.472 409.564 404.214 409.564 404.214V408.557C401.421 405.842 372.651 392.814 369.394 414.527C363.966 407.423 350.395 409.642 350.395 409.642Z" fill="white"/>
<g opacity="0.15">
<path d="M728.845 264.505L497.501 809.499L160.948 684.65C261.428 555.945 698.674 263.124 710.108 249.251C710.002 249.155 709.905 249.065 709.819 248.982L23.6132 567.401V264.505L703.775 236.646L-9.5 75L233 -7L710.289 218.908L442.5 -7L628.5 1L728.845 218.908L703.775 -24H827L746.116 218.908L958 -33.5L1090.5 75L755.887 236.646L1027.3 198.281V315.531L755.887 248.764L1027.3 424.095L1032.73 604.312L746.116 257.449L985.503 798.1L724.946 812.756L728.845 264.505Z" fill="url(#paint106_radial_653_7842)" style="mix-blend-mode:overlay"/>
</g>
</g>
<defs>
<linearGradient id="paint0_linear_653_7842" x1="504.5" y1="0" x2="504.5" y2="1009" gradientUnits="userSpaceOnUse">
<stop stop-color="#1399E4"/>
<stop offset="1" stop-color="#73D5F4"/>
</linearGradient>
<linearGradient id="paint1_linear_653_7842" x1="521.385" y1="182.539" x2="521.385" y2="808.957" gradientUnits="userSpaceOnUse">
<stop stop-color="white" stop-opacity="0.76"/>
<stop offset="1" stop-color="white"/>
</linearGradient>
<linearGradient id="paint2_linear_653_7842" x1="511.615" y1="245.508" x2="511.615" y2="745.99" gradientUnits="userSpaceOnUse">
<stop stop-color="white" stop-opacity="0.76"/>
<stop offset="1" stop-color="white"/>
</linearGradient>
<linearGradient id="paint3_linear_653_7842" x1="489.902" y1="312.813" x2="489.902" y2="672.162" gradientUnits="userSpaceOnUse">
<stop stop-color="white" stop-opacity="0.76"/>
<stop offset="1" stop-color="white"/>
</linearGradient>
<linearGradient id="paint4_linear_653_7842" x1="585.438" y1="347.559" x2="585.438" y2="706.908" gradientUnits="userSpaceOnUse">
<stop stop-color="white" stop-opacity="0.76"/>
<stop offset="1" stop-color="white"/>
</linearGradient>
<linearGradient id="paint5_linear_653_7842" x1="228.801" y1="497.375" x2="304.002" y2="576.352" gradientUnits="userSpaceOnUse">
<stop stop-color="#A0E87E"/>
<stop offset="0.755" stop-color="#9DF882"/>
<stop offset="1" stop-color="#9CFD84"/>
</linearGradient>
<linearGradient id="paint6_linear_653_7842" x1="272.227" y1="581.519" x2="327.311" y2="621.762" gradientUnits="userSpaceOnUse">
<stop stop-color="#52DE58"/>
<stop offset="1" stop-color="#50F191"/>
</linearGradient>
<linearGradient id="paint7_linear_653_7842" x1="307.399" y1="597.383" x2="339.688" y2="628.508" gradientUnits="userSpaceOnUse">
<stop stop-color="#31C952"/>
<stop offset="1" stop-color="#28BE49"/>
</linearGradient>
<linearGradient id="paint8_linear_653_7842" x1="335.898" y1="393.485" x2="360.79" y2="417.987" gradientUnits="userSpaceOnUse">
<stop stop-color="#A0E87E"/>
<stop offset="0.755" stop-color="#9DF882"/>
<stop offset="1" stop-color="#9CFD84"/>
</linearGradient>
<linearGradient id="paint9_linear_653_7842" x1="436.653" y1="345.675" x2="460.688" y2="406.903" gradientUnits="userSpaceOnUse">
<stop stop-color="#A0E87E"/>
<stop offset="0.755" stop-color="#9DF882"/>
<stop offset="1" stop-color="#9CFD84"/>
</linearGradient>
<linearGradient id="paint10_linear_653_7842" x1="589.635" y1="354.967" x2="589.306" y2="409.458" gradientUnits="userSpaceOnUse">
<stop stop-color="#0FA075"/>
<stop offset="1" stop-color="#0FBF8A"/>
</linearGradient>
<linearGradient id="paint11_linear_653_7842" x1="593.499" y1="329.73" x2="591.922" y2="372.493" gradientUnits="userSpaceOnUse">
<stop stop-color="#0FA075"/>
<stop offset="1" stop-color="#0FBF8A"/>
</linearGradient>
<linearGradient id="paint12_linear_653_7842" x1="595.648" y1="284.931" x2="594.395" y2="341.733" gradientUnits="userSpaceOnUse">
<stop stop-color="#0FA075"/>
<stop offset="1" stop-color="#0FBF8A"/>
</linearGradient>
<linearGradient id="paint13_linear_653_7842" x1="778.067" y1="473.711" x2="778.573" y2="557.528" gradientUnits="userSpaceOnUse">
<stop stop-color="#0FA075"/>
<stop offset="1" stop-color="#0FBF8A"/>
</linearGradient>
<linearGradient id="paint14_linear_653_7842" x1="778.523" y1="428.079" x2="778.939" y2="496.912" gradientUnits="userSpaceOnUse">
<stop stop-color="#0FA075"/>
<stop offset="1" stop-color="#0FBF8A"/>
</linearGradient>
<linearGradient id="paint15_linear_653_7842" x1="781.941" y1="390.986" x2="781.941" y2="445.269" gradientUnits="userSpaceOnUse">
<stop stop-color="#0FA075"/>
<stop offset="1" stop-color="#0FBF8A"/>
</linearGradient>
<linearGradient id="paint16_linear_653_7842" x1="782.484" y1="334.529" x2="782.484" y2="402.925" gradientUnits="userSpaceOnUse">
<stop stop-color="#0FA075"/>
<stop offset="1" stop-color="#0FBF8A"/>
</linearGradient>
<linearGradient id="paint17_linear_653_7842" x1="794.427" y1="579.887" x2="754.801" y2="615.714" gradientUnits="userSpaceOnUse">
<stop stop-color="#A0E87E"/>
<stop offset="1" stop-color="#9CFD84"/>
</linearGradient>
<linearGradient id="paint18_linear_653_7842" x1="730.367" y1="561.611" x2="677.177" y2="633.078" gradientUnits="userSpaceOnUse">
<stop stop-color="#52DE58"/>
<stop offset="1" stop-color="#50F191"/>
</linearGradient>
<linearGradient id="paint19_linear_653_7842" x1="714.159" y1="584.07" x2="684.776" y2="636.342" gradientUnits="userSpaceOnUse">
<stop stop-color="#31C952"/>
<stop offset="1" stop-color="#28BE49"/>
</linearGradient>
<linearGradient id="paint20_linear_653_7842" x1="634.693" y1="661.365" x2="634.693" y2="670.052" gradientUnits="userSpaceOnUse">
<stop stop-color="#2BCE76"/>
<stop offset="1" stop-color="#45DD70" stop-opacity="0.71"/>
</linearGradient>
<linearGradient id="paint21_linear_653_7842" x1="620.372" y1="668.139" x2="620.372" y2="670.473" gradientUnits="userSpaceOnUse">
<stop stop-color="#2BCE76"/>
<stop offset="1" stop-color="#45DD70" stop-opacity="0.71"/>
</linearGradient>
<linearGradient id="paint22_linear_653_7842" x1="629.209" y1="666.197" x2="629.209" y2="670.589" gradientUnits="userSpaceOnUse">
<stop stop-color="#2BCE76"/>
<stop offset="1" stop-color="#45DD70" stop-opacity="0.71"/>
</linearGradient>
<linearGradient id="paint23_linear_653_7842" x1="639.99" y1="666.332" x2="639.99" y2="670.653" gradientUnits="userSpaceOnUse">
<stop stop-color="#2BCE76"/>
<stop offset="1" stop-color="#45DD70" stop-opacity="0.71"/>
</linearGradient>
<linearGradient id="paint24_linear_653_7842" x1="922.391" y1="805.76" x2="922.391" y2="814.447" gradientUnits="userSpaceOnUse">
<stop stop-color="#2BCE76"/>
<stop offset="1" stop-color="#45DD70" stop-opacity="0.71"/>
</linearGradient>
<linearGradient id="paint25_linear_653_7842" x1="908.07" y1="812.531" x2="908.07" y2="814.865" gradientUnits="userSpaceOnUse">
<stop stop-color="#2BCE76"/>
<stop offset="1" stop-color="#45DD70" stop-opacity="0.71"/>
</linearGradient>
<linearGradient id="paint26_linear_653_7842" x1="916.906" y1="810.592" x2="916.906" y2="814.984" gradientUnits="userSpaceOnUse">
<stop stop-color="#2BCE76"/>
<stop offset="1" stop-color="#45DD70" stop-opacity="0.71"/>
</linearGradient>
<linearGradient id="paint27_linear_653_7842" x1="927.688" y1="810.727" x2="927.688" y2="815.048" gradientUnits="userSpaceOnUse">
<stop stop-color="#2BCE76"/>
<stop offset="1" stop-color="#45DD70" stop-opacity="0.71"/>
</linearGradient>
<linearGradient id="paint28_linear_653_7842" x1="217.403" y1="670.053" x2="217.403" y2="678.74" gradientUnits="userSpaceOnUse">
<stop stop-color="#2BCE76"/>
<stop offset="1" stop-color="#45DD70" stop-opacity="0.71"/>
</linearGradient>
<linearGradient id="paint29_linear_653_7842" x1="231.723" y1="676.826" x2="231.723" y2="679.16" gradientUnits="userSpaceOnUse">
<stop stop-color="#2BCE76"/>
<stop offset="1" stop-color="#45DD70" stop-opacity="0.71"/>
</linearGradient>
<linearGradient id="paint30_linear_653_7842" x1="222.886" y1="674.885" x2="222.886" y2="679.277" gradientUnits="userSpaceOnUse">
<stop stop-color="#2BCE76"/>
<stop offset="1" stop-color="#45DD70" stop-opacity="0.71"/>
</linearGradient>
<linearGradient id="paint31_linear_653_7842" x1="212.106" y1="675.02" x2="212.106" y2="679.341" gradientUnits="userSpaceOnUse">
<stop stop-color="#2BCE76"/>
<stop offset="1" stop-color="#45DD70" stop-opacity="0.71"/>
</linearGradient>
<linearGradient id="paint32_linear_653_7842" x1="652.749" y1="785.127" x2="652.749" y2="793.814" gradientUnits="userSpaceOnUse">
<stop stop-color="#2BCE76"/>
<stop offset="1" stop-color="#45DD70" stop-opacity="0.71"/>
</linearGradient>
<linearGradient id="paint33_linear_653_7842" x1="667.07" y1="791.9" x2="667.07" y2="794.234" gradientUnits="userSpaceOnUse">
<stop stop-color="#2BCE76"/>
<stop offset="1" stop-color="#45DD70" stop-opacity="0.71"/>
</linearGradient>
<linearGradient id="paint34_linear_653_7842" x1="658.233" y1="789.959" x2="658.233" y2="794.351" gradientUnits="userSpaceOnUse">
<stop stop-color="#2BCE76"/>
<stop offset="1" stop-color="#45DD70" stop-opacity="0.71"/>
</linearGradient>
<linearGradient id="paint35_linear_653_7842" x1="647.453" y1="790.094" x2="647.453" y2="794.415" gradientUnits="userSpaceOnUse">
<stop stop-color="#2BCE76"/>
<stop offset="1" stop-color="#45DD70" stop-opacity="0.71"/>
</linearGradient>
<linearGradient id="paint36_linear_653_7842" x1="99.0657" y1="789.477" x2="99.0657" y2="798.163" gradientUnits="userSpaceOnUse">
<stop stop-color="#2BCE76"/>
<stop offset="1" stop-color="#45DD70" stop-opacity="0.71"/>
</linearGradient>
<linearGradient id="paint37_linear_653_7842" x1="113.386" y1="796.248" x2="113.386" y2="798.582" gradientUnits="userSpaceOnUse">
<stop stop-color="#2BCE76"/>
<stop offset="1" stop-color="#45DD70" stop-opacity="0.71"/>
</linearGradient>
<linearGradient id="paint38_linear_653_7842" x1="104.549" y1="794.309" x2="104.549" y2="798.7" gradientUnits="userSpaceOnUse">
<stop stop-color="#2BCE76"/>
<stop offset="1" stop-color="#45DD70" stop-opacity="0.71"/>
</linearGradient>
<linearGradient id="paint39_linear_653_7842" x1="93.7696" y1="794.443" x2="93.7696" y2="798.765" gradientUnits="userSpaceOnUse">
<stop stop-color="#2BCE76"/>
<stop offset="1" stop-color="#45DD70" stop-opacity="0.71"/>
</linearGradient>
<linearGradient id="paint40_linear_653_7842" x1="51.4" y1="970.822" x2="51.4" y2="979.509" gradientUnits="userSpaceOnUse">
<stop stop-color="#2BCE76"/>
<stop offset="1" stop-color="#45DD70" stop-opacity="0.71"/>
</linearGradient>
<linearGradient id="paint41_linear_653_7842" x1="65.7204" y1="977.594" x2="65.7204" y2="979.928" gradientUnits="userSpaceOnUse">
<stop stop-color="#2BCE76"/>
<stop offset="1" stop-color="#45DD70" stop-opacity="0.71"/>
</linearGradient>
<linearGradient id="paint42_linear_653_7842" x1="56.8836" y1="975.654" x2="56.8836" y2="980.046" gradientUnits="userSpaceOnUse">
<stop stop-color="#2BCE76"/>
<stop offset="1" stop-color="#45DD70" stop-opacity="0.71"/>
</linearGradient>
<linearGradient id="paint43_linear_653_7842" x1="46.1039" y1="975.789" x2="46.1039" y2="980.11" gradientUnits="userSpaceOnUse">
<stop stop-color="#2BCE76"/>
<stop offset="1" stop-color="#45DD70" stop-opacity="0.71"/>
</linearGradient>
<linearGradient id="paint44_linear_653_7842" x1="382.162" y1="765.998" x2="382.162" y2="776.969" gradientUnits="userSpaceOnUse">
<stop stop-color="#2BCE76"/>
<stop offset="1" stop-color="#45DD70" stop-opacity="0.71"/>
</linearGradient>
<linearGradient id="paint45_linear_653_7842" x1="389.088" y1="772.096" x2="389.088" y2="777.642" gradientUnits="userSpaceOnUse">
<stop stop-color="#2BCE76"/>
<stop offset="1" stop-color="#45DD70" stop-opacity="0.71"/>
</linearGradient>
<linearGradient id="paint46_linear_653_7842" x1="375.473" y1="772.277" x2="375.473" y2="777.735" gradientUnits="userSpaceOnUse">
<stop stop-color="#2BCE76"/>
<stop offset="1" stop-color="#45DD70" stop-opacity="0.71"/>
</linearGradient>
<linearGradient id="paint47_linear_653_7842" x1="947.397" y1="959.4" x2="947.397" y2="970.371" gradientUnits="userSpaceOnUse">
<stop stop-color="#2BCE76"/>
<stop offset="1" stop-color="#45DD70" stop-opacity="0.71"/>
</linearGradient>
<linearGradient id="paint48_linear_653_7842" x1="954.323" y1="965.498" x2="954.323" y2="971.044" gradientUnits="userSpaceOnUse">
<stop stop-color="#2BCE76"/>
<stop offset="1" stop-color="#45DD70" stop-opacity="0.71"/>
</linearGradient>
<linearGradient id="paint49_linear_653_7842" x1="940.708" y1="965.68" x2="940.708" y2="971.137" gradientUnits="userSpaceOnUse">
<stop stop-color="#2BCE76"/>
<stop offset="1" stop-color="#45DD70" stop-opacity="0.71"/>
</linearGradient>
<linearGradient id="paint50_linear_653_7842" x1="777.341" y1="647.662" x2="777.341" y2="658.633" gradientUnits="userSpaceOnUse">
<stop stop-color="#2BCE76"/>
<stop offset="1" stop-color="#45DD70" stop-opacity="0.71"/>
</linearGradient>
<linearGradient id="paint51_linear_653_7842" x1="784.266" y1="653.76" x2="784.266" y2="659.306" gradientUnits="userSpaceOnUse">
<stop stop-color="#2BCE76"/>
<stop offset="1" stop-color="#45DD70" stop-opacity="0.71"/>
</linearGradient>
<linearGradient id="paint52_linear_653_7842" x1="770.652" y1="653.941" x2="770.652" y2="659.399" gradientUnits="userSpaceOnUse">
<stop stop-color="#2BCE76"/>
<stop offset="1" stop-color="#45DD70" stop-opacity="0.71"/>
</linearGradient>
<linearGradient id="paint53_linear_653_7842" x1="286.703" y1="730.791" x2="286.703" y2="770.556" gradientUnits="userSpaceOnUse">
<stop stop-color="#32D055"/>
<stop offset="1" stop-color="#54DB7A"/>
</linearGradient>
<linearGradient id="paint54_linear_653_7842" x1="752.199" y1="720.478" x2="749.744" y2="758.641" gradientUnits="userSpaceOnUse">
<stop stop-color="#32D055"/>
<stop offset="1" stop-color="#54DB7A"/>
</linearGradient>
<linearGradient id="paint55_linear_653_7842" x1="813.832" y1="789.404" x2="815.784" y2="819.738" gradientUnits="userSpaceOnUse">
<stop stop-color="#9CFFB8"/>
<stop offset="1" stop-color="#74F297"/>
</linearGradient>
<linearGradient id="paint56_linear_653_7842" x1="375.373" y1="679.301" x2="373.898" y2="693.977" gradientUnits="userSpaceOnUse">
<stop stop-color="#32D055"/>
<stop offset="1" stop-color="#54DB7A"/>
</linearGradient>
<linearGradient id="paint57_linear_653_7842" x1="296.121" y1="636.957" x2="294.646" y2="651.633" gradientUnits="userSpaceOnUse">
<stop stop-color="#32D055"/>
<stop offset="1" stop-color="#54DB7A"/>
</linearGradient>
<linearGradient id="paint58_linear_653_7842" x1="48.8482" y1="716.259" x2="46.3989" y2="740.631" gradientUnits="userSpaceOnUse">
<stop stop-color="#9CFFB8"/>
<stop offset="1" stop-color="#74F297"/>
</linearGradient>
<linearGradient id="paint59_linear_653_7842" x1="833.015" y1="694.903" x2="835.289" y2="715.343" gradientUnits="userSpaceOnUse">
<stop stop-color="#32D055"/>
<stop offset="1" stop-color="#54DB7A"/>
</linearGradient>
<linearGradient id="paint60_linear_653_7842" x1="567.816" y1="787.885" x2="570.09" y2="808.326" gradientUnits="userSpaceOnUse">
<stop stop-color="#32D055"/>
<stop offset="1" stop-color="#54DB7A"/>
</linearGradient>
<linearGradient id="paint61_linear_653_7842" x1="611.242" y1="632.635" x2="613.516" y2="653.076" gradientUnits="userSpaceOnUse">
<stop stop-color="#32D055"/>
<stop offset="1" stop-color="#54DB7A"/>
</linearGradient>
<linearGradient id="paint62_linear_653_7842" x1="147.771" y1="807.424" x2="145.497" y2="827.865" gradientUnits="userSpaceOnUse">
<stop stop-color="#9CFFB8"/>
<stop offset="1" stop-color="#74F297"/>
</linearGradient>
<linearGradient id="paint63_linear_653_7842" x1="993.495" y1="737.938" x2="991.221" y2="758.378" gradientUnits="userSpaceOnUse">
<stop stop-color="#9CFFB8"/>
<stop offset="1" stop-color="#74F297"/>
</linearGradient>
<linearGradient id="paint64_linear_653_7842" x1="540.388" y1="876" x2="540.388" y2="915.765" gradientUnits="userSpaceOnUse">
<stop stop-color="#32D055"/>
<stop offset="1" stop-color="#54DB7A"/>
</linearGradient>
<linearGradient id="paint65_linear_653_7842" x1="210.624" y1="929.713" x2="208.169" y2="967.876" gradientUnits="userSpaceOnUse">
<stop stop-color="#32D055"/>
<stop offset="1" stop-color="#54DB7A"/>
</linearGradient>
<linearGradient id="paint66_linear_653_7842" x1="869.518" y1="945.157" x2="871.47" y2="975.49" gradientUnits="userSpaceOnUse">
<stop stop-color="#9CFFB8"/>
<stop offset="1" stop-color="#74F297"/>
</linearGradient>
<linearGradient id="paint67_linear_653_7842" x1="375.373" y1="858.389" x2="373.898" y2="873.065" gradientUnits="userSpaceOnUse">
<stop stop-color="#32D055"/>
<stop offset="1" stop-color="#54DB7A"/>
</linearGradient>
<linearGradient id="paint68_linear_653_7842" x1="296.121" y1="816.045" x2="294.646" y2="830.721" gradientUnits="userSpaceOnUse">
<stop stop-color="#32D055"/>
<stop offset="1" stop-color="#54DB7A"/>
</linearGradient>
<linearGradient id="paint69_linear_653_7842" x1="48.8482" y1="895.347" x2="46.3989" y2="919.719" gradientUnits="userSpaceOnUse">
<stop stop-color="#9CFFB8"/>
<stop offset="1" stop-color="#74F297"/>
</linearGradient>
<linearGradient id="paint70_linear_653_7842" x1="703.489" y1="866.723" x2="705.763" y2="887.164" gradientUnits="userSpaceOnUse">
<stop stop-color="#32D055"/>
<stop offset="1" stop-color="#54DB7A"/>
</linearGradient>
<linearGradient id="paint71_linear_653_7842" x1="458.489" y1="959.723" x2="460.763" y2="980.164" gradientUnits="userSpaceOnUse">
<stop stop-color="#32D055"/>
<stop offset="1" stop-color="#54DB7A"/>
</linearGradient>
<linearGradient id="paint72_linear_653_7842" x1="611.242" y1="811.723" x2="613.516" y2="832.164" gradientUnits="userSpaceOnUse">
<stop stop-color="#32D055"/>
<stop offset="1" stop-color="#54DB7A"/>
</linearGradient>
<linearGradient id="paint73_linear_653_7842" x1="333.764" y1="945.723" x2="331.49" y2="966.164" gradientUnits="userSpaceOnUse">
<stop stop-color="#9CFFB8"/>
<stop offset="1" stop-color="#74F297"/>
</linearGradient>
<linearGradient id="paint74_linear_653_7842" x1="993.495" y1="917.026" x2="991.221" y2="937.466" gradientUnits="userSpaceOnUse">
<stop stop-color="#9CFFB8"/>
<stop offset="1" stop-color="#74F297"/>
</linearGradient>
<linearGradient id="paint75_linear_653_7842" x1="4.00129" y1="0" x2="4.00129" y2="4.72148" gradientUnits="userSpaceOnUse">
<stop stop-color="#E3DCC8"/>
<stop offset="1" stop-color="#D5CCB6"/>
</linearGradient>
<linearGradient id="paint76_linear_653_7842" x1="3.30402" y1="0" x2="3.30402" y2="3.71445" gradientUnits="userSpaceOnUse">
<stop stop-color="#E3DCC8"/>
<stop offset="1" stop-color="#D5CCB6"/>
</linearGradient>
<linearGradient id="paint77_linear_653_7842" x1="4.24564" y1="0" x2="4.24564" y2="3.71445" gradientUnits="userSpaceOnUse">
<stop stop-color="#E3DCC8"/>
<stop offset="1" stop-color="#D5CCB6"/>
</linearGradient>
<linearGradient id="paint78_linear_653_7842" x1="271.578" y1="663.639" x2="271.578" y2="668.36" gradientUnits="userSpaceOnUse">
<stop stop-color="#E3DCC8"/>
<stop offset="1" stop-color="#D5CCB6"/>
</linearGradient>
<linearGradient id="paint79_linear_653_7842" x1="51.1905" y1="804.778" x2="51.1905" y2="809.499" gradientUnits="userSpaceOnUse">
<stop stop-color="#E3DCC8"/>
<stop offset="1" stop-color="#D5CCB6"/>
</linearGradient>
<linearGradient id="paint80_linear_653_7842" x1="973.997" y1="772.207" x2="973.997" y2="776.929" gradientUnits="userSpaceOnUse">
<stop stop-color="#E3DCC8"/>
<stop offset="1" stop-color="#D5CCB6"/>
</linearGradient>
<linearGradient id="paint81_linear_653_7842" x1="540.467" y1="728.899" x2="540.467" y2="733.62" gradientUnits="userSpaceOnUse">
<stop stop-color="#E3DCC8"/>
<stop offset="1" stop-color="#D5CCB6"/>
</linearGradient>
<linearGradient id="paint82_linear_653_7842" x1="501.048" y1="662.557" x2="501.048" y2="667.278" gradientUnits="userSpaceOnUse">
<stop stop-color="#E3DCC8"/>
<stop offset="1" stop-color="#D5CCB6"/>
</linearGradient>
<linearGradient id="paint83_linear_653_7842" x1="200.066" y1="714.546" x2="200.066" y2="717.902" gradientUnits="userSpaceOnUse">
<stop stop-color="#E3DCC8"/>
<stop offset="1" stop-color="#D5CCB6"/>
</linearGradient>
<linearGradient id="paint84_linear_653_7842" x1="942.298" y1="818.889" x2="942.298" y2="822.246" gradientUnits="userSpaceOnUse">
<stop stop-color="#E3DCC8"/>
<stop offset="1" stop-color="#D5CCB6"/>
</linearGradient>
<linearGradient id="paint85_linear_653_7842" x1="649.172" y1="669.067" x2="649.172" y2="672.424" gradientUnits="userSpaceOnUse">
<stop stop-color="#E3DCC8"/>
<stop offset="1" stop-color="#D5CCB6"/>
</linearGradient>
<linearGradient id="paint86_linear_653_7842" x1="399.471" y1="778.718" x2="399.471" y2="782.074" gradientUnits="userSpaceOnUse">
<stop stop-color="#E3DCC8"/>
<stop offset="1" stop-color="#D5CCB6"/>
</linearGradient>
<linearGradient id="paint87_linear_653_7842" x1="91.1454" y1="802.606" x2="91.1454" y2="805.963" gradientUnits="userSpaceOnUse">
<stop stop-color="#E3DCC8"/>
<stop offset="1" stop-color="#D5CCB6"/>
</linearGradient>
<linearGradient id="paint88_linear_653_7842" x1="283.044" y1="678.422" x2="283.044" y2="682.136" gradientUnits="userSpaceOnUse">
<stop stop-color="#E3DCC8"/>
<stop offset="1" stop-color="#D5CCB6"/>
</linearGradient>
<linearGradient id="paint89_linear_653_7842" x1="62.6559" y1="819.558" x2="62.6559" y2="823.273" gradientUnits="userSpaceOnUse">
<stop stop-color="#E3DCC8"/>
<stop offset="1" stop-color="#D5CCB6"/>
</linearGradient>
<linearGradient id="paint90_linear_653_7842" x1="550.707" y1="745.635" x2="550.707" y2="749.985" gradientUnits="userSpaceOnUse">
<stop stop-color="#E3DCC8"/>
<stop offset="1" stop-color="#D5CCB6"/>
</linearGradient>
<linearGradient id="paint91_linear_653_7842" x1="985.462" y1="786.984" x2="985.462" y2="790.699" gradientUnits="userSpaceOnUse">
<stop stop-color="#E3DCC8"/>
<stop offset="1" stop-color="#D5CCB6"/>
</linearGradient>
<linearGradient id="paint92_linear_653_7842" x1="509.229" y1="685.803" x2="509.229" y2="690.153" gradientUnits="userSpaceOnUse">
<stop stop-color="#E3DCC8"/>
<stop offset="1" stop-color="#D5CCB6"/>
</linearGradient>
<linearGradient id="paint93_linear_653_7842" x1="254.769" y1="669.63" x2="254.769" y2="673.344" gradientUnits="userSpaceOnUse">
<stop stop-color="#E3DCC8"/>
<stop offset="1" stop-color="#D5CCB6"/>
</linearGradient>
<linearGradient id="paint94_linear_653_7842" x1="525.32" y1="734.936" x2="525.32" y2="738.651" gradientUnits="userSpaceOnUse">
<stop stop-color="#E3DCC8"/>
<stop offset="1" stop-color="#D5CCB6"/>
</linearGradient>
<linearGradient id="paint95_linear_653_7842" x1="528.298" y1="718.999" x2="528.298" y2="722.713" gradientUnits="userSpaceOnUse">
<stop stop-color="#E3DCC8"/>
<stop offset="1" stop-color="#D5CCB6"/>
</linearGradient>
<linearGradient id="paint96_linear_653_7842" x1="34.3811" y1="810.764" x2="34.3811" y2="814.479" gradientUnits="userSpaceOnUse">
<stop stop-color="#E3DCC8"/>
<stop offset="1" stop-color="#D5CCB6"/>
</linearGradient>
<linearGradient id="paint97_linear_653_7842" x1="957.187" y1="778.192" x2="957.187" y2="781.907" gradientUnits="userSpaceOnUse">
<stop stop-color="#E3DCC8"/>
<stop offset="1" stop-color="#D5CCB6"/>
</linearGradient>
<linearGradient id="paint98_linear_653_7842" x1="483.842" y1="675.098" x2="483.842" y2="678.813" gradientUnits="userSpaceOnUse">
<stop stop-color="#E3DCC8"/>
<stop offset="1" stop-color="#D5CCB6"/>
</linearGradient>
<linearGradient id="paint99_linear_653_7842" x1="486.819" y1="659.163" x2="486.819" y2="662.877" gradientUnits="userSpaceOnUse">
<stop stop-color="#E3DCC8"/>
<stop offset="1" stop-color="#D5CCB6"/>
</linearGradient>
<linearGradient id="paint100_linear_653_7842" x1="181.703" y1="721.06" x2="181.703" y2="724.774" gradientUnits="userSpaceOnUse">
<stop stop-color="#E3DCC8"/>
<stop offset="1" stop-color="#D5CCB6"/>
</linearGradient>
<linearGradient id="paint101_linear_653_7842" x1="923.934" y1="825.402" x2="923.934" y2="829.116" gradientUnits="userSpaceOnUse">
<stop stop-color="#E3DCC8"/>
<stop offset="1" stop-color="#D5CCB6"/>
</linearGradient>
<linearGradient id="paint102_linear_653_7842" x1="630.808" y1="675.589" x2="630.808" y2="679.304" gradientUnits="userSpaceOnUse">
<stop stop-color="#E3DCC8"/>
<stop offset="1" stop-color="#D5CCB6"/>
</linearGradient>
<linearGradient id="paint103_linear_653_7842" x1="381.107" y1="785.236" x2="381.107" y2="788.95" gradientUnits="userSpaceOnUse">
<stop stop-color="#E3DCC8"/>
<stop offset="1" stop-color="#D5CCB6"/>
</linearGradient>
<linearGradient id="paint104_linear_653_7842" x1="72.7815" y1="809.119" x2="72.7815" y2="812.833" gradientUnits="userSpaceOnUse">
<stop stop-color="#E3DCC8"/>
<stop offset="1" stop-color="#D5CCB6"/>
</linearGradient>
<linearGradient id="paint105_linear_653_7842" x1="338.453" y1="381.35" x2="414.908" y2="385.911" gradientUnits="userSpaceOnUse">
<stop stop-color="#E11D1D"/>
<stop offset="0.191612" stop-color="#EC4C29"/>
<stop offset="0.412131" stop-color="#E21A1A"/>
<stop offset="0.571752" stop-color="#FC5E3B"/>
<stop offset="0.738317" stop-color="#FA6A4B"/>
<stop offset="1" stop-color="#E11D1D"/>
</linearGradient>
<radialGradient id="paint106_radial_653_7842" cx="0" cy="0" r="1" gradientUnits="userSpaceOnUse" gradientTransform="translate(733.63 236.278) rotate(123.163) scale(523.944 671.043)">
<stop stop-color="#FCFF79"/>
<stop offset="1" stop-color="#FDFFAE" stop-opacity="0"/>
</radialGradient>
</defs>
</svg>
