<svg width="88" height="70" fill="none" xmlns="http://www.w3.org/2000/svg"><path d="M61.094 9.315c.764 0 1.383.619 1.383 1.383v12.92c0 .763-.62 1.382-1.383 1.382h-3.427c-.764 0-1.383-.62-1.383-1.383v-12.92c0-.763.619-1.382 1.383-1.382h3.427Zm1.75 17.357c.764 0 1.383.62 1.383 1.383v23.044c0 .763-.619 1.382-1.383 1.382h-13.57V37.724c0-.57-.463-1.031-1.033-1.031h-8.406c-.57 0-1.032.462-1.032 1.032V52.48H24.837a1.383 1.383 0 0 1-1.384-1.382V28.055c0-.764.62-1.383 1.384-1.383h38.007Z" fill="#C0D0FF"/><path d="M43.625 3.043a.87.87 0 0 1 1.242.01l23.157 23.96a.87.87 0 0 1-.626 1.474H20.375c-.775 0-1.163-.935-.617-1.484l23.867-23.96Z" fill="#C12A71"/><path d="M63.51 2.202c0 1.975-2.294 3.447-3.841 4.779a.768.768 0 0 1-.993.005c-1.599-1.36-3.836-2.801-3.836-4.784 0-2.2 2.71-2.904 4.335-1.41 1.58-1.453 4.335-.79 4.335 1.41Z" fill="#F15F79"/><rect x="27.42" y="35.707" width="7.705" height="7.703" rx=".87" fill="#E65C00"/><rect x="53.633" y="31.222" width="6.193" height="7.636" rx=".87" fill="#3155BE"/><path d="M71.266 50.819a269.61 269.61 0 0 0-3.676 1.636h-.04v-6.398h3.716v4.762Z" fill="#2A824D"/><rect x="61.25" y="30.36" width="16.514" height="16.51" rx="8.255" fill="#E65C00"/><rect width="20.643" height="20.638" rx="10.319" transform="matrix(1 -.00046 .02932 .99957 6.036 17.25)" fill="#F9D423"/><path d="M9.14 55.266c7.077-.154 19.137-.157 26.023 1.303 4.56.966 6.851 2.955 7.991 4.855.165.275 1.76.275 1.925 0 1.14-1.9 3.667-3.889 8.228-4.855 6.654-1.41 18.14-1.456 25.29-1.318-.984-2.88-3.487-5.04-6.679-5.363-5.829-.588-15.207-1.244-28.047-1.244s-22.217.656-28.046 1.244c-3.197.323-5.703 2.491-6.685 5.378Z" fill="#53CC51"/><path fill-rule="evenodd" clip-rule="evenodd" d="M14.486 37.603h4.139v17.622c-1.418-.022-2.809-.03-4.139-.026V37.603Z" fill="#3155BE"/><path d="M1.937 63.103a1.405 1.405 0 0 0-1.082 2.593l36.2.625c.199.085.364.232.488.41a5.133 5.133 0 0 0 4.212 2.2h4.321a5.133 5.133 0 0 0 4.32-2.359 1.15 1.15 0 0 1 .511-.448l35.628-.381c.585-.25.965-.823.965-1.459 0-.94-.955-1.58-1.824-1.222l-36.742.192c-.303.125-.53.39-.704.668-.416.663-1.556 1.797-4.48 1.797-2.77 0-3.79-1.017-4.161-1.69-.185-.332-.429-.667-.782-.81l-36.87-.116Z" fill="#274397"/><path d="M71.718 62.958a.87.87 0 0 1 .815-.85l4.623-.292a.87.87 0 0 1 .923.92l-.329 5.52c-.015.26-.3.41-.523.28l-1.981-1.165a.522.522 0 0 0-.6.05l-2.487 2.086a.348.348 0 0 1-.572-.273l.13-6.276Z" fill="#F15F79"/></svg>