<svg width="279" height="70" fill="none" xmlns="http://www.w3.org/2000/svg">
    <path d="M61.094 9.315c.764 0 1.383.619 1.383 1.383v12.92c0 .763-.62 1.382-1.383 1.382h-3.427c-.764 0-1.383-.62-1.383-1.383v-12.92c0-.763.619-1.382 1.383-1.382h3.427Zm1.75 17.357c.764 0 1.383.62 1.383 1.383v23.044c0 .763-.619 1.382-1.383 1.382h-13.57V37.724c0-.57-.463-1.031-1.033-1.031h-8.406c-.57 0-1.032.462-1.032 1.032V52.48H24.837a1.383 1.383 0 0 1-1.384-1.382V28.055c0-.764.62-1.383 1.384-1.383h38.007Z"
          fill="#C0D0FF"/>
    <path d="M43.625 3.043a.87.87 0 0 1 1.242.01l23.157 23.96a.87.87 0 0 1-.626 1.474H20.375c-.775 0-1.163-.935-.617-1.484l23.867-23.96Z"
          fill="#C12A71"/>
    <path d="M63.51 2.202c0 1.975-2.294 3.447-3.841 4.779a.768.768 0 0 1-.993.005c-1.599-1.36-3.836-2.801-3.836-4.784 0-2.2 2.71-2.904 4.335-1.41 1.58-1.453 4.335-.79 4.335 1.41Z"
          fill="#F15F79"/>
    <rect x="27.42" y="35.707" width="7.705" height="7.703" rx=".87" fill="#E65C00"/>
    <rect x="53.633" y="31.222" width="6.193" height="7.636" rx=".87" fill="#3155BE"/>
    <path d="M71.266 50.819c-1.18.515-2.409 1.06-3.676 1.636h-.04v-6.398h3.716v4.762Z" fill="#2A824D"/>
    <rect x="61.25" y="30.36" width="16.514" height="16.51" rx="8.255" fill="#E65C00"/>
    <rect width="20.643" height="20.638" rx="10.319" transform="matrix(1 -.00046 .02932 .99957 6.036 17.25)"
          fill="#F9D423"/>
    <path d="M9.14 55.266c7.077-.154 19.137-.157 26.023 1.303 4.56.966 6.851 2.955 7.991 4.855.165.275 1.76.275 1.925 0 1.14-1.9 3.667-3.889 8.228-4.855 6.654-1.41 18.14-1.456 25.29-1.318-.984-2.88-3.487-5.04-6.679-5.363-5.829-.588-15.207-1.244-28.047-1.244s-22.217.656-28.046 1.244c-3.197.323-5.704 2.491-6.685 5.378Z"
          fill="#53CC51"/>
    <path fill-rule="evenodd" clip-rule="evenodd"
          d="M14.486 37.603h4.139v17.623c-1.418-.023-2.809-.03-4.139-.027V37.603Z" fill="#3155BE"/>
    <path d="M1.937 63.103a1.405 1.405 0 0 0-1.082 2.593l36.2.625c.199.085.364.232.488.41a5.133 5.133 0 0 0 4.212 2.2h4.321a5.133 5.133 0 0 0 4.32-2.359 1.15 1.15 0 0 1 .511-.448l35.628-.381c.585-.25.965-.823.965-1.459 0-.94-.955-1.58-1.824-1.222l-36.742.192c-.303.125-.53.39-.704.668-.416.663-1.556 1.797-4.48 1.797-2.77 0-3.79-1.017-4.161-1.69-.185-.332-.429-.667-.782-.81l-36.87-.116Z"
          fill="#274397"/>
    <path d="M71.718 62.958a.87.87 0 0 1 .815-.85l4.623-.292a.87.87 0 0 1 .923.92l-.329 5.52c-.015.26-.3.41-.523.28l-1.981-1.165a.522.522 0 0 0-.6.05l-2.487 2.086a.348.348 0 0 1-.572-.274l.13-6.276Z"
          fill="#F15F79"/>
    <path d="M110.82 35.386c0 .223.008.407.024.551l.024 1.248c0 .24-.184.36-.552.36a8.93 8.93 0 0 0-.72.024l-1.32.024c-.208 0-.312-.256-.312-.768l-.024-2.04h-3.6c-1.584 0-2.8.009-3.648.025v1.128c-.016.191-.024.591-.024 1.2 0 .24-.184.36-.552.36H98.34c-.24 0-.4-.04-.48-.12-.064-.08-.096-.233-.096-.456l.024-3.144c0-.752.008-1.337.024-1.752v-.313c0-.128.064-.216.192-.264a1.11 1.11 0 0 1 .456-.096l1.008.024c.112-.24.2-.463.264-.671.384-1.232.632-2.56.744-3.985.128-1.424.192-3.151.192-5.183l.024-1.08c.032-.48.048-.92.048-1.32 0-.449.048-.745.144-.889a.442.442 0 0 1 .384-.215l7.536.024c.256 0 .384.232.384.695v4.416l-.024 2.04.024 4.825v1.344h1.056c.224 0 .376.023.456.072.08.032.12.128.12.288v3.647Zm-8.16-3.96c1.392 0 2.512-.008 3.36-.024v-1.777l.024-2.663v-5.305a89.034 89.034 0 0 0-2.376-.023c-.016 2.288-.12 4.224-.312 5.808-.176 1.584-.464 2.912-.864 3.983h.168Zm18.292 1.896c-.016.223 0 .415.048.575.048.16.072.28.072.36 0 .24-.064.4-.192.48-.128.064-.328.096-.6.096l-1.776-.023-4.2.023-.888.025c-.592 0-.888-.128-.888-.384l.048-4.752.024-4.248-.024-3.313v-3.6c0-.175.032-.303.096-.384.08-.096.224-.151.432-.168.208-.032.544-.047 1.008-.047l2.232.023c.368.017.808.024 1.32.024.208.017.6.024 1.176.024l.84-.048.624-.023c.16 0 .28.04.36.12.096.08.144.24.144.48a3.9 3.9 0 0 1-.048.503l-.072.6c-.016.352-.024.88-.024 1.585 0 .16-.104.271-.312.335-.192.049-.512.072-.96.072l-1.152-.023c-.992 0-1.832.008-2.52.023v4.657c.736.015 1.544.023 2.424.023l1.344.024c.16 0 .28.04.36.12.096.08.144.24.144.48l.024.6c0 .16-.008.297-.024.409-.016.256-.024.48-.024.672v.431c0 .128-.072.209-.216.24a2.416 2.416 0 0 1-.552.049h-.504l-1.92-.024-1.032.047v1.945l1.272.024 2.088-.024.84-.048.624-.024c.16 0 .28.04.36.12.096.08.144.24.144.48 0 .127-.016.4-.048.815l-.072.648Zm10.81-15.289c.16 0 .28.04.36.12.096.08.144.24.144.48v1.105l-.024 1.104c0 .16-.12.271-.36.335-.224.049-.568.073-1.032.073l-1.152-.024h-.648c.016.24.024.608.024 1.104v3.24l.024 6.023c0 1.665-.016 2.632-.048 2.905-.032.175-.072.288-.12.336a.461.461 0 0 1-.24.047l-.624-.023a4.773 4.773 0 0 0-.552-.024l-.84.023c-.528 0-.792-.127-.792-.383l.024-1.536c.016-.209.024-.457.024-.745v-5.111l.024-1.369-.024-2.04v-2.471h-2.88c-.224 0-.336-.209-.336-.625v-2.183c0-.16.032-.256.096-.288.064-.033.2-.057.408-.073l3.096.024 3.984.049.84-.049.624-.023Zm11.077 15.12c0 .257-.192.553-.576.889-.368.335-.872.623-1.512.864a5.83 5.83 0 0 1-2.064.36 4.223 4.223 0 0 1-1.776-.408 6.159 6.159 0 0 1-1.488-.912c-.592-.512-1.096-1.264-1.512-2.256-.416-.992-.624-2.24-.624-3.745 0-3.823.584-6.535 1.752-8.136.976-1.344 2.368-2.015 4.176-2.015.416 0 .872.087 1.368.264.512.16.944.36 1.296.6.352.24.528.44.528.6 0 .32-.096.727-.288 1.224a8.744 8.744 0 0 1-.648 1.344c-.24.383-.432.575-.576.575-.048 0-.128-.032-.24-.096a2.865 2.865 0 0 0-.216-.168 7.265 7.265 0 0 0-.84-.503 1.8 1.8 0 0 0-.816-.192c-.656 0-1.2.511-1.632 1.535-.416 1.008-.624 2.665-.624 4.968 0 .992.184 1.857.552 2.593.384.72.92 1.08 1.608 1.08.352 0 .752-.128 1.2-.384.464-.257.92-.633 1.368-1.129a.296.296 0 0 1 .24-.12c.192 0 .392.2.6.6.208.384.384.832.528 1.345.144.511.216.92.216 1.224Zm11.73.217a.516.516 0 0 1 .096.288c0 .143-.12.295-.36.456-.32.175-.656.328-1.008.456l-.624.215c-.432.193-.744.289-.936.289a.706.706 0 0 1-.48-.192c-.128-.112-.288-.344-.48-.697-.048-.08-.216-.44-.504-1.08-.32-.688-.488-1.04-.504-1.055-.048-.096-.216-.424-.504-.984-.272-.56-.6-1.184-.984-1.872l-.24-.024v.695c0 2.817-.016 4.36-.048 4.633-.032.175-.072.288-.12.336a.461.461 0 0 1-.24.047l-.624-.023a4.773 4.773 0 0 0-.552-.024l-.84.023c-.528 0-.792-.127-.792-.383l.024-1.536c.016-.209.024-.457.024-.745v-2.471l.024-1.369-.024-2.04V18.25c0-.096.16-.169.48-.216.32-.049.672-.072 1.056-.072l.6-.024c.368 0 .616.032.744.096.16.064.24.264.24.6v1.488l.024 1.488v4.704c.176.015.408.023.696.023.704 0 1.24-.247 1.608-.744.384-.512.576-1.328.576-2.448l-.024-2.111v-2.64c0-.144.208-.248.624-.313.416-.08.872-.12 1.368-.12.496 0 .792.024.888.073.16.064.24.264.24.6l.024 1.535v1.753l.024.744c0 1.456-.232 2.727-.696 3.816-.464 1.072-1.144 1.84-2.04 2.303l.936 1.392c.512.736.776 1.137.792 1.2.128.193.376.513.744.96.48.608.744.952.792 1.032Zm11.625-3.504-.024 4.2c0 .543-.16.816-.48.816l-.552-.024a4.138 4.138 0 0 0-.528-.024l-.84.023c-.528 0-.792-.127-.792-.383l.024-1.272c.032-.544.04-.88.024-1.008v-2.737l.048-3.791-.48 1.08a819.471 819.471 0 0 1-2.568 5.76l-.288.6c-.224.527-.432.951-.624 1.271-.176.304-.336.456-.48.456h-1.2c-.4 0-.664-.015-.792-.047-.128-.049-.192-.129-.192-.24l.024-1.584a10.9 10.9 0 0 0 .024-.769v-2.471l.024-1.369-.024-2.04V18.25c0-.096.16-.169.48-.216.32-.049.672-.072 1.056-.072.24-.017.496-.009.768.023.272.017.464.056.576.12.16.064.24.264.24.6v1.417l-.024 3.84.048 2.855.48-1.151a665.857 665.857 0 0 1 1.968-4.608c.672-1.537 1.096-2.44 1.272-2.712a.668.668 0 0 1 .576-.313l.96-.024c.56 0 .896.032 1.008.096.16.096.24.296.24.6v3.84l.024 1.488.024 5.832Zm12.141 0-.024 4.2c0 .543-.16.816-.48.816l-.552-.024a4.138 4.138 0 0 0-.528-.024l-.84.023c-.528 0-.792-.127-.792-.383l.024-1.272c.032-.544.04-.88.024-1.008v-2.737l.048-3.791-.48 1.08a819.471 819.471 0 0 1-2.568 5.76l-.288.6c-.224.527-.432.951-.624 1.271-.176.304-.336.456-.48.456h-1.2c-.4 0-.664-.015-.792-.047-.128-.049-.192-.129-.192-.24l.024-1.584a10.9 10.9 0 0 0 .024-.769v-2.471l.024-1.369-.024-2.04V18.25c0-.096.16-.169.48-.216.32-.049.672-.072 1.056-.072.24-.017.496-.009.768.023.272.017.464.056.576.12.16.064.24.264.24.6v1.417l-.024 3.84.048 2.855.48-1.151a665.857 665.857 0 0 1 1.968-4.608c.672-1.537 1.096-2.44 1.272-2.712a.668.668 0 0 1 .576-.313l.96-.024c.56 0 .896.032 1.008.096.16.096.24.296.24.6v3.84l.024 1.488.024 5.832Zm-3.312-16.92c.048-.128.16-.224.336-.288.192-.08.4-.12.624-.12.208 0 .384.04.528.12a.34.34 0 0 1 .216.335c0 1.184-.296 2.144-.888 2.88-.576.737-1.4 1.104-2.472 1.104a2.89 2.89 0 0 1-1.728-.552 3.925 3.925 0 0 1-1.2-1.488 4.589 4.589 0 0 1-.432-1.944.34.34 0 0 1 .216-.335c.16-.08.352-.12.576-.12.224 0 .432.04.624.12.192.064.32.16.384.287.192.448.4.8.624 1.056.224.24.536.36.936.36.464 0 .816-.128 1.056-.384.256-.271.456-.616.6-1.032ZM194.8 33.153c0 .255-.192.551-.576.887-.368.337-.872.625-1.512.865a5.83 5.83 0 0 1-2.064.36 4.223 4.223 0 0 1-1.776-.408 6.159 6.159 0 0 1-1.488-.912c-.592-.512-1.096-1.264-1.512-2.256-.416-.992-.624-2.24-.624-3.745 0-3.823.584-6.535 1.752-8.136.976-1.344 2.368-2.015 4.176-2.015.416 0 .872.087 1.368.264.512.16.944.36 1.296.6.352.24.528.44.528.6 0 .32-.096.727-.288 1.224a8.744 8.744 0 0 1-.648 1.344c-.24.383-.432.575-.576.575-.048 0-.128-.032-.24-.096a2.865 2.865 0 0 0-.216-.168 7.265 7.265 0 0 0-.84-.503 1.8 1.8 0 0 0-.816-.192c-.656 0-1.2.511-1.632 1.535-.416 1.008-.624 2.665-.624 4.968 0 .992.184 1.857.552 2.593.384.72.92 1.08 1.608 1.08.352 0 .752-.128 1.2-.384.464-.257.92-.633 1.368-1.129a.296.296 0 0 1 .24-.12c.192 0 .392.2.6.6.208.384.384.832.528 1.345.144.511.216.92.216 1.224Zm10.074-13.657c.48.64.872 1.6 1.176 2.88.304 1.265.456 3.12.456 5.569v3.263l-.024 1.488v1.464c0 .337-.08.536-.24.6-.128.064-.376.096-.744.096l-.6-.023c-1.024 0-1.536-.089-1.536-.265v-3.432h-.048c-1.456 0-2.624.008-3.504.024v.048l-.024 1.488v1.368c0 .337-.08.537-.24.6-.112.065-.312.113-.6.145-.272.032-.52.04-.744.023-1.024 0-1.536-.087-1.536-.264v-6.624c0-2.463.16-4.264.48-5.4.32-1.136.712-2.032 1.176-2.688.432-.64.904-1.143 1.416-1.511.512-.369 1.192-.552 2.04-.552.656 0 1.224.136 1.704.407.48.273.944.704 1.392 1.296Zm-2.136 8.497c.112.015.32.023.624.023v-.072c0-2.288-.168-3.944-.504-4.968-.32-1.024-.728-1.535-1.224-1.535-1.152 0-1.728 2.168-1.728 6.503v.049h2.832Zm18.168 7.392c0 .223.008.407.024.551l.024 1.248c0 .24-.184.36-.552.36a8.93 8.93 0 0 0-.72.024l-1.32.024c-.208 0-.312-.256-.312-.768l-.024-2.04h-3.6c-1.584 0-2.8.009-3.648.025v1.129c-.016.191-.024.591-.024 1.2 0 .24-.184.36-.552.36h-1.776c-.24 0-.4-.04-.48-.12-.064-.08-.096-.233-.096-.456l.024-3.144c0-.752.008-1.337.024-1.752v-.313c0-.128.064-.216.192-.264a1.11 1.11 0 0 1 .456-.096l1.008.024c.112-.24.2-.463.264-.671.384-1.232.632-2.56.744-3.985.128-1.424.192-3.151.192-5.183l.024-1.08c.032-.48.048-.92.048-1.32 0-.449.048-.745.144-.889a.442.442 0 0 1 .384-.215l7.536.024c.256 0 .384.232.384.695v4.416l-.024 2.04.024 4.825v1.344h1.056c.224 0 .376.023.456.072.08.032.12.128.12.288v3.647Zm-8.16-3.96c1.392 0 2.512-.008 3.36-.024v-1.777l.024-2.663v-5.305a89.034 89.034 0 0 0-2.376-.023c-.016 2.288-.12 4.224-.312 5.808-.176 1.584-.464 2.912-.864 3.983h.168Zm24.279-4.224.024 2.663c0 2.817-.016 4.36-.048 4.633-.032.175-.072.288-.12.336a.461.461 0 0 1-.24.047c-.272 0-.48-.008-.624-.023a3.201 3.201 0 0 0-.312-.024h-.888c-.144 0-.312-.153-.504-.457-.176-.32-.376-.744-.6-1.272l-.288-.6c-.144-.224-1.184-2.568-3.12-7.032-.016.56-.024 1.137-.024 1.729l.024 2.663c0 .369.008.72.024 1.057l.024 2.76c0 .48-.008.752-.024.816-.032.175-.072.288-.12.336a.461.461 0 0 1-.24.047l-.624-.023a4.773 4.773 0 0 0-.552-.024l-.84.023c-.528 0-.792-.127-.792-.383l.024-1.536c.016-.209.024-.457.024-.745v-2.471l.024-1.369-.024-2.04V18.25c0-.096.16-.169.48-.216.32-.049.672-.072 1.056-.072h.144c.112 0 .224.015.336.047.128.017.224.024.288.024.24 0 .432.104.576.313.192.288.656 1.296 1.392 3.023a367.58 367.58 0 0 1 2.16 5.064l.288.697v-.816l-.048-8.064c0-.096.16-.169.48-.216.32-.049.672-.072 1.056-.072l.6-.024c.368 0 .616.032.744.096.16.064.24.264.24.6v1.488l.024 1.488v5.59Zm6.096 3.743c-.896 0-1.672-.232-2.328-.695a4.668 4.668 0 0 1-1.512-1.896 6.39 6.39 0 0 1-.504-2.544c0-.816.184-1.616.552-2.4.384-.8.92-1.448 1.608-1.945.704-.495 1.512-.744 2.424-.744 1.408 0 2.448.497 3.12 1.488.688.992 1.032 2.224 1.032 3.697 0 .784-.152 1.56-.456 2.328a4.662 4.662 0 0 1-1.44 1.943c-.656.512-1.488.768-2.496.768Zm.048-7.535c-.432 0-.784.224-1.056.671-.256.448-.384 1.056-.384 1.825 0 .64.136 1.192.408 1.655.272.465.632.697 1.08.697.416 0 .744-.192.984-.576.24-.384.36-.976.36-1.776 0-.672-.128-1.256-.384-1.752-.256-.497-.592-.744-1.008-.744Zm3.264 8.735c.144 0 .24.144.288.432.048.288.072.665.072 1.129 0 .303-.024.56-.072.767-.032.209-.128.313-.288.313-.08 0-.24.008-.48.023a13.21 13.21 0 0 1-.936.025l-5.184-.025c-.128 0-.216-.103-.264-.311a3.82 3.82 0 0 1-.072-.792c0-.305.024-.64.072-1.009.048-.384.128-.576.24-.576l2.04.024h4.584Zm16.546-4.104c.16 0 .28.04.36.12.096.08.144.24.144.48l-.024.625c-.048.432-.072.928-.072 1.488 0 .127-.072.207-.216.24a2.278 2.278 0 0 1-.528.047h-.48l-.024 2.808c0 .385-.04.649-.12.793a.397.397 0 0 1-.36.191h-1.752c-.32.017-.56-.008-.72-.072-.16-.064-.24-.175-.24-.336l.024-1.823c.016-.256.024-.552.024-.888v-.697l-5.28.049c-.224 0-.336-.208-.336-.624v-1.369c0-.736.904-2.576 2.712-5.52.864-1.44 1.664-2.631 2.4-3.576.736-.944 1.288-1.416 1.656-1.416h1.224c.288 0 .48.049.576.145.112.096.168.288.168.576v1.392l-.024 3.288.048 4.055c.208.017.488.024.84.024Zm-3.984-4.56c-.208.288-.52.768-.936 1.44-.848 1.457-1.432 2.56-1.752 3.313h2.688V23.48Zm11.122 2.88c1.136.145 2.112.52 2.928 1.128.832.608 1.248 1.592 1.248 2.953 0 1.52-.48 2.688-1.44 3.504-.944.816-2.152 1.224-3.624 1.224-.816 0-1.56-.12-2.232-.36-.672-.257-1.208-.544-1.608-.864-.384-.337-.576-.6-.576-.792 0-.289.056-.689.168-1.2.128-.529.272-.985.432-1.369.176-.4.352-.6.528-.6.064 0 .136.04.216.12.288.352.712.68 1.272.985.576.288 1.144.431 1.704.431 1.264 0 1.896-.456 1.896-1.367 0-.544-.152-.913-.456-1.105-.304-.207-.784-.311-1.44-.311-.32 0-.784.047-1.392.143-.176.032-.296-.104-.36-.407-.064-.32-.096-.928-.096-1.825 0-.175.12-.472.36-.887.256-.433.648-1.04 1.176-1.825.592-.88.968-1.456 1.128-1.728h-.888l-3.288.024c-.224 0-.336-.207-.336-.623v-2.663c0-.16.032-.265.096-.313.08-.047.216-.08.408-.095l1.896.023c.272.017.632.024 1.08.024.208.017 1.104.024 2.688.024l.84-.048.624-.023c.144 0 .256.04.336.12.096.063.152.207.168.431l-.024 1.969c0 .24-.128.56-.384.96a45.2 45.2 0 0 1-1.224 1.703c-.848 1.137-1.456 2.017-1.824 2.64Z"
          fill="#E65C00"/>
    <path d="M106.83 57.192v-2.025h-8.055v-10.65h1.35v9.45h5.235v-9.45h1.35v9.45h1.32v3.225h-1.2Zm6.26-1.875a4.07 4.07 0 0 1-1.62-.315c-.48-.22-.9-.515-1.26-.885a4.316 4.316 0 0 1-.825-1.305 4.277 4.277 0 0 1-.285-1.56c0-.74.17-1.415.51-2.025.34-.61.81-1.1 1.41-1.47.61-.37 1.305-.555 2.085-.555.79 0 1.475.19 2.055.57.59.37 1.045.86 1.365 1.47a3.981 3.981 0 0 1 .48 2.25c0 .09-.005.16-.015.21h-6.495c.04.51.18.965.42 1.365.25.39.57.7.96.93.39.22.81.33 1.26.33.48 0 .93-.12 1.35-.36.43-.24.725-.555.885-.945l1.14.315c-.17.38-.425.72-.765 1.02-.33.3-.725.535-1.185.705-.45.17-.94.255-1.47.255Zm-2.64-4.53h5.34c-.04-.51-.185-.96-.435-1.35a2.71 2.71 0 0 0-.96-.915 2.58 2.58 0 0 0-1.29-.33c-.46 0-.885.11-1.275.33-.39.22-.71.525-.96.915-.24.39-.38.84-.42 1.35Zm8.022 4.38v-7.83h1.32v3.24h4.08v-3.24h1.32v7.83h-1.32v-3.42h-4.08v3.42h-1.32Zm10.753 0v-6.66h-2.7v-1.17h6.72v1.17h-2.7v6.66h-1.32Zm9.561.15c-.64 0-1.21-.16-1.71-.48-.5-.32-.895-.725-1.185-1.215v4.74h-1.32V47.337h1.17v1.47c.31-.48.715-.865 1.215-1.155.5-.3 1.045-.45 1.635-.45.54 0 1.035.11 1.485.33.45.22.84.52 1.17.9.33.38.585.815.765 1.305.19.48.285.985.285 1.515 0 .74-.15 1.42-.45 2.04-.29.62-.7 1.115-1.23 1.485-.53.36-1.14.54-1.83.54Zm-.405-1.14c.39 0 .74-.08 1.05-.24.32-.17.59-.39.81-.66.23-.28.405-.595.525-.945s.18-.71.18-1.08c0-.39-.07-.76-.21-1.11-.13-.35-.32-.66-.57-.93-.24-.27-.525-.48-.855-.63a2.315 2.315 0 0 0-1.8-.105c-.25.09-.49.22-.72.39-.23.16-.425.345-.585.555-.16.21-.265.435-.315.675v2.235c.15.34.35.65.6.93s.54.505.87.675c.33.16.67.24 1.02.24Zm13.544 1.14c-.64 0-1.21-.16-1.71-.48-.5-.32-.895-.725-1.185-1.215v4.74h-1.32V47.337h1.17v1.47c.31-.48.715-.865 1.215-1.155.5-.3 1.045-.45 1.635-.45.54 0 1.035.11 1.485.33.45.22.84.52 1.17.9.33.38.585.815.765 1.305.19.48.285.985.285 1.515 0 .74-.15 1.42-.45 2.04-.29.62-.7 1.115-1.23 1.485-.53.36-1.14.54-1.83.54Zm-.405-1.14c.39 0 .74-.08 1.05-.24.32-.17.59-.39.81-.66.23-.28.405-.595.525-.945s.18-.71.18-1.08c0-.39-.07-.76-.21-1.11-.13-.35-.32-.66-.57-.93-.24-.27-.525-.48-.855-.63a2.315 2.315 0 0 0-1.8-.105c-.25.09-.49.22-.72.39-.23.16-.425.345-.585.555-.16.21-.265.435-.315.675v2.235c.15.34.35.65.6.93s.54.505.87.675c.33.16.67.24 1.02.24Zm4.921-1.275c0-.5.14-.93.42-1.29.29-.37.685-.655 1.185-.855.5-.2 1.08-.3 1.74-.3.35 0 .72.03 1.11.09.39.05.735.13 1.035.24v-.57c0-.6-.18-1.07-.54-1.41-.36-.35-.87-.525-1.53-.525-.43 0-.845.08-1.245.24-.39.15-.805.37-1.245.66l-.48-.93c.51-.35 1.02-.61 1.53-.78.51-.18 1.04-.27 1.59-.27 1 0 1.79.28 2.37.84.58.55.87 1.32.87 2.31v3.315c0 .16.03.28.09.36.07.07.18.11.33.12v1.02c-.13.02-.245.035-.345.045-.09.01-.165.015-.225.015-.31 0-.545-.085-.705-.255a.964.964 0 0 1-.255-.54l-.03-.495c-.34.44-.785.78-1.335 1.02-.55.24-1.095.36-1.635.36-.52 0-.985-.105-1.395-.315-.41-.22-.73-.51-.96-.87-.23-.37-.345-.78-.345-1.23Zm5.1.555c.12-.14.215-.28.285-.42a.932.932 0 0 0 .105-.375v-.975c-.31-.12-.635-.21-.975-.27a4.975 4.975 0 0 0-1.005-.105c-.67 0-1.215.135-1.635.405-.41.26-.615.62-.615 1.08 0 .25.065.495.195.735.14.23.34.42.6.57.27.15.6.225.99.225.41 0 .8-.08 1.17-.24.37-.17.665-.38.885-.63Zm6.266 1.815c-.76 0-1.405-.14-1.935-.42-.52-.29-.92-.69-1.2-1.2l1.08-.48c.18.32.435.57.765.75.34.18.75.27 1.23.27.57 0 1.02-.125 1.35-.375.33-.25.495-.585.495-1.005 0-.38-.135-.685-.405-.915-.26-.24-.63-.365-1.11-.375h-.795v-.87h.84c.21 0 .395-.05.555-.15.17-.11.3-.255.39-.435.1-.18.15-.38.15-.6 0-.35-.125-.63-.375-.84-.25-.22-.625-.33-1.125-.33-.41 0-.755.08-1.035.24-.27.16-.49.4-.66.72l-1.005-.54c.25-.47.61-.835 1.08-1.095.48-.27 1.04-.405 1.68-.405.51 0 .96.085 1.35.255.4.16.71.395.93.705.23.31.345.685.345 1.125 0 .37-.09.715-.27 1.035-.17.31-.425.545-.765.705.47.14.83.385 1.08.735.25.34.375.745.375 1.215 0 .48-.13.89-.39 1.23-.26.34-.615.6-1.065.78-.45.18-.97.27-1.56.27Zm4.586-.105v-7.83h4.05c.47 0 .86.095 1.17.285.31.18.54.415.69.705.16.29.24.6.24.93 0 .42-.1.8-.3 1.14-.2.33-.49.58-.87.75.45.13.815.365 1.095.705.28.33.42.74.42 1.23 0 .44-.105.815-.315 1.125-.21.31-.505.55-.885.72-.38.16-.82.24-1.32.24h-3.975Zm1.26-.93h2.685c.24 0 .455-.06.645-.18.2-.12.355-.28.465-.48.11-.2.165-.41.165-.63 0-.24-.055-.455-.165-.645-.1-.2-.245-.355-.435-.465a1.11 1.11 0 0 0-.63-.18h-2.73v2.58Zm0-3.45h2.445c.24 0 .45-.06.63-.18a1.39 1.39 0 0 0 .57-1.125c0-.33-.11-.615-.33-.855-.21-.24-.485-.36-.825-.36h-2.49v2.52Zm6.899 4.38v-7.815h1.32v6.045l4.38-6.06h1.2v7.83h-1.32v-5.925l-4.32 5.925h-1.26Zm10.914 0v-6.66h-2.7v-1.17h6.72v1.17h-2.7v6.66h-1.32Zm5.331 0v-7.815h1.32v6.045l4.38-6.06h1.2v7.83h-1.32v-5.925l-4.32 5.925h-1.26Zm8.424 0 2.22-3.15c-.51-.1-.92-.34-1.23-.72-.31-.39-.465-.91-.465-1.56 0-.47.11-.885.33-1.245.22-.36.525-.645.915-.855.4-.21.865-.315 1.395-.315h3.21v7.845h-1.32v-2.94h-1.53l-2.07 2.94h-1.455Zm3.255-3.915h1.8v-2.895h-1.65c-.47 0-.845.135-1.125.405-.28.26-.42.595-.42 1.005 0 .41.115.76.345 1.05.24.29.59.435 1.05.435Zm13.264 4.065c-.64 0-1.21-.16-1.71-.48-.5-.32-.895-.725-1.185-1.215v4.74h-1.32V47.337h1.17v1.47c.31-.48.715-.865 1.215-1.155.5-.3 1.045-.45 1.635-.45.54 0 1.035.11 1.485.33.45.22.84.52 1.17.9.33.38.585.815.765 1.305.19.48.285.985.285 1.515 0 .74-.15 1.42-.45 2.04-.29.62-.7 1.115-1.23 1.485-.53.36-1.14.54-1.83.54Zm-.405-1.14c.39 0 .74-.08 1.05-.24.32-.17.59-.39.81-.66.23-.28.405-.595.525-.945s.18-.71.18-1.08c0-.39-.07-.76-.21-1.11-.13-.35-.32-.66-.57-.93-.24-.27-.525-.48-.855-.63a2.315 2.315 0 0 0-1.8-.105c-.25.09-.49.22-.72.39-.23.16-.425.345-.585.555-.16.21-.265.435-.315.675v2.235c.15.34.35.65.6.93s.54.505.87.675c.33.16.67.24 1.02.24Zm9.001 1.14a4.07 4.07 0 0 1-1.62-.315c-.48-.22-.9-.515-1.26-.885a4.316 4.316 0 0 1-.825-1.305 4.277 4.277 0 0 1-.285-1.56c0-.74.17-1.415.51-2.025.34-.61.81-1.1 1.41-1.47.61-.37 1.305-.555 2.085-.555.79 0 1.475.19 2.055.57.59.37 1.045.86 1.365 1.47a3.981 3.981 0 0 1 .48 2.25c0 .09-.005.16-.015.21h-6.495c.04.51.18.965.42 1.365.25.39.57.7.96.93.39.22.81.33 1.26.33.48 0 .93-.12 1.35-.36.43-.24.725-.555.885-.945l1.14.315c-.17.38-.425.72-.765 1.02-.33.3-.725.535-1.185.705-.45.17-.94.255-1.47.255Zm-2.64-4.53h5.34c-.04-.51-.185-.96-.435-1.35a2.71 2.71 0 0 0-.96-.915 2.58 2.58 0 0 0-1.29-.33c-.46 0-.885.11-1.275.33-.39.22-.71.525-.96.915-.24.39-.38.84-.42 1.35Zm11.727 4.53c-1.29 0-2.265-.39-2.925-1.17-.66-.78-.99-1.88-.99-3.3 0-.97.08-1.785.24-2.445.16-.67.4-1.22.72-1.65.32-.44.715-.795 1.185-1.065.47-.28 1.01-.51 1.62-.69l3.315-1.005.075 1.14-3.225.975c-.55.18-1.01.41-1.38.69-.37.28-.66.64-.87 1.08-.21.44-.35 1.005-.42 1.695.26-.53.65-.94 1.17-1.23.52-.3 1.125-.45 1.815-.45.74 0 1.375.155 1.905.465.54.3.95.725 1.23 1.275.29.54.435 1.165.435 1.875 0 .76-.15 1.425-.45 1.995-.3.57-.74 1.015-1.32 1.335-.58.32-1.29.48-2.13.48Zm0-1.14c.81 0 1.435-.235 1.875-.705.45-.48.675-1.115.675-1.905 0-.77-.22-1.395-.66-1.875-.44-.48-1.07-.72-1.89-.72-.48 0-.915.1-1.305.3-.38.2-.685.495-.915.885-.22.38-.33.85-.33 1.41 0 .5.095.95.285 1.35.2.39.49.7.87.93.38.22.845.33 1.395.33Zm8.974 1.14a4.07 4.07 0 0 1-1.62-.315c-.48-.22-.9-.515-1.26-.885a4.316 4.316 0 0 1-.825-1.305 4.277 4.277 0 0 1-.285-1.56c0-.74.17-1.415.51-2.025.34-.61.81-1.1 1.41-1.47.61-.37 1.305-.555 2.085-.555.79 0 1.475.19 2.055.57.59.37 1.045.86 1.365 1.47a3.981 3.981 0 0 1 .48 2.25c0 .09-.005.16-.015.21h-6.495c.04.51.18.965.42 1.365.25.39.57.7.96.93.39.22.81.33 1.26.33.48 0 .93-.12 1.35-.36.43-.24.725-.555.885-.945l1.14.315c-.17.38-.425.72-.765 1.02-.33.3-.725.535-1.185.705-.45.17-.94.255-1.47.255Zm-2.64-4.53h5.34c-.04-.51-.185-.96-.435-1.35a2.71 2.71 0 0 0-.96-.915 2.58 2.58 0 0 0-1.29-.33c-.46 0-.885.11-1.275.33-.39.22-.71.525-.96.915-.24.39-.38.84-.42 1.35Zm8.022 4.38v-7.83h1.32v3.24h4.08v-3.24h1.32v7.83h-1.32v-3.42h-4.08v3.42h-1.32Zm8.833 0v-7.83h1.32v3.225h.87l2.46-3.225h1.5l-2.925 3.795 3.27 4.035h-1.53l-2.775-3.39h-.87v3.39h-1.32Zm7.179-2.265c0-.5.14-.93.42-1.29.29-.37.685-.655 1.185-.855.5-.2 1.08-.3 1.74-.3.35 0 .72.03 1.11.09.39.05.735.13 1.035.24v-.57c0-.6-.18-1.07-.54-1.41-.36-.35-.87-.525-1.53-.525-.43 0-.845.08-1.245.24-.39.15-.805.37-1.245.66l-.48-.93c.51-.35 1.02-.61 1.53-.78.51-.18 1.04-.27 1.59-.27 1 0 1.79.28 2.37.84.58.55.87 1.32.87 2.31v3.315c0 .16.03.28.09.36.07.07.18.11.33.12v1.02c-.13.02-.245.035-.345.045-.09.01-.165.015-.225.015-.31 0-.545-.085-.705-.255a.964.964 0 0 1-.255-.54l-.03-.495c-.34.44-.785.78-1.335 1.02-.55.24-1.095.36-1.635.36-.52 0-.985-.105-1.395-.315-.41-.22-.73-.51-.96-.87-.23-.37-.345-.78-.345-1.23Zm5.1.555c.12-.14.215-.28.285-.42a.932.932 0 0 0 .105-.375v-.975c-.31-.12-.635-.21-.975-.27a4.975 4.975 0 0 0-1.005-.105c-.67 0-1.215.135-1.635.405-.41.26-.615.62-.615 1.08 0 .25.065.495.195.735.14.23.34.42.6.57.27.15.6.225.99.225.41 0 .8-.08 1.17-.24.37-.17.665-.38.885-.63Z"
          fill="#2A2D34"/>
</svg>