<svg width="279" height="70" viewBox="0 0 279 70" fill="none" xmlns="http://www.w3.org/2000/svg">
<path d="M61.0938 9.31494C61.8576 9.31494 62.4767 9.93396 62.4767 10.6976V23.6172C62.4767 24.3807 61.8576 24.9998 61.0938 24.9998H57.6668C56.903 24.9998 56.2838 24.3807 56.2838 23.6172V10.6976C56.2838 9.93396 56.903 9.31494 57.6668 9.31494H61.0938Z" fill="#C0D0FF"/>
<path d="M62.8444 26.6724C63.6082 26.6724 64.2273 27.2914 64.2273 28.055V51.0988C64.2273 51.8624 63.6082 52.4814 62.8444 52.4814H49.2735V37.7245C49.2735 37.1546 48.8114 36.6926 48.2414 36.6926H39.8348C39.2647 36.6926 38.8026 37.1546 38.8026 37.7245V52.4814H24.8365C24.0727 52.4814 23.4535 51.8624 23.4535 51.0988V28.055C23.4535 27.2914 24.0727 26.6724 24.8365 26.6724H62.8444Z" fill="#C0D0FF"/>
<path d="M43.6249 3.04335C43.9686 2.69836 44.5285 2.70258 44.8669 3.05273L68.0239 27.0126C68.5576 27.5648 68.1663 28.4872 67.3983 28.4872H20.3745C19.6003 28.4872 19.2117 27.5518 19.7582 27.0032L43.6249 3.04335Z" fill="#C12A71"/>
<path d="M63.51 2.20193C63.51 4.17728 61.2159 5.64949 59.6688 6.98083C59.3859 7.22429 58.9608 7.22732 58.6764 6.9856C57.0775 5.62666 54.8399 4.18458 54.8399 2.20193C54.8399 0.00216926 57.5493 -0.702357 59.1749 0.791278C60.7554 -0.660866 63.51 0.00216926 63.51 2.20193Z" fill="#F15F79"/>
<rect x="27.42" y="35.7069" width="7.70501" height="7.70311" rx="0.87" fill="#E65C00"/>
<rect x="53.6328" y="31.2223" width="6.1929" height="7.63603" rx="0.87" fill="#3155BE"/>
<path d="M71.2659 50.8188C70.0857 51.3336 68.8574 51.8792 67.59 52.4545H67.5501V46.0568H71.2659V50.8188Z" fill="#2A824D"/>
<rect x="61.2502" y="30.3596" width="16.5144" height="16.5103" rx="8.25517" fill="#E65C00"/>
<rect width="20.643" height="20.6379" rx="10.319" transform="matrix(1 -0.000461196 0.0293193 0.99957 6.03595 17.2496)" fill="#F9D423"/>
<path d="M9.14011 55.2657C16.2167 55.1117 28.2766 55.1093 35.1626 56.5686C39.7229 57.535 42.0141 59.5236 43.1541 61.4239C43.3193 61.6993 44.9135 61.6993 45.0787 61.4239C46.2187 59.5236 48.7465 57.535 53.3067 56.5686C59.961 55.1584 71.4464 55.1131 78.5979 55.2507C77.6129 52.3716 75.1096 50.2104 71.9182 49.8882C66.0891 49.3 56.7113 48.6441 43.8715 48.6442C31.0319 48.6442 21.6542 49.3 15.8251 49.8883C12.628 50.2109 10.1215 52.3792 9.14011 55.2657Z" fill="#53CC51"/>
<path fill-rule="evenodd" clip-rule="evenodd" d="M14.4861 37.6035H18.625V55.2256C17.2074 55.2034 15.8162 55.196 14.4861 55.1987V37.6035Z" fill="#3155BE"/>
<path d="M1.93672 63.1026C1.01224 62.7252 0 63.4051 0 64.4034C0 64.9667 0.336437 65.4755 0.854783 65.6961L37.0541 66.3208C37.2537 66.4058 37.4188 66.5533 37.5427 66.7314C38.4821 68.0807 40.0402 68.9315 41.7555 68.9315H46.076C47.8578 68.9315 49.4698 68.0135 50.3951 66.5723C50.5204 66.3772 50.6938 66.2152 50.9071 66.1244L86.5353 65.7429C87.1203 65.4939 87.4999 64.9197 87.4999 64.284C87.4999 63.3438 86.5454 62.7044 85.6756 63.0619L48.9337 63.2539C48.6305 63.3786 48.4046 63.6438 48.2303 63.9215C47.8136 64.5855 46.6739 65.7195 43.75 65.7195C40.9798 65.7195 39.96 64.7017 39.5886 64.0299C39.4044 63.6968 39.16 63.3624 38.8075 63.2185L1.93672 63.1026Z" fill="#274397"/>
<path d="M71.7178 62.9575C71.7273 62.5055 72.0814 62.1362 72.5326 62.1077L77.1559 61.8161C77.6776 61.7832 78.1105 62.2146 78.0794 62.7365L77.7503 68.256C77.7348 68.5154 77.4507 68.6669 77.2266 68.5352L75.246 67.3713C75.0555 67.2594 74.8153 67.2794 74.6461 67.4213L72.1586 69.5075C71.9295 69.6996 71.5807 69.5323 71.587 69.2334L71.7178 62.9575Z" fill="#F15F79"/>
<path d="M110.82 35.3855C110.82 35.6095 110.828 35.7935 110.844 35.9375L110.868 37.1855C110.868 37.4255 110.684 37.5455 110.316 37.5455C110.028 37.5455 109.788 37.5535 109.596 37.5695L108.276 37.5935C108.068 37.5935 107.964 37.3375 107.964 36.8255L107.94 34.7855H107.724H104.34C102.756 34.7855 101.54 34.7935 100.692 34.8095V35.3855V35.9375C100.676 36.1295 100.668 36.5295 100.668 37.1375C100.668 37.3775 100.484 37.4975 100.116 37.4975H98.3399C98.0999 37.4975 97.9399 37.4575 97.8599 37.3775C97.7959 37.2975 97.7639 37.1455 97.7639 36.9215L97.7879 33.7775C97.7879 33.0255 97.7959 32.4415 97.8119 32.0255V31.7135C97.8119 31.5855 97.8759 31.4975 98.0039 31.4495C98.1479 31.3855 98.2999 31.3535 98.4599 31.3535L99.4679 31.3775C99.5799 31.1375 99.6679 30.9135 99.7319 30.7055C100.116 29.4735 100.364 28.1455 100.476 26.7215C100.604 25.2975 100.668 23.5695 100.668 21.5375L100.692 20.4575C100.724 19.9775 100.74 19.5375 100.74 19.1375C100.74 18.6895 100.788 18.3935 100.884 18.2495C100.98 18.1055 101.108 18.0335 101.268 18.0335L108.804 18.0575C109.06 18.0575 109.188 18.2895 109.188 18.7535V23.1695L109.164 25.2095L109.188 30.0335V31.3775H110.076H110.244C110.468 31.3775 110.62 31.4015 110.7 31.4495C110.78 31.4815 110.82 31.5775 110.82 31.7375V32.0495V34.1855V34.8335V35.3855ZM102.66 31.4255C104.052 31.4255 105.172 31.4175 106.02 31.4015V29.6255L106.044 26.9615V21.6575C105.484 21.6415 104.692 21.6335 103.668 21.6335C103.652 23.9215 103.548 25.8575 103.356 27.4415C103.18 29.0255 102.892 30.3535 102.492 31.4255H102.66ZM120.952 33.3215C120.936 33.5455 120.952 33.7375 121 33.8975C121.048 34.0575 121.072 34.1775 121.072 34.2575C121.072 34.4975 121.008 34.6575 120.88 34.7375C120.752 34.8015 120.552 34.8335 120.28 34.8335L118.504 34.8095L114.304 34.8335L113.416 34.8575C112.824 34.8575 112.528 34.7295 112.528 34.4735L112.576 29.7215L112.6 25.4735L112.576 22.1615V18.5615C112.576 18.3855 112.608 18.2575 112.672 18.1775C112.752 18.0815 112.896 18.0255 113.104 18.0095C113.312 17.9775 113.648 17.9615 114.112 17.9615L116.344 17.9855C116.712 18.0015 117.152 18.0095 117.664 18.0095C117.872 18.0255 118.264 18.0335 118.84 18.0335L119.68 17.9855L120.304 17.9615C120.464 17.9615 120.584 18.0015 120.664 18.0815C120.76 18.1615 120.808 18.3215 120.808 18.5615C120.808 18.6735 120.792 18.8415 120.76 19.0655L120.688 19.6655C120.672 20.0175 120.664 20.5455 120.664 21.2495C120.664 21.4095 120.56 21.5215 120.352 21.5855C120.16 21.6335 119.84 21.6575 119.392 21.6575L118.24 21.6335C117.248 21.6335 116.408 21.6415 115.72 21.6575V22.0895V26.3135C116.456 26.3295 117.264 26.3375 118.144 26.3375L119.488 26.3615C119.648 26.3615 119.768 26.4015 119.848 26.4815C119.944 26.5615 119.992 26.7215 119.992 26.9615L120.016 27.5615C120.016 27.7215 120.008 27.8575 119.992 27.9695C119.976 28.2255 119.968 28.4495 119.968 28.6415C119.968 28.8335 119.968 28.9775 119.968 29.0735C119.968 29.2015 119.896 29.2815 119.752 29.3135C119.624 29.3455 119.44 29.3615 119.2 29.3615C118.96 29.3615 118.792 29.3615 118.696 29.3615L116.776 29.3375L115.744 29.3855V29.8655V31.3295L117.016 31.3535L119.104 31.3295L119.944 31.2815L120.568 31.2575C120.728 31.2575 120.848 31.2975 120.928 31.3775C121.024 31.4575 121.072 31.6175 121.072 31.8575C121.072 31.9855 121.056 32.2575 121.024 32.6735L120.952 33.3215ZM131.762 18.0335C131.922 18.0335 132.042 18.0735 132.122 18.1535C132.218 18.2335 132.266 18.3935 132.266 18.6335V19.7375L132.242 20.8415C132.242 21.0015 132.122 21.1135 131.882 21.1775C131.658 21.2255 131.314 21.2495 130.85 21.2495L129.698 21.2255H129.05C129.066 21.4655 129.074 21.8335 129.074 22.3295V25.5695L129.098 31.5935C129.098 33.2575 129.082 34.2255 129.05 34.4975C129.018 34.6735 128.978 34.7855 128.93 34.8335C128.882 34.8655 128.802 34.8815 128.69 34.8815L128.066 34.8575C127.938 34.8415 127.754 34.8335 127.514 34.8335L126.674 34.8575C126.146 34.8575 125.882 34.7295 125.882 34.4735L125.906 32.9375C125.922 32.7295 125.93 32.4815 125.93 32.1935V27.0815L125.954 25.7135L125.93 23.6735V21.2015H123.05C122.826 21.2015 122.714 20.9935 122.714 20.5775V19.7615V18.3935C122.714 18.2335 122.746 18.1375 122.81 18.1055C122.874 18.0735 123.01 18.0495 123.218 18.0335L126.314 18.0575L130.298 18.1055L131.138 18.0575L131.762 18.0335ZM142.839 33.1535C142.839 33.4095 142.647 33.7055 142.263 34.0415C141.895 34.3775 141.391 34.6655 140.751 34.9055C140.111 35.1455 139.423 35.2655 138.687 35.2655C138.095 35.2655 137.503 35.1295 136.911 34.8575C136.335 34.6015 135.839 34.2975 135.423 33.9455C134.831 33.4335 134.327 32.6815 133.911 31.6895C133.495 30.6975 133.287 29.4495 133.287 27.9455C133.287 24.1215 133.871 21.4095 135.039 19.8095C136.015 18.4655 137.407 17.7935 139.215 17.7935C139.631 17.7935 140.087 17.8815 140.583 18.0575C141.095 18.2175 141.527 18.4175 141.879 18.6575C142.231 18.8975 142.407 19.0975 142.407 19.2575C142.407 19.5775 142.311 19.9855 142.119 20.4815C141.927 20.9775 141.711 21.4255 141.471 21.8255C141.231 22.2095 141.039 22.4015 140.895 22.4015C140.847 22.4015 140.767 22.3695 140.655 22.3055C140.559 22.2255 140.487 22.1695 140.439 22.1375C140.135 21.9295 139.855 21.7615 139.599 21.6335C139.343 21.5055 139.071 21.4415 138.783 21.4415C138.127 21.4415 137.583 21.9535 137.151 22.9775C136.735 23.9855 136.527 25.6415 136.527 27.9455C136.527 28.9375 136.711 29.8015 137.079 30.5375C137.463 31.2575 137.999 31.6175 138.687 31.6175C139.039 31.6175 139.439 31.4895 139.887 31.2335C140.351 30.9775 140.807 30.6015 141.255 30.1055C141.319 30.0255 141.399 29.9855 141.495 29.9855C141.687 29.9855 141.887 30.1855 142.095 30.5855C142.303 30.9695 142.479 31.4175 142.623 31.9295C142.767 32.4415 142.839 32.8495 142.839 33.1535ZM154.569 33.3695C154.633 33.4655 154.665 33.5615 154.665 33.6575C154.665 33.8015 154.545 33.9535 154.305 34.1135C153.985 34.2895 153.649 34.4415 153.297 34.5695L152.673 34.7855C152.241 34.9775 151.929 35.0735 151.737 35.0735C151.561 35.0735 151.401 35.0095 151.257 34.8815C151.129 34.7695 150.969 34.5375 150.777 34.1855C150.729 34.1055 150.561 33.7455 150.273 33.1055C149.953 32.4175 149.785 32.0655 149.769 32.0495C149.721 31.9535 149.553 31.6255 149.265 31.0655C148.993 30.5055 148.665 29.8815 148.281 29.1935L148.041 29.1695V29.8655C148.041 32.6815 148.025 34.2255 147.993 34.4975C147.961 34.6735 147.921 34.7855 147.873 34.8335C147.825 34.8655 147.745 34.8815 147.633 34.8815L147.009 34.8575C146.881 34.8415 146.697 34.8335 146.457 34.8335L145.617 34.8575C145.089 34.8575 144.825 34.7295 144.825 34.4735L144.849 32.9375C144.865 32.7295 144.873 32.4815 144.873 32.1935V29.7215L144.897 28.3535L144.873 26.3135V18.2495C144.873 18.1535 145.033 18.0815 145.353 18.0335C145.673 17.9855 146.025 17.9615 146.409 17.9615L147.009 17.9375C147.377 17.9375 147.625 17.9695 147.753 18.0335C147.913 18.0975 147.993 18.2975 147.993 18.6335V20.1215L148.017 21.6095V26.3135C148.193 26.3295 148.425 26.3375 148.713 26.3375C149.417 26.3375 149.953 26.0895 150.321 25.5935C150.705 25.0815 150.897 24.2655 150.897 23.1455L150.873 21.0335V18.3935C150.873 18.2495 151.081 18.1455 151.497 18.0815C151.913 18.0015 152.369 17.9615 152.865 17.9615C153.361 17.9615 153.657 17.9855 153.753 18.0335C153.913 18.0975 153.993 18.2975 153.993 18.6335L154.017 20.1695V21.9215L154.041 22.6655C154.041 24.1215 153.809 25.3935 153.345 26.4815C152.881 27.5535 152.201 28.3215 151.305 28.7855L152.241 30.1775C152.753 30.9135 153.017 31.3135 153.033 31.3775C153.161 31.5695 153.409 31.8895 153.777 32.3375C154.257 32.9455 154.521 33.2895 154.569 33.3695ZM166.194 29.8655L166.17 34.0655C166.17 34.6095 166.01 34.8815 165.69 34.8815L165.138 34.8575C165.026 34.8415 164.85 34.8335 164.61 34.8335L163.77 34.8575C163.242 34.8575 162.978 34.7295 162.978 34.4735L163.002 33.2015C163.034 32.6575 163.042 32.3215 163.026 32.1935V29.4575L163.074 25.6655L162.594 26.7455C160.946 30.4575 160.09 32.3775 160.026 32.5055L159.738 33.1055C159.514 33.6335 159.306 34.0575 159.114 34.3775C158.938 34.6815 158.778 34.8335 158.634 34.8335H157.434C157.034 34.8335 156.77 34.8175 156.642 34.7855C156.514 34.7375 156.45 34.6575 156.45 34.5455L156.474 32.9615C156.49 32.7375 156.498 32.4815 156.498 32.1935V29.7215L156.522 28.3535L156.498 26.3135V18.2495C156.498 18.1535 156.658 18.0815 156.978 18.0335C157.298 17.9855 157.65 17.9615 158.034 17.9615C158.274 17.9455 158.53 17.9535 158.802 17.9855C159.074 18.0015 159.266 18.0415 159.378 18.1055C159.538 18.1695 159.618 18.3695 159.618 18.7055V20.1215L159.594 23.9615L159.642 26.8175L160.122 25.6655C160.778 24.1135 161.434 22.5775 162.09 21.0575C162.762 19.5215 163.186 18.6175 163.362 18.3455C163.506 18.1375 163.698 18.0335 163.938 18.0335L164.898 18.0095C165.458 18.0095 165.794 18.0415 165.906 18.1055C166.066 18.2015 166.146 18.4015 166.146 18.7055V22.5455L166.17 24.0335L166.194 29.8655ZM178.335 29.8655L178.311 34.0655C178.311 34.6095 178.151 34.8815 177.831 34.8815L177.279 34.8575C177.167 34.8415 176.991 34.8335 176.751 34.8335L175.911 34.8575C175.383 34.8575 175.119 34.7295 175.119 34.4735L175.143 33.2015C175.175 32.6575 175.183 32.3215 175.167 32.1935V29.4575L175.215 25.6655L174.735 26.7455C173.087 30.4575 172.231 32.3775 172.167 32.5055L171.879 33.1055C171.655 33.6335 171.447 34.0575 171.255 34.3775C171.079 34.6815 170.919 34.8335 170.775 34.8335H169.575C169.175 34.8335 168.911 34.8175 168.783 34.7855C168.655 34.7375 168.591 34.6575 168.591 34.5455L168.615 32.9615C168.631 32.7375 168.639 32.4815 168.639 32.1935V29.7215L168.663 28.3535L168.639 26.3135V18.2495C168.639 18.1535 168.799 18.0815 169.119 18.0335C169.439 17.9855 169.791 17.9615 170.175 17.9615C170.415 17.9455 170.671 17.9535 170.943 17.9855C171.215 18.0015 171.407 18.0415 171.519 18.1055C171.679 18.1695 171.759 18.3695 171.759 18.7055V20.1215L171.735 23.9615L171.783 26.8175L172.263 25.6655C172.919 24.1135 173.575 22.5775 174.231 21.0575C174.903 19.5215 175.327 18.6175 175.503 18.3455C175.647 18.1375 175.839 18.0335 176.079 18.0335L177.039 18.0095C177.599 18.0095 177.935 18.0415 178.047 18.1055C178.207 18.2015 178.287 18.4015 178.287 18.7055V22.5455L178.311 24.0335L178.335 29.8655ZM175.023 12.9455C175.071 12.8175 175.183 12.7215 175.359 12.6575C175.551 12.5775 175.759 12.5375 175.983 12.5375C176.191 12.5375 176.367 12.5775 176.511 12.6575C176.655 12.7215 176.727 12.8335 176.727 12.9935C176.727 14.1775 176.431 15.1375 175.839 15.8735C175.263 16.6095 174.439 16.9775 173.367 16.9775C172.727 16.9775 172.151 16.7935 171.639 16.4255C171.127 16.0415 170.727 15.5455 170.439 14.9375C170.151 14.3135 170.007 13.6655 170.007 12.9935C170.007 12.8335 170.079 12.7215 170.223 12.6575C170.383 12.5775 170.575 12.5375 170.799 12.5375C171.023 12.5375 171.231 12.5775 171.423 12.6575C171.615 12.7215 171.743 12.8175 171.807 12.9455C171.999 13.3935 172.207 13.7455 172.431 14.0015C172.655 14.2415 172.967 14.3615 173.367 14.3615C173.831 14.3615 174.183 14.2335 174.423 13.9775C174.679 13.7055 174.879 13.3615 175.023 12.9455ZM194.8 33.1535C194.8 33.4095 194.608 33.7055 194.224 34.0415C193.856 34.3775 193.352 34.6655 192.712 34.9055C192.072 35.1455 191.384 35.2655 190.648 35.2655C190.056 35.2655 189.464 35.1295 188.872 34.8575C188.296 34.6015 187.8 34.2975 187.384 33.9455C186.792 33.4335 186.288 32.6815 185.872 31.6895C185.456 30.6975 185.248 29.4495 185.248 27.9455C185.248 24.1215 185.832 21.4095 187 19.8095C187.976 18.4655 189.368 17.7935 191.176 17.7935C191.592 17.7935 192.048 17.8815 192.544 18.0575C193.056 18.2175 193.488 18.4175 193.84 18.6575C194.192 18.8975 194.368 19.0975 194.368 19.2575C194.368 19.5775 194.272 19.9855 194.08 20.4815C193.888 20.9775 193.672 21.4255 193.432 21.8255C193.192 22.2095 193 22.4015 192.856 22.4015C192.808 22.4015 192.728 22.3695 192.616 22.3055C192.52 22.2255 192.448 22.1695 192.4 22.1375C192.096 21.9295 191.816 21.7615 191.56 21.6335C191.304 21.5055 191.032 21.4415 190.744 21.4415C190.088 21.4415 189.544 21.9535 189.112 22.9775C188.696 23.9855 188.488 25.6415 188.488 27.9455C188.488 28.9375 188.672 29.8015 189.04 30.5375C189.424 31.2575 189.96 31.6175 190.648 31.6175C191 31.6175 191.4 31.4895 191.848 31.2335C192.312 30.9775 192.768 30.6015 193.216 30.1055C193.28 30.0255 193.36 29.9855 193.456 29.9855C193.648 29.9855 193.848 30.1855 194.056 30.5855C194.264 30.9695 194.44 31.4175 194.584 31.9295C194.728 32.4415 194.8 32.8495 194.8 33.1535ZM204.874 19.4975C205.354 20.1375 205.746 21.0975 206.05 22.3775C206.354 23.6415 206.506 25.4975 206.506 27.9455V31.2095L206.482 32.6975V34.1615C206.482 34.4975 206.402 34.6975 206.242 34.7615C206.114 34.8255 205.866 34.8575 205.498 34.8575L204.898 34.8335C203.874 34.8335 203.362 34.7455 203.362 34.5695V31.1375H203.314C201.858 31.1375 200.69 31.1455 199.81 31.1615V31.2095L199.786 32.6975V34.0655C199.786 34.4015 199.706 34.6015 199.546 34.6655C199.434 34.7295 199.234 34.7775 198.946 34.8095C198.674 34.8415 198.426 34.8495 198.202 34.8335C197.178 34.8335 196.666 34.7455 196.666 34.5695V27.9455C196.666 25.4815 196.826 23.6815 197.146 22.5455C197.466 21.4095 197.858 20.5135 198.322 19.8575C198.754 19.2175 199.226 18.7135 199.738 18.3455C200.25 17.9775 200.93 17.7935 201.778 17.7935C202.434 17.7935 203.002 17.9295 203.482 18.2015C203.962 18.4735 204.426 18.9055 204.874 19.4975ZM202.738 27.9935C202.85 28.0095 203.058 28.0175 203.362 28.0175V27.9455C203.362 25.6575 203.194 24.0015 202.858 22.9775C202.538 21.9535 202.13 21.4415 201.634 21.4415C200.482 21.4415 199.906 23.6095 199.906 27.9455V27.9935H202.738ZM220.906 35.3855C220.906 35.6095 220.914 35.7935 220.93 35.9375L220.954 37.1855C220.954 37.4255 220.77 37.5455 220.402 37.5455C220.114 37.5455 219.874 37.5535 219.682 37.5695L218.362 37.5935C218.154 37.5935 218.05 37.3375 218.05 36.8255L218.026 34.7855H217.81H214.426C212.842 34.7855 211.626 34.7935 210.778 34.8095V35.3855V35.9375C210.762 36.1295 210.754 36.5295 210.754 37.1375C210.754 37.3775 210.57 37.4975 210.202 37.4975H208.426C208.186 37.4975 208.026 37.4575 207.946 37.3775C207.882 37.2975 207.85 37.1455 207.85 36.9215L207.874 33.7775C207.874 33.0255 207.882 32.4415 207.898 32.0255V31.7135C207.898 31.5855 207.962 31.4975 208.09 31.4495C208.234 31.3855 208.386 31.3535 208.546 31.3535L209.554 31.3775C209.666 31.1375 209.754 30.9135 209.818 30.7055C210.202 29.4735 210.45 28.1455 210.562 26.7215C210.69 25.2975 210.754 23.5695 210.754 21.5375L210.778 20.4575C210.81 19.9775 210.826 19.5375 210.826 19.1375C210.826 18.6895 210.874 18.3935 210.97 18.2495C211.066 18.1055 211.194 18.0335 211.354 18.0335L218.89 18.0575C219.146 18.0575 219.274 18.2895 219.274 18.7535V23.1695L219.25 25.2095L219.274 30.0335V31.3775H220.162H220.33C220.554 31.3775 220.706 31.4015 220.786 31.4495C220.866 31.4815 220.906 31.5775 220.906 31.7375V32.0495V34.1855V34.8335V35.3855ZM212.746 31.4255C214.138 31.4255 215.258 31.4175 216.106 31.4015V29.6255L216.13 26.9615V21.6575C215.57 21.6415 214.778 21.6335 213.754 21.6335C213.738 23.9215 213.634 25.8575 213.442 27.4415C213.266 29.0255 212.978 30.3535 212.578 31.4255H212.746ZM237.025 27.2015L237.049 29.8655C237.049 32.6815 237.033 34.2255 237.001 34.4975C236.969 34.6735 236.929 34.7855 236.881 34.8335C236.833 34.8655 236.753 34.8815 236.641 34.8815C236.369 34.8815 236.161 34.8735 236.017 34.8575C235.873 34.8415 235.769 34.8335 235.705 34.8335H234.817C234.673 34.8335 234.505 34.6815 234.313 34.3775C234.137 34.0575 233.937 33.6335 233.713 33.1055L233.425 32.5055C233.281 32.2815 232.241 29.9375 230.305 25.4735C230.289 26.0335 230.281 26.6095 230.281 27.2015L230.305 29.8655C230.305 30.2335 230.313 30.5855 230.329 30.9215L230.353 33.6815C230.353 34.1615 230.345 34.4335 230.329 34.4975C230.297 34.6735 230.257 34.7855 230.209 34.8335C230.161 34.8655 230.081 34.8815 229.969 34.8815L229.345 34.8575C229.217 34.8415 229.033 34.8335 228.793 34.8335L227.953 34.8575C227.425 34.8575 227.161 34.7295 227.161 34.4735L227.185 32.9375C227.201 32.7295 227.209 32.4815 227.209 32.1935V29.7215L227.233 28.3535L227.209 26.3135V18.2495C227.209 18.1535 227.369 18.0815 227.689 18.0335C228.009 17.9855 228.361 17.9615 228.745 17.9615H228.889C229.001 17.9615 229.113 17.9775 229.225 18.0095C229.353 18.0255 229.449 18.0335 229.513 18.0335C229.753 18.0335 229.945 18.1375 230.089 18.3455C230.281 18.6335 230.745 19.6415 231.481 21.3695C232.233 23.0975 232.953 24.7855 233.641 26.4335L233.929 27.1295V26.3135L233.881 18.2495C233.881 18.1535 234.041 18.0815 234.361 18.0335C234.681 17.9855 235.033 17.9615 235.417 17.9615L236.017 17.9375C236.385 17.9375 236.633 17.9695 236.761 18.0335C236.921 18.0975 237.001 18.2975 237.001 18.6335V20.1215L237.025 21.6095V27.2015ZM243.121 30.9455C242.225 30.9455 241.449 30.7135 240.793 30.2495C240.137 29.7695 239.633 29.1375 239.281 28.3535C238.945 27.5695 238.777 26.7215 238.777 25.8095C238.777 24.9935 238.961 24.1935 239.329 23.4095C239.713 22.6095 240.249 21.9615 240.937 21.4655C241.641 20.9695 242.449 20.7215 243.361 20.7215C244.769 20.7215 245.809 21.2175 246.481 22.2095C247.169 23.2015 247.513 24.4335 247.513 25.9055C247.513 26.6895 247.361 27.4655 247.057 28.2335C246.753 29.0015 246.273 29.6495 245.617 30.1775C244.961 30.6895 244.129 30.9455 243.121 30.9455ZM243.169 23.4095C242.737 23.4095 242.385 23.6335 242.113 24.0815C241.857 24.5295 241.729 25.1375 241.729 25.9055C241.729 26.5455 241.865 27.0975 242.137 27.5615C242.409 28.0255 242.769 28.2575 243.217 28.2575C243.633 28.2575 243.961 28.0655 244.201 27.6815C244.441 27.2975 244.561 26.7055 244.561 25.9055C244.561 25.2335 244.433 24.6495 244.177 24.1535C243.921 23.6575 243.585 23.4095 243.169 23.4095ZM246.433 32.1455C246.577 32.1455 246.673 32.2895 246.721 32.5775C246.769 32.8655 246.793 33.2415 246.793 33.7055C246.793 34.0095 246.769 34.2655 246.721 34.4735C246.689 34.6815 246.593 34.7855 246.433 34.7855C246.353 34.7855 246.193 34.7935 245.953 34.8095C245.729 34.8255 245.417 34.8335 245.017 34.8335L239.833 34.8095C239.705 34.8095 239.617 34.7055 239.569 34.4975C239.521 34.2735 239.497 34.0095 239.497 33.7055C239.497 33.4015 239.521 33.0655 239.569 32.6975C239.617 32.3135 239.697 32.1215 239.809 32.1215L241.849 32.1455H243.913H246.433ZM262.979 28.0415C263.139 28.0415 263.259 28.0815 263.339 28.1615C263.435 28.2415 263.483 28.4015 263.483 28.6415L263.459 29.2655C263.411 29.6975 263.387 30.1935 263.387 30.7535C263.387 30.8815 263.315 30.9615 263.171 30.9935C263.043 31.0255 262.867 31.0415 262.643 31.0415C262.419 31.0415 262.267 31.0415 262.187 31.0415H262.163L262.139 33.8495C262.139 34.2335 262.099 34.4975 262.019 34.6415C261.939 34.7695 261.819 34.8335 261.659 34.8335H260.579C260.467 34.8335 260.243 34.8335 259.907 34.8335C259.587 34.8495 259.347 34.8255 259.187 34.7615C259.027 34.6975 258.947 34.5855 258.947 34.4255L258.971 32.6015C258.987 32.3455 258.995 32.0495 258.995 31.7135V31.0175L253.715 31.0655C253.491 31.0655 253.379 30.8575 253.379 30.4415C253.379 30.4415 253.379 30.1695 253.379 29.6255V29.0735C253.379 28.3375 254.283 26.4975 256.091 23.5535C256.955 22.1135 257.755 20.9215 258.491 19.9775C259.227 19.0335 259.779 18.5615 260.147 18.5615H261.371C261.659 18.5615 261.851 18.6095 261.947 18.7055C262.059 18.8015 262.115 18.9935 262.115 19.2815V20.6735L262.091 23.9615L262.139 28.0175C262.347 28.0335 262.627 28.0415 262.979 28.0415ZM258.995 23.4815C258.787 23.7695 258.475 24.2495 258.059 24.9215C257.211 26.3775 256.627 27.4815 256.307 28.2335H258.995V27.2735V23.4815ZM270.117 26.3615C271.253 26.5055 272.229 26.8815 273.045 27.4895C273.877 28.0975 274.293 29.0815 274.293 30.4415C274.293 31.9615 273.813 33.1295 272.853 33.9455C271.909 34.7615 270.701 35.1695 269.229 35.1695C268.413 35.1695 267.669 35.0495 266.997 34.8095C266.325 34.5535 265.789 34.2655 265.389 33.9455C265.005 33.6095 264.813 33.3455 264.813 33.1535C264.813 32.8655 264.869 32.4655 264.981 31.9535C265.109 31.4255 265.253 30.9695 265.413 30.5855C265.589 30.1855 265.765 29.9855 265.941 29.9855C266.005 29.9855 266.077 30.0255 266.157 30.1055C266.445 30.4575 266.869 30.7855 267.429 31.0895C268.005 31.3775 268.573 31.5215 269.133 31.5215C270.397 31.5215 271.029 31.0655 271.029 30.1535C271.029 29.6095 270.877 29.2415 270.573 29.0495C270.269 28.8415 269.789 28.7375 269.133 28.7375C268.813 28.7375 268.349 28.7855 267.741 28.8815C267.565 28.9135 267.445 28.7775 267.381 28.4735C267.317 28.1535 267.285 27.5455 267.285 26.6495C267.285 26.4735 267.405 26.1775 267.645 25.7615C267.901 25.3295 268.293 24.7215 268.821 23.9375C269.413 23.0575 269.789 22.4815 269.949 22.2095H269.061L265.773 22.2335C265.549 22.2335 265.437 22.0255 265.437 21.6095V20.6495V18.9455C265.437 18.7855 265.469 18.6815 265.533 18.6335C265.613 18.5855 265.749 18.5535 265.941 18.5375L267.837 18.5615C268.109 18.5775 268.469 18.5855 268.917 18.5855C269.125 18.6015 270.021 18.6095 271.605 18.6095L272.445 18.5615L273.069 18.5375C273.213 18.5375 273.325 18.5775 273.405 18.6575C273.501 18.7215 273.557 18.8655 273.573 19.0895L273.549 21.0575C273.549 21.2975 273.421 21.6175 273.165 22.0175C272.909 22.4015 272.501 22.9695 271.941 23.7215C271.093 24.8575 270.485 25.7375 270.117 26.3615Z" fill="#E65C00"/>
<path d="M106.83 57.1919V55.1669H98.7749V44.5169H100.125V53.9669H105.36V44.5169H106.71V53.9669H108.03V57.1919H106.83ZM113.09 55.3169C112.5 55.3169 111.96 55.2119 111.47 55.0019C110.99 54.7819 110.57 54.4869 110.21 54.1169C109.86 53.7369 109.585 53.3019 109.385 52.8119C109.195 52.3219 109.1 51.8019 109.1 51.2519C109.1 50.5119 109.27 49.8369 109.61 49.2269C109.95 48.6169 110.42 48.1269 111.02 47.7569C111.63 47.3869 112.325 47.2019 113.105 47.2019C113.895 47.2019 114.58 47.3919 115.16 47.7719C115.75 48.1419 116.205 48.6319 116.525 49.2419C116.855 49.8419 117.02 50.4919 117.02 51.1919C117.02 51.2919 117.015 51.3919 117.005 51.4919C117.005 51.5819 117 51.6519 116.99 51.7019H110.495C110.535 52.2119 110.675 52.6669 110.915 53.0669C111.165 53.4569 111.485 53.7669 111.875 53.9969C112.265 54.2169 112.685 54.3269 113.135 54.3269C113.615 54.3269 114.065 54.2069 114.485 53.9669C114.915 53.7269 115.21 53.4119 115.37 53.0219L116.51 53.3369C116.34 53.7169 116.085 54.0569 115.745 54.3569C115.415 54.6569 115.02 54.8919 114.56 55.0619C114.11 55.2319 113.62 55.3169 113.09 55.3169ZM110.45 50.7869H115.79C115.75 50.2769 115.605 49.8269 115.355 49.4369C115.105 49.0469 114.785 48.7419 114.395 48.5219C114.005 48.3019 113.575 48.1919 113.105 48.1919C112.645 48.1919 112.22 48.3019 111.83 48.5219C111.44 48.7419 111.12 49.0469 110.87 49.4369C110.63 49.8269 110.49 50.2769 110.45 50.7869ZM118.472 55.1669V47.3369H119.792V50.5769H123.872V47.3369H125.192V55.1669H123.872V51.7469H119.792V55.1669H118.472ZM129.225 55.1669V48.5069H126.525V47.3369H133.245V48.5069H130.545V55.1669H129.225ZM138.786 55.3169C138.146 55.3169 137.576 55.1569 137.076 54.8369C136.576 54.5169 136.181 54.1119 135.891 53.6219V58.3619H134.571V47.3369H135.741V48.8069C136.051 48.3269 136.456 47.9419 136.956 47.6519C137.456 47.3519 138.001 47.2019 138.591 47.2019C139.131 47.2019 139.626 47.3119 140.076 47.5319C140.526 47.7519 140.916 48.0519 141.246 48.4319C141.576 48.8119 141.831 49.2469 142.011 49.7369C142.201 50.2169 142.296 50.7219 142.296 51.2519C142.296 51.9919 142.146 52.6719 141.846 53.2919C141.556 53.9119 141.146 54.4069 140.616 54.7769C140.086 55.1369 139.476 55.3169 138.786 55.3169ZM138.381 54.1769C138.771 54.1769 139.121 54.0969 139.431 53.9369C139.751 53.7669 140.021 53.5469 140.241 53.2769C140.471 52.9969 140.646 52.6819 140.766 52.3319C140.886 51.9819 140.946 51.6219 140.946 51.2519C140.946 50.8619 140.876 50.4919 140.736 50.1419C140.606 49.7919 140.416 49.4819 140.166 49.2119C139.926 48.9419 139.641 48.7319 139.311 48.5819C138.991 48.4219 138.641 48.3419 138.261 48.3419C138.021 48.3419 137.771 48.3869 137.511 48.4769C137.261 48.5669 137.021 48.6969 136.791 48.8669C136.561 49.0269 136.366 49.2119 136.206 49.4219C136.046 49.6319 135.941 49.8569 135.891 50.0969V52.3319C136.041 52.6719 136.241 52.9819 136.491 53.2619C136.741 53.5419 137.031 53.7669 137.361 53.9369C137.691 54.0969 138.031 54.1769 138.381 54.1769ZM151.925 55.3169C151.285 55.3169 150.715 55.1569 150.215 54.8369C149.715 54.5169 149.32 54.1119 149.03 53.6219V58.3619H147.71V47.3369H148.88V48.8069C149.19 48.3269 149.595 47.9419 150.095 47.6519C150.595 47.3519 151.14 47.2019 151.73 47.2019C152.27 47.2019 152.765 47.3119 153.215 47.5319C153.665 47.7519 154.055 48.0519 154.385 48.4319C154.715 48.8119 154.97 49.2469 155.15 49.7369C155.34 50.2169 155.435 50.7219 155.435 51.2519C155.435 51.9919 155.285 52.6719 154.985 53.2919C154.695 53.9119 154.285 54.4069 153.755 54.7769C153.225 55.1369 152.615 55.3169 151.925 55.3169ZM151.52 54.1769C151.91 54.1769 152.26 54.0969 152.57 53.9369C152.89 53.7669 153.16 53.5469 153.38 53.2769C153.61 52.9969 153.785 52.6819 153.905 52.3319C154.025 51.9819 154.085 51.6219 154.085 51.2519C154.085 50.8619 154.015 50.4919 153.875 50.1419C153.745 49.7919 153.555 49.4819 153.305 49.2119C153.065 48.9419 152.78 48.7319 152.45 48.5819C152.13 48.4219 151.78 48.3419 151.4 48.3419C151.16 48.3419 150.91 48.3869 150.65 48.4769C150.4 48.5669 150.16 48.6969 149.93 48.8669C149.7 49.0269 149.505 49.2119 149.345 49.4219C149.185 49.6319 149.08 49.8569 149.03 50.0969V52.3319C149.18 52.6719 149.38 52.9819 149.63 53.2619C149.88 53.5419 150.17 53.7669 150.5 53.9369C150.83 54.0969 151.17 54.1769 151.52 54.1769ZM156.441 52.9019C156.441 52.4019 156.581 51.9719 156.861 51.6119C157.151 51.2419 157.546 50.9569 158.046 50.7569C158.546 50.5569 159.126 50.4569 159.786 50.4569C160.136 50.4569 160.506 50.4869 160.896 50.5469C161.286 50.5969 161.631 50.6769 161.931 50.7869V50.2169C161.931 49.6169 161.751 49.1469 161.391 48.8069C161.031 48.4569 160.521 48.2819 159.861 48.2819C159.431 48.2819 159.016 48.3619 158.616 48.5219C158.226 48.6719 157.811 48.8919 157.371 49.1819L156.891 48.2519C157.401 47.9019 157.911 47.6419 158.421 47.4719C158.931 47.2919 159.461 47.2019 160.011 47.2019C161.011 47.2019 161.801 47.4819 162.381 48.0419C162.961 48.5919 163.251 49.3619 163.251 50.3519V53.6669C163.251 53.8269 163.281 53.9469 163.341 54.0269C163.411 54.0969 163.521 54.1369 163.671 54.1469V55.1669C163.541 55.1869 163.426 55.2019 163.326 55.2119C163.236 55.2219 163.161 55.2269 163.101 55.2269C162.791 55.2269 162.556 55.1419 162.396 54.9719C162.246 54.8019 162.161 54.6219 162.141 54.4319L162.111 53.9369C161.771 54.3769 161.326 54.7169 160.776 54.9569C160.226 55.1969 159.681 55.3169 159.141 55.3169C158.621 55.3169 158.156 55.2119 157.746 55.0019C157.336 54.7819 157.016 54.4919 156.786 54.1319C156.556 53.7619 156.441 53.3519 156.441 52.9019ZM161.541 53.4569C161.661 53.3169 161.756 53.1769 161.826 53.0369C161.896 52.8869 161.931 52.7619 161.931 52.6619V51.6869C161.621 51.5669 161.296 51.4769 160.956 51.4169C160.616 51.3469 160.281 51.3119 159.951 51.3119C159.281 51.3119 158.736 51.4469 158.316 51.7169C157.906 51.9769 157.701 52.3369 157.701 52.7969C157.701 53.0469 157.766 53.2919 157.896 53.5319C158.036 53.7619 158.236 53.9519 158.496 54.1019C158.766 54.2519 159.096 54.3269 159.486 54.3269C159.896 54.3269 160.286 54.2469 160.656 54.0869C161.026 53.9169 161.321 53.7069 161.541 53.4569ZM167.807 55.2719C167.047 55.2719 166.402 55.1319 165.872 54.8519C165.352 54.5619 164.952 54.1619 164.672 53.6519L165.752 53.1719C165.932 53.4919 166.187 53.7419 166.517 53.9219C166.857 54.1019 167.267 54.1919 167.747 54.1919C168.317 54.1919 168.767 54.0669 169.097 53.8169C169.427 53.5669 169.592 53.2319 169.592 52.8119C169.592 52.4319 169.457 52.1269 169.187 51.8969C168.927 51.6569 168.557 51.5319 168.077 51.5219H167.282V50.6519H168.122C168.332 50.6519 168.517 50.6019 168.677 50.5019C168.847 50.3919 168.977 50.2469 169.067 50.0669C169.167 49.8869 169.217 49.6869 169.217 49.4669C169.217 49.1169 169.092 48.8369 168.842 48.6269C168.592 48.4069 168.217 48.2969 167.717 48.2969C167.307 48.2969 166.962 48.3769 166.682 48.5369C166.412 48.6969 166.192 48.9369 166.022 49.2569L165.017 48.7169C165.267 48.2469 165.627 47.8819 166.097 47.6219C166.577 47.3519 167.137 47.2169 167.777 47.2169C168.287 47.2169 168.737 47.3019 169.127 47.4719C169.527 47.6319 169.837 47.8669 170.057 48.1769C170.287 48.4869 170.402 48.8619 170.402 49.3019C170.402 49.6719 170.312 50.0169 170.132 50.3369C169.962 50.6469 169.707 50.8819 169.367 51.0419C169.837 51.1819 170.197 51.4269 170.447 51.7769C170.697 52.1169 170.822 52.5219 170.822 52.9919C170.822 53.4719 170.692 53.8819 170.432 54.2219C170.172 54.5619 169.817 54.8219 169.367 55.0019C168.917 55.1819 168.397 55.2719 167.807 55.2719ZM172.393 55.1669V47.3369H176.443C176.913 47.3369 177.303 47.4319 177.613 47.6219C177.923 47.8019 178.153 48.0369 178.303 48.3269C178.463 48.6169 178.543 48.9269 178.543 49.2569C178.543 49.6769 178.443 50.0569 178.243 50.3969C178.043 50.7269 177.753 50.9769 177.373 51.1469C177.823 51.2769 178.188 51.5119 178.468 51.8519C178.748 52.1819 178.888 52.5919 178.888 53.0819C178.888 53.5219 178.783 53.8969 178.573 54.2069C178.363 54.5169 178.068 54.7569 177.688 54.9269C177.308 55.0869 176.868 55.1669 176.368 55.1669H172.393ZM173.653 54.2369H176.338C176.578 54.2369 176.793 54.1769 176.983 54.0569C177.183 53.9369 177.338 53.7769 177.448 53.5769C177.558 53.3769 177.613 53.1669 177.613 52.9469C177.613 52.7069 177.558 52.4919 177.448 52.3019C177.348 52.1019 177.203 51.9469 177.013 51.8369C176.833 51.7169 176.623 51.6569 176.383 51.6569H173.653V54.2369ZM173.653 50.7869H176.098C176.338 50.7869 176.548 50.7269 176.728 50.6069C176.908 50.4769 177.048 50.3119 177.148 50.1119C177.248 49.9119 177.298 49.7019 177.298 49.4819C177.298 49.1519 177.188 48.8669 176.968 48.6269C176.758 48.3869 176.483 48.2669 176.143 48.2669H173.653V50.7869ZM180.552 55.1669V47.3519H181.872V53.3969L186.252 47.3369H187.452V55.1669H186.132V49.2419L181.812 55.1669H180.552ZM191.466 55.1669V48.5069H188.766V47.3369H195.486V48.5069H192.786V55.1669H191.466ZM196.797 55.1669V47.3519H198.117V53.3969L202.497 47.3369H203.697V55.1669H202.377V49.2419L198.057 55.1669H196.797ZM205.221 55.1669L207.441 52.0169C206.931 51.9169 206.521 51.6769 206.211 51.2969C205.901 50.9069 205.746 50.3869 205.746 49.7369C205.746 49.2669 205.856 48.8519 206.076 48.4919C206.296 48.1319 206.601 47.8469 206.991 47.6369C207.391 47.4269 207.856 47.3219 208.386 47.3219H211.596V55.1669H210.276V52.2269H208.746L206.676 55.1669H205.221ZM208.476 51.2519H210.276V48.3569H208.626C208.156 48.3569 207.781 48.4919 207.501 48.7619C207.221 49.0219 207.081 49.3569 207.081 49.7669C207.081 50.1769 207.196 50.5269 207.426 50.8169C207.666 51.1069 208.016 51.2519 208.476 51.2519ZM221.74 55.3169C221.1 55.3169 220.53 55.1569 220.03 54.8369C219.53 54.5169 219.135 54.1119 218.845 53.6219V58.3619H217.525V47.3369H218.695V48.8069C219.005 48.3269 219.41 47.9419 219.91 47.6519C220.41 47.3519 220.955 47.2019 221.545 47.2019C222.085 47.2019 222.58 47.3119 223.03 47.5319C223.48 47.7519 223.87 48.0519 224.2 48.4319C224.53 48.8119 224.785 49.2469 224.965 49.7369C225.155 50.2169 225.25 50.7219 225.25 51.2519C225.25 51.9919 225.1 52.6719 224.8 53.2919C224.51 53.9119 224.1 54.4069 223.57 54.7769C223.04 55.1369 222.43 55.3169 221.74 55.3169ZM221.335 54.1769C221.725 54.1769 222.075 54.0969 222.385 53.9369C222.705 53.7669 222.975 53.5469 223.195 53.2769C223.425 52.9969 223.6 52.6819 223.72 52.3319C223.84 51.9819 223.9 51.6219 223.9 51.2519C223.9 50.8619 223.83 50.4919 223.69 50.1419C223.56 49.7919 223.37 49.4819 223.12 49.2119C222.88 48.9419 222.595 48.7319 222.265 48.5819C221.945 48.4219 221.595 48.3419 221.215 48.3419C220.975 48.3419 220.725 48.3869 220.465 48.4769C220.215 48.5669 219.975 48.6969 219.745 48.8669C219.515 49.0269 219.32 49.2119 219.16 49.4219C219 49.6319 218.895 49.8569 218.845 50.0969V52.3319C218.995 52.6719 219.195 52.9819 219.445 53.2619C219.695 53.5419 219.985 53.7669 220.315 53.9369C220.645 54.0969 220.985 54.1769 221.335 54.1769ZM230.336 55.3169C229.746 55.3169 229.206 55.2119 228.716 55.0019C228.236 54.7819 227.816 54.4869 227.456 54.1169C227.106 53.7369 226.831 53.3019 226.631 52.8119C226.441 52.3219 226.346 51.8019 226.346 51.2519C226.346 50.5119 226.516 49.8369 226.856 49.2269C227.196 48.6169 227.666 48.1269 228.266 47.7569C228.876 47.3869 229.571 47.2019 230.351 47.2019C231.141 47.2019 231.826 47.3919 232.406 47.7719C232.996 48.1419 233.451 48.6319 233.771 49.2419C234.101 49.8419 234.266 50.4919 234.266 51.1919C234.266 51.2919 234.261 51.3919 234.251 51.4919C234.251 51.5819 234.246 51.6519 234.236 51.7019H227.741C227.781 52.2119 227.921 52.6669 228.161 53.0669C228.411 53.4569 228.731 53.7669 229.121 53.9969C229.511 54.2169 229.931 54.3269 230.381 54.3269C230.861 54.3269 231.311 54.2069 231.731 53.9669C232.161 53.7269 232.456 53.4119 232.616 53.0219L233.756 53.3369C233.586 53.7169 233.331 54.0569 232.991 54.3569C232.661 54.6569 232.266 54.8919 231.806 55.0619C231.356 55.2319 230.866 55.3169 230.336 55.3169ZM227.696 50.7869H233.036C232.996 50.2769 232.851 49.8269 232.601 49.4369C232.351 49.0469 232.031 48.7419 231.641 48.5219C231.251 48.3019 230.821 48.1919 230.351 48.1919C229.891 48.1919 229.466 48.3019 229.076 48.5219C228.686 48.7419 228.366 49.0469 228.116 49.4369C227.876 49.8269 227.736 50.2769 227.696 50.7869ZM239.423 55.3169C238.133 55.3169 237.158 54.9269 236.498 54.1469C235.838 53.3669 235.508 52.2669 235.508 50.8469C235.508 49.8769 235.588 49.0619 235.748 48.4019C235.908 47.7319 236.148 47.1819 236.468 46.7519C236.788 46.3119 237.183 45.9569 237.653 45.6869C238.123 45.4069 238.663 45.1769 239.273 44.9969L242.588 43.9919L242.663 45.1319L239.438 46.1069C238.888 46.2869 238.428 46.5169 238.058 46.7969C237.688 47.0769 237.398 47.4369 237.188 47.8769C236.978 48.3169 236.838 48.8819 236.768 49.5719C237.028 49.0419 237.418 48.6319 237.938 48.3419C238.458 48.0419 239.063 47.8919 239.753 47.8919C240.493 47.8919 241.128 48.0469 241.658 48.3569C242.198 48.6569 242.608 49.0819 242.888 49.6319C243.178 50.1719 243.323 50.7969 243.323 51.5069C243.323 52.2669 243.173 52.9319 242.873 53.5019C242.573 54.0719 242.133 54.5169 241.553 54.8369C240.973 55.1569 240.263 55.3169 239.423 55.3169ZM239.423 54.1769C240.233 54.1769 240.858 53.9419 241.298 53.4719C241.748 52.9919 241.973 52.3569 241.973 51.5669C241.973 50.7969 241.753 50.1719 241.313 49.6919C240.873 49.2119 240.243 48.9719 239.423 48.9719C238.943 48.9719 238.508 49.0719 238.118 49.2719C237.738 49.4719 237.433 49.7669 237.203 50.1569C236.983 50.5369 236.873 51.0069 236.873 51.5669C236.873 52.0669 236.968 52.5169 237.158 52.9169C237.358 53.3069 237.648 53.6169 238.028 53.8469C238.408 54.0669 238.873 54.1769 239.423 54.1769ZM248.397 55.3169C247.807 55.3169 247.267 55.2119 246.777 55.0019C246.297 54.7819 245.877 54.4869 245.517 54.1169C245.167 53.7369 244.892 53.3019 244.692 52.8119C244.502 52.3219 244.407 51.8019 244.407 51.2519C244.407 50.5119 244.577 49.8369 244.917 49.2269C245.257 48.6169 245.727 48.1269 246.327 47.7569C246.937 47.3869 247.632 47.2019 248.412 47.2019C249.202 47.2019 249.887 47.3919 250.467 47.7719C251.057 48.1419 251.512 48.6319 251.832 49.2419C252.162 49.8419 252.327 50.4919 252.327 51.1919C252.327 51.2919 252.322 51.3919 252.312 51.4919C252.312 51.5819 252.307 51.6519 252.297 51.7019H245.802C245.842 52.2119 245.982 52.6669 246.222 53.0669C246.472 53.4569 246.792 53.7669 247.182 53.9969C247.572 54.2169 247.992 54.3269 248.442 54.3269C248.922 54.3269 249.372 54.2069 249.792 53.9669C250.222 53.7269 250.517 53.4119 250.677 53.0219L251.817 53.3369C251.647 53.7169 251.392 54.0569 251.052 54.3569C250.722 54.6569 250.327 54.8919 249.867 55.0619C249.417 55.2319 248.927 55.3169 248.397 55.3169ZM245.757 50.7869H251.097C251.057 50.2769 250.912 49.8269 250.662 49.4369C250.412 49.0469 250.092 48.7419 249.702 48.5219C249.312 48.3019 248.882 48.1919 248.412 48.1919C247.952 48.1919 247.527 48.3019 247.137 48.5219C246.747 48.7419 246.427 49.0469 246.177 49.4369C245.937 49.8269 245.797 50.2769 245.757 50.7869ZM253.779 55.1669V47.3369H255.099V50.5769H259.179V47.3369H260.499V55.1669H259.179V51.7469H255.099V55.1669H253.779ZM262.612 55.1669V47.3369H263.932V50.5619H264.802L267.262 47.3369H268.762L265.837 51.1319L269.107 55.1669H267.577L264.802 51.7769H263.932V55.1669H262.612ZM269.791 52.9019C269.791 52.4019 269.931 51.9719 270.211 51.6119C270.501 51.2419 270.896 50.9569 271.396 50.7569C271.896 50.5569 272.476 50.4569 273.136 50.4569C273.486 50.4569 273.856 50.4869 274.246 50.5469C274.636 50.5969 274.981 50.6769 275.281 50.7869V50.2169C275.281 49.6169 275.101 49.1469 274.741 48.8069C274.381 48.4569 273.871 48.2819 273.211 48.2819C272.781 48.2819 272.366 48.3619 271.966 48.5219C271.576 48.6719 271.161 48.8919 270.721 49.1819L270.241 48.2519C270.751 47.9019 271.261 47.6419 271.771 47.4719C272.281 47.2919 272.811 47.2019 273.361 47.2019C274.361 47.2019 275.151 47.4819 275.731 48.0419C276.311 48.5919 276.601 49.3619 276.601 50.3519V53.6669C276.601 53.8269 276.631 53.9469 276.691 54.0269C276.761 54.0969 276.871 54.1369 277.021 54.1469V55.1669C276.891 55.1869 276.776 55.2019 276.676 55.2119C276.586 55.2219 276.511 55.2269 276.451 55.2269C276.141 55.2269 275.906 55.1419 275.746 54.9719C275.596 54.8019 275.511 54.6219 275.491 54.4319L275.461 53.9369C275.121 54.3769 274.676 54.7169 274.126 54.9569C273.576 55.1969 273.031 55.3169 272.491 55.3169C271.971 55.3169 271.506 55.2119 271.096 55.0019C270.686 54.7819 270.366 54.4919 270.136 54.1319C269.906 53.7619 269.791 53.3519 269.791 52.9019ZM274.891 53.4569C275.011 53.3169 275.106 53.1769 275.176 53.0369C275.246 52.8869 275.281 52.7619 275.281 52.6619V51.6869C274.971 51.5669 274.646 51.4769 274.306 51.4169C273.966 51.3469 273.631 51.3119 273.301 51.3119C272.631 51.3119 272.086 51.4469 271.666 51.7169C271.256 51.9769 271.051 52.3369 271.051 52.7969C271.051 53.0469 271.116 53.2919 271.246 53.5319C271.386 53.7619 271.586 53.9519 271.846 54.1019C272.116 54.2519 272.446 54.3269 272.836 54.3269C273.246 54.3269 273.636 54.2469 274.006 54.0869C274.376 53.9169 274.671 53.7069 274.891 53.4569Z" fill="#2A2D34"/>
</svg>
