<svg width="512" height="512" fill="none" xmlns="http://www.w3.org/2000/svg"><path fill="#fff" d="M0 0h512v512H0z"/><path d="M344.206 125.372a7.032 7.032 0 0 1 7.033 7.031v65.706a7.032 7.032 0 0 1-7.033 7.031h-17.429a7.032 7.032 0 0 1-7.033-7.031v-65.706a7.032 7.032 0 0 1 7.033-7.031h17.429Zm8.903 88.275a7.032 7.032 0 0 1 7.033 7.031v117.194a7.032 7.032 0 0 1-7.033 7.032h-69.018v-75.049a5.248 5.248 0 0 0-5.249-5.248h-42.754a5.248 5.248 0 0 0-5.249 5.248v75.049h-71.028a7.032 7.032 0 0 1-7.033-7.032V220.678a7.032 7.032 0 0 1 7.033-7.031h193.298Z" fill="#C0D0FF"/><path d="M255.521 93.32a4.206 4.206 0 0 1 6.004.045L379.809 215.75c2.58 2.669.688 7.128-3.025 7.128H136.592c-3.743 0-5.621-4.522-2.979-7.174L255.521 93.32Z" fill="#C12A71"/><path d="M356.494 89.197c0 10.1-11.793 17.614-19.662 24.413-1.365 1.18-3.421 1.195-4.793.024-8.14-6.943-19.639-14.3-19.639-24.437 0-11.187 13.779-14.77 22.047-7.174 8.038-7.385 22.047-4.013 22.047 7.174Z" fill="#F15F79"/><rect x="172.951" y="259.594" width="39.185" height="39.176" rx="4.206" fill="#E65C00"/><rect x="306.261" y="236.787" width="31.495" height="38.835" rx="4.206" fill="#3155BE"/><path d="M395.938 336.449a1377.368 1377.368 0 0 0-18.694 8.319h-.203V312.23h18.897v24.219Z" fill="#2A824D"/><rect x="345.001" y="232.399" width="83.988" height="83.967" rx="41.983" fill="#E65C00"/><rect width="104.984" height="104.959" rx="52.479" transform="matrix(1 -.00046 .02932 .99957 64.197 165.724)" fill="#F9D423"/><path d="M79.984 359.066c35.989-.783 97.323-.796 132.343 6.626 23.192 4.915 34.845 15.028 40.643 24.693.84 1.401 8.947 1.401 9.787 0 5.798-9.665 18.654-19.778 41.846-24.693 33.842-7.172 92.253-7.402 128.624-6.703-5.009-14.642-17.741-25.633-33.972-27.272-29.645-2.991-77.338-6.327-142.637-6.326-65.298 0-112.991 3.335-142.636 6.327-16.26 1.64-29.007 12.668-33.998 27.348Z" fill="#53CC51"/><path fill-rule="evenodd" clip-rule="evenodd" d="M107.172 269.239h21.049v89.621c-7.209-.113-14.284-.151-21.049-.137v-89.484Z" fill="#3155BE"/><path d="M43.35 398.921c-4.702-1.92-9.85 1.538-9.85 6.615a7.146 7.146 0 0 0 4.347 6.575l184.1 3.176c1.015.433 1.854 1.183 2.485 2.089a26.101 26.101 0 0 0 21.424 11.189h21.974c9.061 0 17.26-4.669 21.965-11.998.637-.992 1.519-1.816 2.604-2.278l181.195-1.94a8.065 8.065 0 0 0 4.906-7.42c0-4.782-4.854-8.034-9.278-6.215l-186.859.976c-1.542.634-2.691 1.983-3.577 3.395-2.12 3.377-7.916 9.145-22.786 9.145-14.088 0-19.275-5.177-21.164-8.593-.936-1.694-2.179-3.395-3.972-4.127l-187.514-.589Z" fill="#274397"/><path d="M398.241 397.982a4.204 4.204 0 0 1 3.939-4.109l23.96-1.511a4.207 4.207 0 0 1 4.464 4.449l-1.697 28.461a1.681 1.681 0 0 1-2.531 1.349l-10.276-6.038a2.523 2.523 0 0 0-2.9.242l-12.87 10.793c-1.107.928-2.793.12-2.763-1.325l.674-32.311Z" fill="#F15F79"/></svg>